<?xml version="1.0" encoding="UTF-8"?>
<svg xmlns="http://www.w3.org/2000/svg" viewBox="0 0 444.21 425.96">
  <defs>
    <style>
      .cls-1 {
        fill: #d766a2;
      }

      .cls-2 {
        fill: #79ccf3;
      }

      .cls-3 {
        isolation: isolate;
      }

      .cls-4 {
        mix-blend-mode: hard-light;
      }

      .cls-5 {
        fill: #e20613;
      }

      .cls-6 {
        fill: #f2921a;
      }

      .cls-7 {
        fill: #198ece;
      }

      .cls-8 {
        fill: #bbce00;
      }

      .cls-9 {
        fill: #009ee2;
      }

      .cls-10 {
        fill: #fccd00;
      }
    </style>
  </defs>
  <g class="cls-3">
    <g id="Layer_2" data-name="Layer 2">
      <g id="Camada_1" data-name="Camada 1">
        <g class="cls-4">
          <circle class="cls-6" cx="103.79" cy="24.17" r="5.48"/>
          <path class="cls-8" d="m3.15,166.22s-9.07,64.53,3.59,95.88l5.54-.99,12.55-11.93-6.59-63.31-15.08-19.66Z"/>
          <ellipse class="cls-10" cx="74.99" cy="87.13" rx="28.75" ry="18.38" transform="translate(-37.09 61.55) rotate(-36.42)"/>
          <ellipse class="cls-6" cx="364.79" cy="171.14" rx="12.9" ry="19.02" transform="translate(-37.31 197.21) rotate(-28.84)"/>
          <path class="cls-8" d="m103.18,314.87c-31.07-4.69-51.85-37.7-46.42-73.73,5.43-36.03,35.03-61.45,66.09-56.76,31.07,4.69,57.55,38.55,52.12,74.59-5.43,36.03-6.96,65.68-71.79,55.9Z"/>
          <circle class="cls-5" cx="193.82" cy="10.63" r="8.93"/>
          <circle class="cls-5" cx="284.08" cy="175.75" r="7.67"/>
          <path class="cls-7" d="m192.73,424.66s-92.29-1.14-147.5-83.87c0,0,88.93,38.46,147.5,83.87Z"/>
          <path class="cls-10" d="m6.73,262.11s22.26,60.45,38.5,78.68c0,0,5.51-3.16-11.96-58.51,0,0-13.17-26.79-26.54-20.17Z"/>
          <ellipse class="cls-1" cx="287.39" cy="254.44" rx="31.21" ry="33.56" transform="translate(-7.06 500.67) rotate(-81.42)"/>
          <ellipse class="cls-1" cx="123.12" cy="108.79" rx="16.67" ry="13" transform="translate(-40.54 94.36) rotate(-36.42)"/>
          <path class="cls-2" d="m77.55,368.04c-24.12-9.27-49.45-42.7-46.43-62.73,3.02-20.02,24.94-33.32,48.96-29.7,24.02,3.62,51.07,58.98,48.05,79.01-3.02,20.02-28.62,21.86-50.59,13.42Z"/>
          <ellipse class="cls-2" cx="187.64" cy="156.01" rx="48.95" ry="52.63" transform="translate(5.39 318.29) rotate(-81.42)"/>
          <circle class="cls-1" cx="365.03" cy="75.49" r="4.36"/>
          <ellipse class="cls-10" cx="346.81" cy="392.27" rx="15.8" ry="6.85" transform="translate(-146.21 215.97) rotate(-28.84)"/>
          <circle class="cls-5" cx="418.3" cy="297.91" r="6.16"/>
          <ellipse class="cls-9" cx="147.68" cy="7.05" rx="18.59" ry="5.78" transform="translate(2.3 33.95) rotate(-13.22)"/>
          <ellipse class="cls-5" cx="210.24" cy="341.64" rx="43.29" ry="54.63" transform="translate(-158.94 498.59) rotate(-81.42)"/>
          <ellipse class="cls-1" cx="33.86" cy="250.55" rx="23.13" ry="56.91" transform="translate(-56.38 14.38) rotate(-13.22)"/>
          <circle class="cls-8" cx="343.33" cy="283.99" r="10.15"/>
          <ellipse class="cls-2" cx="356.63" cy="40.43" rx="4.19" ry="13.46" transform="translate(102.65 294.03) rotate(-51.42)"/>
          <ellipse class="cls-10" cx="134.63" cy="343.3" rx="40.21" ry="53.98" transform="translate(-230.33 290.49) rotate(-60.35)"/>
          <circle class="cls-7" cx="438.87" cy="238.69" r="5.34"/>
          <circle class="cls-7" cx="100.68" cy="82.09" r="8.25"/>
          <circle class="cls-2" cx="364.92" cy="336.59" r="9.61"/>
          <ellipse class="cls-8" cx="281.17" cy="76.22" rx="23.82" ry="30.92" transform="translate(99.26 303.75) rotate(-66.52)"/>
          <ellipse class="cls-5" cx="24.44" cy="162.21" rx="41.57" ry="20.46" transform="translate(-139.59 162.19) rotate(-81.42)"/>
          <circle class="cls-7" cx="202.91" cy="251.83" r="35.02"/>
          <circle class="cls-10" cx="309.56" cy="31.02" r="9.76"/>
          <circle class="cls-1" cx="426.51" cy="139.74" r="7.67"/>
          <ellipse class="cls-6" cx="193.49" cy="400.23" rx="24.27" ry="62.13" transform="translate(-231.12 531.87) rotate(-81.42)"/>
          <ellipse class="cls-6" cx="65.49" cy="183.26" rx="37.3" ry="26.66" transform="translate(-125.48 220.69) rotate(-81.42)"/>
        </g>
      </g>
    </g>
  </g>
</svg>