<?xml version="1.0" encoding="UTF-8"?>
<svg xmlns="http://www.w3.org/2000/svg" xmlns:xlink="http://www.w3.org/1999/xlink" viewBox="0 0 657.6 597.49">
  <defs>
    <style>
      .trompas-1, .trompas-2, .trompas-3, .trompas-4, .trompas-5, .trompas-6, .trompas-7 {
        stroke-width: 0px;
      }

      .trompas-1, .trompas-7 {
        fill: #f1f1f190;
      }

      .trompas-2, .trompas-4 {
        fill: #f1f1f190;
      }

      .trompas-3 {
        fill: #f1f1f190;
      }

      .trompas-3, .trompas-4, .trompas-6, .trompas-7 {
        fill-rule: evenodd;
      }

      .trompas-8 {
        isolation: isolate;
      }

      .trompas-5 {
        fill: #f1f1f190;
      }

      .trompas-6 {
        fill: #f1f1f190;
      }

      .trompas-9 {
        clip-path: url(#clippath);
      }

      .trompas-10 {
        mix-blend-mode: luminosity;
      }
    </style>
    <clipPath id="clippath">
      <rect class="trompas-5" width="657.6" height="597.49" rx="20.47" ry="20.47"/>
    </clipPath>
  </defs>
  <g class="trompas-8">
    <g id="trompas_2" data-name="trompas 2">
      <g id="Camada_1" data-name="Camada 1">
        <g class="trompas-10">
          <g class="trompas-9">
            <g>
              <rect class="trompas-1" x="152.7" y="362.87" width="26" height="47.91" transform="translate(-231.2 246.97) rotate(-47.4)"/>
              <path class="trompas-4" d="m145.7,352.39l-15.98,17.38c-1.94,2.11-1.88,5.35.13,7.2h0c2.01,1.85,5.24,1.64,7.18-.47l15.98-17.38c1.94-2.11,1.88-5.35-.13-7.2h0c-2.01-1.85-5.24-1.64-7.18.47Z"/>
              <path class="trompas-3" d="m139.86,379.54l16.42-17.86c-2.13,2.32-5.18-.49-3.05-2.8l-16.42,17.86c2.13-2.31,5.18.49,3.05,2.8Z"/>
              <path class="trompas-3" d="m129.45,369.96l16.42-17.86c-2.13,2.32-5.18-.49-3.05-2.8l-16.42,17.86c2.13-2.31,5.18.49,3.05,2.8Z"/>
              <path class="trompas-7" d="m128.5,318.07c8.55,9.13,13.89,13.27,14.32,31.23l-8.21,8.93-8.21,8.93c-17.93,1.08-22.5-3.89-32.31-11.65l17.21-18.71,17.21-18.71Z"/>
              <path class="trompas-4" d="m124.89,316.05l-33.12,36.02c-1.12,1.22-1.04,3.12.18,4.24h0c1.21,1.12,3.12,1.04,4.24-.18l33.12-36.02c1.12-1.22,1.04-3.12-.18-4.24h0c-1.21-1.12-3.12-1.04-4.24.18Z"/>
              <polygon class="trompas-7" points="186.43 385.27 165.89 407.6 287.17 517.24 302.48 491.99 186.43 385.27"/>
              <path class="trompas-3" d="m233.68,468.88l53.49,48.36,15.31-25.25-71.68-65.91c7.62,12.14,14.05,30.13,2.87,42.81Z"/>
              <rect class="trompas-2" x="170.36" y="392.32" width="30.34" height="25.46" transform="translate(-238.21 267.44) rotate(-47.4)"/>
              <path class="trompas-4" d="m210.44,399.05c-2.11-1.89-5.35-1.72-7.25.39-1.89,2.11-1.72,5.35.39,7.25.71.64,1.57,1.46,2.49,2.35h.02c9.17,8.85,24.43,23.56,46.87,4.89,2.17-1.82,2.46-5.06.64-7.23-1.82-2.17-5.06-2.46-7.24-.64-15.33,12.76-26.47,2.04-33.16-4.41-.97-.94-1.88-1.81-2.76-2.59Z"/>
              <path class="trompas-7" d="m610.15,350.62c-19.64,126.28-108.15,262.76-256.56,209.53-90.66-32.52-137.81-132.41-105.29-223.07,32.52-90.66,126.77-141.31,216.08-105.27,47.6,19.21,64.89,47.06,76.99,75.28-1.88-19.94-4.27-40.98-7.28-61.05-18.64-124.4-81.11-148.83-81.11-148.83,0,0,186.4.34,253.08.18-75.96,52.58-72.11,100.21-95.9,253.22h0Zm-244.4,127.74c49.98,17.93,106.37-11.78,125.94-66.33,19.57-54.55-5.09-113.33-55.07-131.25-49.97-17.92-106.37,11.78-125.93,66.33-19.57,54.55,5.09,113.33,55.06,131.25Z"/>
              <path class="trompas-3" d="m541.37,307.1l.67,1.5c11.81,27.58,13.77,70.24,3.64,110.1-10.08,39.72-35.59,78.1-85.47,100.28-1.26.56-2.02.89-2.28,1.01-34.29,14.69-67.76,12.84-96.21-.02-15.3-6.92-29.19-17.04-41-29.5-11.84-12.49-21.57-27.3-28.54-43.57-15.42-36-17.38-79.2,1.18-120.26,14.6-32.31,38.4-53.92,65.25-65.13,20.15-8.42,42.05-10.98,63.07-7.81,21.01,3.16,41.14,12.04,57.76,26.51,21.59,18.79,37.34,47.06,41.57,84.53,5.89,52.17-19.61,92.14-54.88,113.52-13.55,8.21-28.56,13.69-43.78,16.06-15.15,2.36-30.5,1.64-44.85-2.54-35.49-10.32-63.74-45.38-71.9-87.73h-.01c8.14,54.06,34.32,84.46,69.86,94.8,15.39,4.48,31.85,5.26,48.06,2.73,16.13-2.52,32.04-8.33,46.43-17.04,37.52-22.74,64.64-65.22,58.39-120.62-4.45-39.45-21.15-69.3-44.06-89.23-17.73-15.42-39.15-24.89-61.48-28.25-22.32-3.36-45.59-.63-67.02,8.32-28.45,11.88-53.65,34.74-69.08,68.88-19.47,43.08-17.42,88.41-1.24,126.18,7.32,17.1,17.53,32.64,29.94,45.73,12.43,13.11,27.1,23.79,43.32,31.12,81.35,36.78,173.37-24.47,194.1-106.14,3.72-14.65,12.94-70.16-11.43-113.39Z"/>
              <path class="trompas-4" d="m523.09,196.73c-.86-2.7-3.75-4.2-6.46-3.34-2.7.86-4.2,3.75-3.34,6.46l.53,1.65c4.89,15.25,11.77,36.69,3.68,42.02-3.77,2.49-13.75-1.32-23.96-7.87-9.56-6.14-19.87-12.75-30.07-14.72-2.78-.54-5.47,1.28-6.01,4.07-.54,2.78,1.28,5.47,4.07,6.01,8.22,1.58,17.68,7.66,26.47,13.3,13.16,8.44,25.79,13.95,35.15,7.78,14.61-9.63,6.34-35.38.47-53.71l-.53-1.65Z"/>
              <path class="trompas-3" d="m632.29,97.43c-26.93,27.65-37.37,65.14-36.35,93.1,1.03,27.97,24.2,209.36-60.8,326.96,40.23-43.21,65.57-106.21,75-166.88,23.79-153,19.95-200.64,95.9-253.22-17.92.04-44.49.05-73.76.03Z"/>
              <path class="trompas-4" d="m441.85,95.88h0c-.03,3.44,2.76,6.27,6.2,6.29l260.66,1.74c3.43.02,6.27-2.76,6.29-6.2h0c.03-3.44-2.76-6.27-6.2-6.29l-260.66-1.74c-3.44-.02-6.27,2.76-6.29,6.2Z"/>
              <path class="trompas-6" d="m490.93,114.5c12.79,14.95,47.9,45.16,56.19,154,8.81-84.51-14.57-149.22-14.57-149.22l-41.62-4.79Z"/>
              <path class="trompas-6" d="m328.61,245.2c-60.81,32.97-89.63,101.97-74.38,166.21-2.94-64.02,30.04-127.17,90.15-159.76,28.36-15.38,59.13-21.98,89.19-20.74-34.33-7.9-71.56-3.82-104.95,14.29Z"/>
              <path class="trompas-6" d="m107.28,348.11l-6.82,6.93s9.36,10.22,23.38,7.91c-9.89-5.23-13.83-12.5-16.57-14.84Z"/>
            </g>
          </g>
        </g>
      </g>
    </g>
  </g>
</svg>