<?xml version="1.0" encoding="UTF-8"?>
<svg xmlns="http://www.w3.org/2000/svg" viewBox="0 0 336.56 516.45">
  <defs>
    <style>
      .tubas-1 {
        fill: #f1f1f190;
      }

      .tubas-1, .tubas-2, .tubas-3 {
        stroke-width: 0px;
      }

      .tubas-4 {
        isolation: isolate;
      }

      .tubas-2 {
        fill: #f1f1f190;
      }

      .tubas-5 {
        mix-blend-mode: luminosity;
      }

      .tubas-3 {
        fill:#f1f1f190;
      }
    </style>
  </defs>
  <g class="tubas-4">
    <g id="tubas_2" data-name="tubas 2">
      <g id="Camada_1" data-name="Camada 1">
        <g class="tubas-5">
          <path class="tubas-1" d="m105.27,374c-16.43,0-29.79-13.37-29.79-29.8v-18.92h11.77v18.92c0,9.94,8.09,18.03,18.03,18.03s18.03-8.09,18.03-18.03v-23.82h11.77v23.82c0,16.43-13.37,29.8-29.8,29.8Z"/>
          <rect class="tubas-1" x="56.74" y="311.11" width="100.56" height="9.27"/>
          <g>
            <g>
              <rect class="tubas-1" x="77.46" y="240.9" width="9.35" height="15.78"/>
              <path class="tubas-2" d="m86.81,236.53v4.36h4.99v-4.47c0-2.35-1.91-4.26-4.26-4.26h-11.43c-2.35,0-4.26,1.91-4.26,4.26v4.47h5.61v-4.36h9.35Z"/>
              <rect class="tubas-2" x="74.39" y="235.06" width="13.95" height="5.84"/>
              <rect class="tubas-2" x="71.84" y="252.62" width="19.95" height="76.42"/>
            </g>
            <g>
              <rect class="tubas-1" x="101.37" y="240.9" width="9.35" height="15.78"/>
              <path class="tubas-2" d="m110.72,236.53v4.36h4.99v-4.47c0-2.35-1.91-4.26-4.26-4.26h-11.43c-2.35,0-4.26,1.91-4.26,4.26v4.47h5.61v-4.36h9.35Z"/>
              <rect class="tubas-2" x="98.3" y="235.06" width="13.95" height="5.84"/>
              <rect class="tubas-2" x="95.76" y="252.62" width="19.95" height="76.42"/>
            </g>
            <g>
              <rect class="tubas-1" x="125.28" y="240.9" width="9.35" height="15.78"/>
              <path class="tubas-2" d="m134.63,236.53v4.36h4.99v-4.47c0-2.35-1.91-4.26-4.26-4.26h-11.43c-2.35,0-4.26,1.91-4.26,4.26v4.47h5.61v-4.36h9.35Z"/>
              <rect class="tubas-2" x="122.21" y="235.06" width="13.95" height="5.84"/>
              <rect class="tubas-2" x="119.67" y="252.62" width="19.95" height="76.42"/>
            </g>
          </g>
          <path class="tubas-1" d="m325.32,11.92c-9.32,4.51-23.53,12.32-38.16,25.41-16.55,29.52-27.34,108.21-34.27,188.61-.07.85-.14,1.69-.21,2.54-.07.83-.14,1.66-.21,2.49-.28,3.29-.55,6.58-.81,9.87-6.08,75.65-8.84,150.21-9.88,184.17-.06,2.1-.12,4.04-.17,5.81-.23,3.03-.6,6.06-1.12,9.06-.24,1.4-.52,2.79-.83,4.17h-51.37s-.15-6.95-.52-19.05c-.94-30.66-3.27-94.42-8.2-162.2-.22-3.13-.46-6.27-.7-9.41-.02-.27-.04-.53-.06-.79-.14-1.85-.29-3.71-.43-5.57-1.4-17.95-2.99-36.02-4.78-53.69-1.2-11.77-2.48-23.35-3.86-34.6-6.64-54.05-15.53-100.32-27.37-121.43-14.62-13.09-28.84-20.9-38.16-25.41-3.56-1.72-2.57-7.05,1.37-7.42,19.86-1.86,57.26-4.5,109.19-4.5s89.32,2.64,109.19,4.5c3.93.37,4.92,5.7,1.36,7.42Z"/>
          <path class="tubas-1" d="m104.68,267.93l-10.26,2.91c-.86.25-1.69.46-2.59.75l-2.75.9-1.38.46-1.33.56-2.68,1.13c-3.46,1.71-6.88,3.61-9.94,6l-1.17.87-.58.44-.55.48-2.19,1.92-.55.49c-.18.16-.34.34-.52.52l-1.02,1.04-1.02,1.04c-.34.35-.69.7-.99,1.07-1.24,1.51-2.55,2.96-3.63,4.59-.56.8-1.15,1.58-1.67,2.41l-1.5,2.52c-.25.42-.52.83-.74,1.27l-.65,1.31c-.43.88-.88,1.75-1.29,2.64l-1.1,2.73-.54,1.37-.44,1.4-.87,2.82c-.25.95-.45,1.91-.67,2.88-.49,1.91-.68,3.87-.97,5.83-.03.25-.07.49-.09.73l-.05.74-.09,1.48-.09,1.48c-.03.49-.06,1-.06,1.43l-.11,5.33-.42,21.32c-.17,7.89,1.26,16,4.32,23.42,3.03,7.44,7.62,14.26,13.39,19.92,5.77,5.66,12.72,10.16,20.33,13.09,7.62,2.93,15.86,4.25,24.03,3.91,8.18-.33,16.36-2.38,23.79-6,7.44-3.61,14.13-8.76,19.56-15.05,5.44-6.29,9.58-13.75,12.06-21.76,1.25-4,2.08-8.14,2.48-12.32l.14-1.57c.04-.52.05-1.04.08-1.57l.07-1.57.03-1.37.11-5.33.42-21.32,1.41-70.52,6.43-2.1,73.86-24.13c.07-.85.14-1.69.21-2.54l-74.5,21.11-5.88,1.66.17-8.74.84-42.63.08-3.97.13-6.68.05-2.66.03-1.33v-.37s0-.41,0-.41v-.83s-.03-1.66-.03-1.66c0-.55-.05-1.11-.08-1.66l-.1-1.66c-.04-.55-.11-1.11-.17-1.66-.57-5.33-1.82-10.61-3.69-15.67-1.23-3.33-2.73-6.56-4.5-9.65-2.22-3.89-4.83-7.56-7.79-10.93-2.97-3.36-6.28-6.42-9.88-9.13-7.19-5.42-15.55-9.38-24.39-11.48-4.41-1.06-8.94-1.66-13.47-1.8l-.85-.03-.71-.02-1.33-.03-2.67-.05-5.33-.11-21.32-.42-2.66-.05-.67-.02h-.35s-.43,0-.43,0l-1.72.02c-1.15,0-2.29.07-3.44.14-1.15.05-2.29.19-3.43.32-4.58.54-9.11,1.56-13.5,3.03-8.78,2.94-16.95,7.72-23.84,13.94-6.9,6.22-12.54,13.87-16.45,22.39-3.91,8.51-6.04,17.9-6.21,27.27l-3.4,170.61-.85,42.63-.42,21.31-.1,5.33-.06,2.66v.34s0,.44,0,.44v.88s.02,1.76.02,1.76c.11,4.7.54,9.42,1.4,14.08.86,4.66,2.09,9.26,3.67,13.74,1.58,4.48,3.57,8.82,5.85,12.99,4.55,8.36,10.54,15.91,17.51,22.42,3.49,3.25,7.27,6.2,11.25,8.85,3.98,2.66,8.17,5.02,12.56,6.99,4.38,1.99,8.92,3.62,13.57,4.91,4.66,1.25,9.41,2.12,14.2,2.63,1.2.11,2.4.22,3.6.32l3.6.15.91.03.67.02,1.34.03,2.66.05,10.66.21,21.32.42,21.32.42,1.33.03h.66s.35.02.35.02h.46l3.66-.04c1.22-.03,2.43-.12,3.66-.19,1.22-.06,2.43-.19,3.65-.33,4.87-.54,9.72-1.45,14.46-2.8,4.74-1.33,9.38-3.02,13.86-5.08,4.47-2.09,8.77-4.52,12.86-7.28,1.01-.71,2.04-1.39,3.03-2.13l2.94-2.25c.95-.78,1.89-1.58,2.83-2.37.96-.79,1.84-1.65,2.75-2.49,3.6-3.38,6.94-7.05,9.97-10.96,3.01-3.93,5.72-8.11,8.1-12.48.58-1.1,1.19-2.19,1.72-3.31l1.59-3.39c.97-2.29,1.93-4.6,2.73-6.97,1.17-3.38,2.16-6.82,2.95-10.31.31-1.38.59-2.77.83-4.17.52-3,.89-6.03,1.12-9.06.05-1.78.11-3.71.17-5.81h-54.11c.04,2.13-.06,4.25-.3,6.34-.25,2.1-.72,4.15-1.3,6.18-.28,1.02-.66,2.01-1.01,3.01-.21.49-.41.98-.61,1.47-.19.5-.46.96-.67,1.45-.93,1.92-2.01,3.78-3.23,5.55-4.96,7.04-12.25,12.62-20.55,15.29-2.07.71-4.21,1.21-6.39,1.55-.54.09-1.08.19-1.64.22-.55.05-1.1.14-1.66.17-.56.03-1.12.06-1.67.09l-.21.02h-.32s-.66.02-.66.02l-1.33.03-21.32.42-21.32.42-10.66.21-2.66.05-1.34.03-.66.02h-.43s-1.72.01-1.72.01l-1.72-.08c-9.14-.48-18.05-4.1-25.21-10.13-7.14-6.05-12.33-14.45-14.42-23.68-.55-2.31-.84-4.68-1.02-7.07l-.05-.9-.03-.46-.02-.22v-.32s-.06-2.66-.06-2.66l-.11-5.33-.42-21.31-.85-42.63-3.38-170.44c-.12-4.84.75-9.65,2.57-14.13,1.82-4.49,4.6-8.64,8.11-12.1,3.5-3.47,7.74-6.21,12.37-7.98,2.31-.89,4.72-1.54,7.19-1.94.62-.09,1.23-.21,1.86-.26.62-.06,1.25-.15,1.88-.16l.95-.05.24-.02h.32s.67-.02.67-.02l2.66-.05,21.32-.42,5.33-.11,2.67-.05,1.33-.03h.33s.77-.01.77-.01c2.58-.03,5.14.2,7.66.69,5.04.98,9.89,3.01,14.19,5.96,2.14,1.47,4.15,3.17,5.97,5.06,1.81,1.89,3.43,3.98,4.83,6.21,2.8,4.46,4.67,9.48,5.46,14.74.05.33.11.65.15.99l.1,1c.03.33.08.66.1,1l.05,1,.03.5.02.25c0,.07,0,.18,0,.3l.03,1.33.05,2.66.21,10.66.84,42.63.31,15.33-3.57,1.01-41.02,11.62Zm44.72-5.7l1.25,63.01.42,21.32.11,5.33.02,1.29v1.09c0,.36,0,.73,0,1.09l-.06,1.09c-.16,2.91-.62,5.79-1.37,8.6-1.49,5.63-4.16,10.98-7.84,15.6-3.67,4.62-8.31,8.51-13.55,11.33-5.24,2.82-11.07,4.55-17.08,5.04-6.01.5-12.12-.23-17.87-2.16-5.74-1.94-11.1-5.1-15.65-9.21-4.55-4.11-8.27-9.17-10.83-14.79-1.29-2.81-2.28-5.76-2.96-8.79-.68-3.04-1.04-6.11-1.11-9.29l-.42-21.32-.11-5.33c-.02-.47,0-.84.01-1.24l.02-1.19.02-1.19v-.59c.02-.19.05-.39.07-.59.18-1.57.25-3.16.59-4.71.15-.78.27-1.57.44-2.34l.62-2.3.31-1.15.4-1.13.79-2.25.97-2.18.49-1.09c.16-.36.37-.7.56-1.05l1.15-2.11c.4-.69.86-1.35,1.29-2.02.82-1.38,1.87-2.6,2.82-3.88.23-.33.51-.62.78-.92l.8-.9.81-.89c.13-.15.26-.31.4-.45l.44-.41,1.75-1.66.43-.41.47-.38.94-.76c2.46-2.09,5.24-3.76,8.07-5.32l2.19-1.03,1.1-.52,1.14-.43,2.28-.85c.79-.29,1.67-.55,2.51-.83l10.13-3.31,40.53-13.24,1.72-.56Z"/>
          <path class="tubas-3" d="m252.47,230.97c-.28,3.29-.55,6.58-.81,9.87l-72.08,21.98c-.22-3.13-.46-6.27-.7-9.41l73.59-22.44Z"/>
          <rect class="tubas-1" x="88.56" y="238.19" width="226.16" height="9.21" transform="translate(-62.06 69.38) rotate(-16.96)"/>
          <rect class="tubas-1" x="56.74" y="329.04" width="100.56" height="9.27"/>
          <g>
            <path class="tubas-2" d="m319.67,203.26l1.72,5.93c.43,1.47-.42,3-1.88,3.42l-11.86,3.68c-1.47.43-3-.42-3.42-1.88l-1.72-5.93c-.43-1.47.42-3,1.88-3.42l11.86-3.68c1.47-.43,3,.42,3.42,1.88Z"/>
            <path class="tubas-1" d="m320.21,193.7l6.41-1.86,6.76,23.27-6.41,1.86c-6.43,1.87-13.15-1.83-15.01-8.25h0c-1.87-6.42,1.83-13.15,8.26-15.01Z"/>
            <path class="tubas-2" d="m321.16,188.53l4.51-1.31c1.11-.32,2.28.32,2.6,1.43l8.21,28.25c.32,1.11-.32,2.28-1.43,2.6l-4.51,1.31c-1.11.32-2.28-.32-2.6-1.43l-8.21-28.25c-.32-1.11.32-2.28,1.43-2.6Z"/>
          </g>
        </g>
      </g>
    </g>
  </g>
</svg>