<?xml version="1.0" encoding="UTF-8"?>
<svg id="Layer_2" data-name="Layer 2" xmlns="http://www.w3.org/2000/svg" viewBox="0 0 15.85 15.07">
  <defs>
    <style>
      .cls-1 {
        fill: #fff;
        stroke: #fff;
        stroke-linecap: round;
        stroke-linejoin: round;
        stroke-width: .5px;
      }
    </style>
  </defs>
  <g id="Camada_1" data-name="Camada 1">
    <g>
      <path class="cls-1" d="m.25.25v.57s1.74,0,1.74,0c.42,0,.78.29.88.7l.37,1.53h-.01l1.23,5.04v.03s0,0,0,0l.42,1.74c.16.66.75,1.13,1.43,1.13h6.6c.68,0,1.27-.46,1.43-1.13l1.21-4.98c.11-.44,0-.9-.27-1.26-.28-.36-.7-.56-1.16-.56H3.82s-.4-1.66-.4-1.66c-.16-.67-.75-1.13-1.43-1.13H.25Zm4.76,7.73h0l-.17-.69h7.26s0-.57,0-.57h-7.39s-.75-3.12-.75-3.12h10.16c.28,0,.54.13.71.35.17.22.23.5.17.78l-1.21,4.98c-.1.41-.46.69-.88.69h-6.6c-.42,0-.78-.29-.88-.69l-.42-1.73Z"/>
      <path class="cls-1" d="m4.29,13.26c0,.86.7,1.56,1.56,1.56s1.56-.7,1.56-1.56c0-.86-.7-1.56-1.56-1.56s-1.56.7-1.56,1.56Zm.57,0c0-.55.44-.99.99-.99s.99.44.99.99c0,.55-.44.99-.99.99s-.99-.44-.99-.99Z"/>
      <path class="cls-1" d="m11.83,13.26c0,.86.7,1.56,1.56,1.56s1.56-.7,1.56-1.56-.7-1.56-1.56-1.56-1.56.7-1.56,1.56Zm.57,0c0-.55.44-.99.99-.99s.99.44.99.99-.44.99-.99.99-.99-.44-.99-.99Z"/>
    </g>
  </g>
</svg>