<?xml version="1.0" ?><svg baseProfile="tiny" height="24px" id="Layer_1" version="1.2" viewBox="0 0 24 24" width="24px" xml:space="preserve" xmlns="http://www.w3.org/2000/svg" xmlns:xlink="http://www.w3.org/1999/xlink"><g><g><path d="M13,20c-0.802,0-1.555-0.312-2.122-0.879L3.757,12l7.122-7.121c1.133-1.133,3.11-1.133,4.243,0    C15.688,5.445,16,6.199,16,7s-0.312,1.555-0.879,2.122L12.243,12l2.878,2.879C15.688,15.445,16,16.199,16,17    s-0.312,1.555-0.879,2.122C14.555,19.688,13.802,20,13,20z M6.585,12l5.708,5.707c0.378,0.378,1.037,0.377,1.414,0    C13.896,17.518,14,17.268,14,17s-0.104-0.518-0.293-0.707L9.415,12l4.292-4.293C13.896,7.518,14,7.267,14,7    s-0.104-0.518-0.293-0.707c-0.378-0.379-1.037-0.378-1.414-0.001L6.585,12z"/></g></g></svg>