<?xml version="1.0" encoding="UTF-8"?>
<svg xmlns="http://www.w3.org/2000/svg" xmlns:xlink="http://www.w3.org/1999/xlink" viewBox="0 0 657.6 597.49">
  <defs>
    <style>
      .cls-1 {
        fill: #301815;
      }

      .cls-1, .cls-2, .cls-3, .cls-4, .cls-5, .cls-6 {
        stroke-width: 0px;
      }

      .cls-7 {
        isolation: isolate;
      }

      .cls-2 {
        opacity: .3;
      }

      .cls-3 {
        fill: #fff;
        opacity: .5;
      }

      .cls-4 {
        fill: none;
      }

      .cls-5 {
        fill: #bdccd4;
        opacity: .2;
      }

      .cls-8 {
        clip-path: url(#clippath);
      }

      .cls-9 {
        mix-blend-mode: overlay;
      }

      .cls-6 {
        fill: #afbbcc;
      }
    </style>
    <clipPath id="clippath">
      <rect class="cls-4" y="0" width="657.6" height="597.49" rx="20.47" ry="20.47"/>
    </clipPath>
  </defs>
  <g class="cls-7">
    <g id="Layer_2" data-name="Layer 2">
      <g id="Camada_1" data-name="Camada 1">
        <g class="cls-9">
          <g class="cls-8">
            <g>
              <g>
                <path class="cls-1" d="m31.87,837.68l-75.01-50.89c-2.33-1.58-1.95-5.16.68-6.16,32.52-12.31,88.8-86.55,88.8-86.55L395.25,179.76c6.18-9.11,12.81-17.93,19.85-26.39l6.36-7.64,8.25-9.92,13.52-16.25,19.7-23.69,20.55-24.71c4.33-5.21,11.9-6.28,17.5-2.48,2.87,1.95,4.74,4.83,5.45,7.99.52,2.32.42,4.78-.36,7.1-.29.84-.66,1.67-1.12,2.45l-16.01,27.28-15.56,26.51-10.67,18.18-6.52,11.09-6.89,11.74c-4.81,8.2-9.89,16.24-15.22,24.1L84.7,720.11l.23.16s-48.18,79.74-47.59,114.51c.05,2.82-3.14,4.49-5.47,2.91Z"/>
                <polygon class="cls-6" points="456.18 169.28 421.46 145.73 429.71 135.81 462.7 158.19 456.18 169.28"/>
                <rect class="cls-6" x="375.29" y="209.9" width="46.36" height="12.84" transform="translate(190.16 -186.4) rotate(34.15)"/>
                <rect class="cls-6" x="225.73" y="430.35" width="46.36" height="12.84" transform="translate(288.13 -64.42) rotate(34.15)"/>
                <path class="cls-2" d="m31.87,837.68l-24.51-16.63,1.58-4.51L506.06,83.76c-.29.84-.66,1.67-1.12,2.45l-16.01,27.28-15.56,26.51-10.67,18.18-6.52,11.09-6.89,11.74c-4.81,8.2-9.89,16.24-15.22,24.1L84.7,720.11l.23.16s-48.18,79.74-47.59,114.51c.05,2.82-3.14,4.49-5.47,2.91Z"/>
                <path class="cls-6" d="m488.93,113.5l-26-17.64-19.7,23.69,30.14,20.45,15.56-26.51Zm-25.63,11.06c-3.75-2.54-4.73-7.64-2.18-11.39,2.54-3.75,7.64-4.73,11.39-2.18,3.75,2.54,4.73,7.64,2.18,11.39-2.54,3.75-7.64,4.73-11.39,2.18Z"/>
                <ellipse class="cls-5" cx="407.56" cy="180.68" rx="56.35" ry="4.28" transform="translate(29.23 416.52) rotate(-55.85)"/>
              </g>
              <ellipse class="cls-6" cx="124.5" cy="580.77" rx="12.84" ry="8.2" transform="translate(-426 357.75) rotate(-55.85)"/>
              <ellipse class="cls-6" cx="358.27" cy="246.36" rx="9.27" ry="5.92" transform="translate(-46.74 404.53) rotate(-55.85)"/>
              <ellipse class="cls-6" cx="442.89" cy="116.74" rx="4.99" ry="3.19" transform="translate(52.33 356.01) rotate(-46.26)"/>
              <path class="cls-6" d="m463.77,97.93c-1.91,1.99-4.48,2.62-5.76,1.4-1.27-1.22-.76-3.82,1.15-5.81,1.91-1.99,4.48-2.62,5.76-1.4,1.27,1.22.76,3.82-1.15,5.81Z"/>
              <ellipse class="cls-6" cx="339.45" cy="274.1" rx="9.27" ry="5.92" transform="translate(-77.95 401.12) rotate(-55.85)"/>
              <ellipse class="cls-6" cx="283.19" cy="454.85" rx="5.71" ry="8.93" transform="translate(-252.2 433.84) rotate(-55.85)"/>
              <ellipse class="cls-6" cx="210.59" cy="429.73" rx="5.71" ry="8.93" transform="translate(-263.26 362.75) rotate(-55.85)"/>
              <circle class="cls-6" cx="238.26" cy="457.55" r="8.2" transform="translate(-259.65 592.48) rotate(-77.66)"/>
              <circle class="cls-6" cx="297.92" cy="369.61" r="8.2" transform="translate(-96.8 633.35) rotate(-84.88)"/>
              <circle class="cls-6" cx="350.93" cy="297.83" r="8.2"/>
              <circle class="cls-6" cx="329.15" cy="299.44" r="8.2" transform="translate(-115.53 283.32) rotate(-40.22)"/>
              <path class="cls-6" d="m193.32,523.16c-5.22-3.54-12.31-2.18-15.85,3.04s-2.18,12.31,3.04,15.85c5.22,3.54,12.31,2.18,15.85-3.04,3.54-5.22,2.18-12.31-3.04-15.85Zm-10.81,15.94c-3.59-2.43-4.52-7.31-2.09-10.9,2.43-3.59,7.31-4.52,10.9-2.09,3.59,2.43,4.52,7.31,2.09,10.9-2.43,3.59-7.31,4.52-10.9,2.09Z"/>
              <path class="cls-6" d="m210.54,497.78c-5.22-3.54-12.31-2.18-15.85,3.04-3.54,5.22-2.18,12.31,3.04,15.85,5.22,3.54,12.31,2.18,15.85-3.04,3.54-5.22,2.18-12.31-3.04-15.85Zm-10.81,15.94c-3.59-2.43-4.52-7.31-2.09-10.9,2.43-3.59,7.31-4.52,10.9-2.09,3.59,2.43,4.52,7.31,2.09,10.9-2.43,3.59-7.31,4.52-10.9,2.09Z"/>
              <path class="cls-6" d="m230.56,468.27c-5.22-3.54-12.31-2.18-15.85,3.04-3.54,5.22-2.18,12.31,3.04,15.85,5.22,3.54,12.31,2.18,15.85-3.04,3.54-5.22,2.18-12.31-3.04-15.85Zm-10.81,15.94c-3.59-2.43-4.52-7.31-2.09-10.9,2.43-3.59,7.31-4.52,10.9-2.09,3.59,2.43,4.52,7.31,2.09,10.9-2.43,3.59-7.31,4.52-10.9,2.09Z"/>
              <path class="cls-6" d="m291.02,379.15c-5.22-3.54-12.31-2.18-15.85,3.04-3.54,5.22-2.18,12.31,3.04,15.85,5.22,3.54,12.31,2.18,15.85-3.04,3.54-5.22,2.18-12.31-3.04-15.85Zm-10.81,15.94c-3.59-2.43-4.52-7.31-2.09-10.9,2.43-3.59,7.31-4.52,10.9-2.09,3.59,2.43,4.52,7.31,2.09,10.9-2.43,3.59-7.31,4.52-10.9,2.09Z"/>
              <path class="cls-6" d="m317.05,340.78c-5.22-3.54-12.31-2.18-15.85,3.04-3.54,5.22-2.18,12.31,3.04,15.85,5.22,3.54,12.31,2.18,15.85-3.04,3.54-5.22,2.18-12.31-3.04-15.85Zm-10.81,15.94c-3.59-2.43-4.52-7.31-2.09-10.9,2.43-3.59,7.31-4.52,10.9-2.09,3.59,2.43,4.52,7.31,2.09,10.9-2.43,3.59-7.31,4.52-10.9,2.09Z"/>
              <path class="cls-6" d="m161.96,608.76l-38.66-26.23c-.98-.66-1.23-1.99-.57-2.97.66-.98,1.99-1.23,2.97-.57l38.66,26.23c.98.66,1.23,1.99.57,2.97-.66.98-1.99,1.23-2.97.57Z"/>
              <path class="cls-6" d="m177.75,528.98l-15.09-10.23c-.98-.66-1.23-1.99-.57-2.97.66-.98,1.99-1.23,2.97-.57l15.09,10.23c.98.66,1.23,1.99.57,2.97s-1.99,1.23-2.97.57Z"/>
              <path class="cls-6" d="m194.97,503.6l-15.09-10.23c-.98-.66-1.23-1.99-.57-2.97s1.99-1.23,2.97-.57l15.09,10.23c.98.66,1.23,1.99.57,2.97-.66.98-1.99,1.23-2.97.57Z"/>
              <path class="cls-6" d="m214.99,474.09l-15.09-10.23c-.98-.66-1.23-1.99-.57-2.97.66-.98,1.99-1.23,2.97-.57l15.09,10.23c.98.66,1.23,1.99.57,2.97-.66.98-1.99,1.23-2.97.57Z"/>
              <path class="cls-6" d="m275.15,384.75l-14.78-10.03c-.98-.66-1.23-1.99-.57-2.97s1.99-1.23,2.97-.57l14.78,10.03c.98.66,1.23,1.99.57,2.97s-1.99,1.23-2.97.57Z"/>
              <path class="cls-6" d="m301.18,346.39l-14.78-10.03c-.98-.66-1.23-1.99-.57-2.97s1.99-1.23,2.97-.57l14.78,10.03c.98.66,1.23,1.99.57,2.97s-1.99,1.23-2.97.57Z"/>
              <path class="cls-6" d="m327.42,330.58l-25.4-17.23c-.98-.66-1.23-1.99-.57-2.97s1.99-1.23,2.97-.57l25.4,17.23c.98.66,1.23,1.99.57,2.97-.66.98-1.99,1.23-2.97.57Z"/>
              <path class="cls-6" d="m296.82,371.87l-23.63-16.03c-.98-.66-1.23-1.99-.57-2.97.66-.98,1.99-1.23,2.97-.57l23.63,16.03c.98.66,1.23,1.99.57,2.97-.66.98-1.99,1.23-2.97.57Z"/>
              <path class="cls-6" d="m234.2,457.82l-20.68-14.03c-.98-.66-1.23-1.99-.57-2.97s1.99-1.23,2.97-.57l20.68,14.03c.98.66,1.23,1.99.57,2.97s-1.99,1.23-2.97.57Z"/>
              <circle class="cls-6" cx="254.52" cy="464.71" r="4.28" transform="translate(-12.88 7.29) rotate(-1.6)"/>
              <circle class="cls-6" cx="371.82" cy="294.34" r="4.28"/>
              <path class="cls-6" d="m352.3,262.14c-1.33,1.96-3.99,2.47-5.94,1.14-1.96-1.33-2.47-3.99-1.14-5.94,1.33-1.96,3.99-2.47,5.94-1.14,1.96,1.33,2.47,3.99,1.14,5.94Z"/>
              <circle class="cls-6" cx="345.4" cy="333.3" r="4.28"/>
              <circle class="cls-6" cx="259" cy="399.66" r="4.28"/>
              <path class="cls-6" d="m82.23,683.09c-.98-.66-1.23-1.99-.57-2.97l64.07-94.44c.66-.98,1.99-1.23,2.97-.57.98.66,1.23,1.99.57,2.97l-64.07,94.44c-.66.98-1.99,1.23-2.97.57Z"/>
              <path class="cls-6" d="m153.62,613.44c-.98-.66-1.23-1.99-.57-2.97l99.77-147.06c.66-.98,1.99-1.23,2.97-.57.98.66,1.23,1.99.57,2.97l-99.77,147.06c-.66.98-1.99,1.23-2.97.57Z"/>
              <path class="cls-6" d="m149.62,587.33l3.32-11.31c2.42-8.24.84-16.87-3.91-23.56-.93-1.31-1.81-2.64-2.61-4.02-4.95-8.61-12.05-16.21-19.7-9.09-9.07,8.45,4.13,16.18,14.99,20.7,5.72,2.38,8.87,8.69,7.15,14.65-.01.04-.02.08-.04.12l-3.35,11.42c-.27.91.1,1.87.85,2.37.22.15.48.26.77.32,1.11.23,2.2-.51,2.52-1.6Z"/>
              <path class="cls-6" d="m173.16,549.6s.03,0,.03,0c0,0-.04-.07-.12-.2-1.2-2.83-2.89-5.47-5.07-7.77-.29-.3-.56-.62-.81-.95-6.69-8.93-17.49-20.15-24.47-11.1-6.42,8.31,5.75,13.85,16.57,16.95,8.05,2.31,13.01,10.65,10.86,18.74-.62,2.32-1.62,4.58-3.05,6.68l-26.26,38.71c-.65.96-.52,2.31.41,3.01.99.75,2.38.51,3.07-.5l26.33-38.81c5.13-7.57,5.76-16.88,2.51-24.76Z"/>
              <path class="cls-6" d="m189.28,568.49c-1.63-1.11-2.05-3.32-.95-4.95l29.38-43.31c6.87-10.13,15.46-18.82,25.51-25.81l9.08-6.32c4.5-3.13,8.34-7.02,11.42-11.56l15.41-22.71c1.11-1.63,3.32-2.05,4.95-.95,1.63,1.11,2.05,3.32.95,4.95l-15.41,22.71c-3.57,5.26-8.03,9.78-13.25,13.41l-9.08,6.32c-9.33,6.49-17.3,14.55-23.68,23.96l-29.38,43.31c-1.11,1.63-3.32,2.05-4.95.95Z"/>
              <path class="cls-6" d="m284.1,440.29c2.46-6.56-5.59-8.07-13.22-8.13-4.38-.03-8.66-1.38-12.29-3.84l-3.16-2.14c-5.13-3.48-6.46-10.45-2.99-15.58l5.94-8.76c.65-.96.52-2.31-.41-3.01-.99-.75-2.38-.51-3.07.5l-6.01,8.86c-4.8,7.08-2.96,16.72,4.12,21.52l11.41,7.74c6.45,4.79,16.7,10.73,19.66,2.84Z"/>
              <path class="cls-6" d="m209.7,430.83s-.05-.03-.07-.05c-1.6-1.15-1.97-3.37-.83-4.98l95.44-133.47c1.13-1.57,3.3-1.96,4.9-.88l7.08,4.81c1.63,1.11,2.05,3.32.95,4.95s-3.32,2.05-4.95.95l-4.2-2.85-93.41,130.64c-1.13,1.58-3.31,1.96-4.9.88Z"/>
              <path class="cls-6" d="m335.63,325.41c.48-2.58-1.92-4.21-4.14-2.81-7.05,4.45-18.18,13.06-9.73,18.8,8.45,5.73,12.34-7.79,13.87-15.99Z"/>
              <path class="cls-6" d="m349.61,345.08c3.09-4.51,8.9-14.45,6.55-22.67-.32-1.14-1.51-1.79-2.64-1.47-1.14.32-1.79,1.51-1.47,2.64,1.72,6.04-2.59,13.93-5.38,18.19-8.59,8.83-20.94,22.99-15.58,26.62,5.2,3.53,13.45-12.11,18.53-23.32Z"/>
              <path class="cls-6" d="m326.97,333.72c-.98-.66-1.23-1.99-.57-2.97l23.02-33.94c.66-.98,1.99-1.23,2.97-.57.98.66,1.23,1.99.57,2.97l-23.02,33.94c-.66.98-1.99,1.23-2.97.57Z"/>
              <path class="cls-6" d="m345.37,333.28c-.98-.66-1.23-1.99-.57-2.97l25.43-37.48c.66-.98,1.99-1.23,2.97-.57s1.23,1.99.57,2.97l-25.43,37.48c-.66.98-1.99,1.23-2.97.57Z"/>
              <path class="cls-6" d="m354.81,319.42l-26.86-18.22c-.98-.66-1.23-1.99-.57-2.97s1.99-1.23,2.97-.57l26.86,18.22c.98.66,1.23,1.99.57,2.97-.66.98-1.99,1.23-2.97.57Z"/>
              <path class="cls-6" d="m303,304.53c-.98-.66-1.23-1.99-.57-2.97l28.81-42.47c.38-.56,1.01-.91,1.7-.94l15.75-.55c1.18-.04,2.17.88,2.21,2.06.04,1.18-.88,2.17-2.06,2.21l-14.66.52-28.2,41.57c-.66.98-1.99,1.23-2.97.57Z"/>
              <path class="cls-6" d="m255.34,388.55c-.98-.66-1.23-1.99-.57-2.97l51.65-76.14c.66-.98,1.99-1.23,2.97-.57.98.66,1.23,1.99.57,2.97l-51.65,76.14c-.66.98-1.99,1.23-2.97.57Z"/>
              <path class="cls-6" d="m161.24,527.26c-.98-.66-1.23-1.99-.57-2.97l60.86-89.72c.66-.98,1.99-1.23,2.97-.57.98.66,1.23,1.99.57,2.97l-60.86,89.72c-.66.98-1.99,1.23-2.97.57Z"/>
              <ellipse class="cls-3" cx="121.56" cy="577.48" rx="6.78" ry="1.78" transform="translate(-424.57 353.88) rotate(-55.85)"/>
              <ellipse class="cls-3" cx="337.29" cy="272.2" rx="4.64" ry="1.78" transform="translate(-77.33 398.5) rotate(-55.85)"/>
              <ellipse class="cls-3" cx="356.1" cy="244.46" rx="4.64" ry="1.78" transform="translate(-46.12 401.91) rotate(-55.85)"/>
              <path class="cls-3" d="m327.09,298.03c-1.44,2.12-3.26,3.39-4.08,2.84-.81-.55-.31-2.72,1.13-4.84,1.44-2.12,3.26-3.39,4.08-2.84s.31,2.72-1.13,4.84Z"/>
              <ellipse class="cls-3" cx="347.38" cy="295.43" rx="4.64" ry="1.78" transform="translate(-92.12 417.05) rotate(-55.85)"/>
              <path class="cls-3" d="m295.27,367.81c-1.44,2.12-3.26,3.39-4.08,2.84-.81-.55-.31-2.72,1.13-4.84,1.44-2.12,3.26-3.39,4.08-2.84.81.55.31,2.72-1.13,4.84Z"/>
              <ellipse class="cls-3" cx="234.32" cy="455.74" rx="4.64" ry="1.78" transform="translate(-274.37 393.79) rotate(-55.85)"/>
            </g>
            <g>
              <g>
                <path class="cls-1" d="m418.76,542.09l-75.01-50.89c-2.33-1.58-1.95-5.16.68-6.16,32.52-12.31,88.8-86.55,88.8-86.55L782.14-115.82c6.18-9.11,12.81-17.93,19.85-26.39l6.36-7.64,8.25-9.92,13.52-16.25,19.7-23.69,20.55-24.71c4.33-5.21,11.9-6.28,17.5-2.48,2.87,1.95,4.74,4.83,5.45,7.99.52,2.32.42,4.78-.36,7.1-.29.84-.66,1.67-1.12,2.45l-16.01,27.28-15.56,26.51-10.67,18.18-6.52,11.09-6.89,11.74c-4.81,8.2-9.89,16.24-15.22,24.1L471.59,424.52l.23.16s-48.18,79.74-47.59,114.51c.05,2.82-3.14,4.49-5.47,2.91Z"/>
                <rect class="cls-6" x="612.62" y="134.76" width="46.36" height="12.84" transform="translate(188.91 -332.6) rotate(34.15)"/>
                <rect class="cls-6" x="438.04" y="392.1" width="46.36" height="12.84" transform="translate(303.28 -190.2) rotate(34.15)"/>
                <path class="cls-2" d="m418.76,542.09l-24.51-16.63,1.58-4.51L892.95-211.83c-.29.84-.66,1.67-1.12,2.45l-16.01,27.28-15.56,26.51-10.67,18.18-6.52,11.09-6.89,11.74c-4.81,8.2-9.89,16.24-15.22,24.1L471.59,424.52l.23.16s-48.18,79.74-47.59,114.51c.05,2.82-3.14,4.49-5.47,2.91Z"/>
                <path class="cls-6" d="m424.49,535.63c-9.19-3.15-24.64-11.55-41.24-22.81-16.6-11.26-30.12-22.51-36.44-29.89-4.53-1.55-7.54-1.83-8.42-.54-2.65,3.91,15.28,20.71,40.05,37.51,24.77,16.81,47.01,27.26,49.66,23.35.88-1.29-.5-3.99-3.61-7.62Z"/>
                <ellipse class="cls-5" cx="410.25" cy="451.42" rx="46" ry="4.28" transform="translate(-193.64 537.49) rotate(-55.85)"/>
              </g>
              <ellipse class="cls-6" cx="458.54" cy="363.09" rx="12.84" ry="8.2" transform="translate(-99.36 538.71) rotate(-55.85)"/>
              <ellipse class="cls-6" cx="511.39" cy="285.18" rx="12.84" ry="8.2" transform="translate(-11.7 548.28) rotate(-55.85)"/>
              <ellipse class="cls-6" cx="597.48" cy="134.14" rx="5.71" ry="8.93" transform="translate(151.04 553.27) rotate(-55.85)"/>
              <circle class="cls-6" cx="625.15" cy="161.96" r="8.2" transform="translate(333.28 738.03) rotate(-77.66)"/>
              <ellipse class="cls-6" cx="520.99" cy="345.99" rx="12.84" ry="8.2" transform="translate(-57.82 582.89) rotate(-55.85)"/>
              <path class="cls-6" d="m580.21,227.58c-5.22-3.54-12.31-2.18-15.85,3.04-3.54,5.22-2.18,12.31,3.04,15.85,5.22,3.54,12.31,2.18,15.85-3.04,3.54-5.22,2.18-12.31-3.04-15.85Zm-10.81,15.94c-3.59-2.43-4.52-7.31-2.09-10.9,2.43-3.59,7.31-4.52,10.9-2.09,3.59,2.43,4.52,7.31,2.09,10.9-2.43,3.59-7.31,4.52-10.9,2.09Z"/>
              <path class="cls-6" d="m597.43,202.2c-5.22-3.54-12.31-2.18-15.85,3.04-3.54,5.22-2.18,12.31,3.04,15.85,5.22,3.54,12.31,2.18,15.85-3.04,3.54-5.22,2.18-12.31-3.04-15.85Zm-10.81,15.94c-3.59-2.43-4.52-7.31-2.09-10.9,2.43-3.59,7.31-4.52,10.9-2.09,3.59,2.43,4.52,7.31,2.09,10.9-2.43,3.59-7.31,4.52-10.9,2.09Z"/>
              <path class="cls-6" d="m617.45,172.68c-5.22-3.54-12.31-2.18-15.85,3.04-3.54,5.22-2.18,12.31,3.04,15.85,5.22,3.54,12.31,2.18,15.85-3.04,3.54-5.22,2.18-12.31-3.04-15.85Zm-10.81,15.94c-3.59-2.43-4.52-7.31-2.09-10.9,2.43-3.59,7.31-4.52,10.9-2.09,3.59,2.43,4.52,7.31,2.09,10.9-2.43,3.59-7.31,4.52-10.9,2.09Z"/>
              <path class="cls-6" d="m548.85,313.18l-38.66-26.23c-.98-.66-1.23-1.99-.57-2.97.66-.98,1.99-1.23,2.97-.57l38.66,26.23c.98.66,1.23,1.99.57,2.97-.66.98-1.99,1.23-2.97.57Z"/>
              <path class="cls-6" d="m564.64,233.39l-15.09-10.23c-.98-.66-1.23-1.99-.57-2.97.66-.98,1.99-1.23,2.97-.57l15.09,10.23c.98.66,1.23,1.99.57,2.97-.66.98-1.99,1.23-2.97.57Z"/>
              <path class="cls-6" d="m513.9,343.76l-15.09-10.23c-.98-.66-1.23-1.99-.57-2.97.66-.98,1.99-1.23,2.97-.57l15.09,10.23c.98.66,1.23,1.99.57,2.97s-1.99,1.23-2.97.57Z"/>
              <path class="cls-6" d="m478.86,382.05l-17.73-12.03c-.98-.66-1.23-1.99-.57-2.97.66-.98,1.99-1.23,2.97-.57l17.73,12.03c.98.66,1.23,1.99.57,2.97s-1.99,1.23-2.97.57Z"/>
              <path class="cls-6" d="m581.86,208.01l-15.09-10.23c-.98-.66-1.23-1.99-.57-2.97s1.99-1.23,2.97-.57l15.09,10.23c.98.66,1.23,1.99.57,2.97-.66.98-1.99,1.23-2.97.57Z"/>
              <path class="cls-6" d="m601.88,178.5l-15.09-10.23c-.98-.66-1.23-1.99-.57-2.97.66-.98,1.99-1.23,2.97-.57l15.09,10.23c.98.66,1.23,1.99.57,2.97-.66.98-1.99,1.23-2.97.57Z"/>
              <path class="cls-6" d="m662.04,89.17l-14.78-10.03c-.98-.66-1.23-1.99-.57-2.97s1.99-1.23,2.97-.57l14.78,10.03c.98.66,1.23,1.99.57,2.97-.66.98-1.99,1.23-2.97.57Z"/>
              <path class="cls-6" d="m621.09,162.23l-20.68-14.03c-.98-.66-1.23-1.99-.57-2.97s1.99-1.23,2.97-.57l20.68,14.03c.98.66,1.23,1.99.57,2.97s-1.99,1.23-2.97.57Z"/>
              <circle class="cls-6" cx="470.32" cy="385.74" r="4.28" transform="translate(-10.59 13.29) rotate(-1.6)"/>
              <circle class="cls-6" cx="529.44" cy="316.38" r="4.28"/>
              <circle class="cls-6" cx="541.71" cy="316.09" r="4.28"/>
              <circle class="cls-6" cx="641.41" cy="169.12" r="4.28" transform="translate(-4.47 17.99) rotate(-1.6)"/>
              <circle class="cls-6" cx="645.89" cy="104.07" r="4.28"/>
              <path class="cls-6" d="m469.12,387.51c-.98-.66-1.23-1.99-.57-2.97l64.07-94.44c.66-.98,1.99-1.23,2.97-.57.98.66,1.23,1.99.57,2.97l-64.07,94.44c-.66.98-1.99,1.23-2.97.57Z"/>
              <path class="cls-6" d="m540.51,317.86c-.98-.66-1.23-1.99-.57-2.97l99.77-147.06c.66-.98,1.99-1.23,2.97-.57.98.66,1.23,1.99.57,2.97l-99.77,147.06c-.66.98-1.99,1.23-2.97.57Z"/>
              <path class="cls-6" d="m536.51,291.75l3.32-11.31c2.42-8.24.84-16.87-3.91-23.56-.93-1.31-1.81-2.64-2.61-4.02-4.95-8.61-12.05-16.21-19.7-9.09-9.07,8.45,4.13,16.18,14.99,20.7,5.72,2.38,8.87,8.69,7.15,14.65-.01.04-.02.08-.04.12l-3.35,11.42c-.27.91.1,1.87.85,2.37.22.15.48.26.77.32,1.11.23,2.2-.51,2.52-1.6Z"/>
              <path class="cls-6" d="m560.05,254.02s.03,0,.03,0c0,0-.04-.07-.12-.2-1.2-2.83-2.89-5.47-5.07-7.77-.29-.3-.56-.62-.81-.95-6.69-8.93-17.49-20.15-24.47-11.1-6.42,8.31,5.75,13.85,16.57,16.95,8.05,2.31,13.01,10.65,10.86,18.74-.62,2.32-1.62,4.58-3.05,6.68l-26.26,38.71c-.65.96-.52,2.31.41,3.01.99.75,2.38.51,3.07-.5l26.33-38.81c5.13-7.57,5.76-16.88,2.51-24.76Z"/>
              <path class="cls-6" d="m576.17,272.91c-1.63-1.11-2.05-3.32-.95-4.95l29.38-43.31c6.87-10.13,15.46-18.82,25.51-25.81l9.08-6.32c4.5-3.13,8.34-7.02,11.42-11.56l15.41-22.71c1.11-1.63,3.32-2.05,4.95-.95,1.63,1.11,2.05,3.32.95,4.95l-15.41,22.71c-3.57,5.26-8.03,9.78-13.25,13.41l-9.08,6.32c-9.33,6.49-17.3,14.55-23.68,23.96l-29.38,43.31c-1.11,1.63-3.32,2.05-4.95.95Z"/>
              <path class="cls-6" d="m670.99,144.71c2.46-6.56-5.59-8.07-13.22-8.13-4.38-.03-8.66-1.38-12.29-3.84l-3.16-2.14c-5.13-3.48-6.46-10.45-2.99-15.58l5.94-8.76c.65-.96.52-2.31-.41-3.01-.99-.75-2.38-.51-3.07.5l-6.01,8.86c-4.8,7.08-2.96,16.72,4.12,21.52l11.41,7.74c6.45,4.79,16.7,10.73,19.66,2.84Z"/>
              <path class="cls-6" d="m596.59,135.25s-.05-.03-.07-.05c-1.6-1.15-1.97-3.37-.83-4.98L691.12-3.25c1.13-1.57,3.3-1.96,4.9-.88l7.08,4.81c1.63,1.11,2.05,3.32.95,4.95s-3.32,2.05-4.95.95l-4.2-2.85-93.41,130.64c-1.13,1.58-3.31,1.96-4.9.88Z"/>
              <path class="cls-6" d="m642.23,92.96c-.98-.66-1.23-1.99-.57-2.97l51.65-76.14c.66-.98,1.99-1.23,2.97-.57.98.66,1.23,1.99.57,2.97l-51.65,76.14c-.66.98-1.99,1.23-2.97.57Z"/>
              <path class="cls-6" d="m548.13,231.67c-.98-.66-1.23-1.99-.57-2.97l60.86-89.72c.66-.98,1.99-1.23,2.97-.57s1.23,1.99.57,2.97l-60.86,89.72c-.66.98-1.99,1.23-2.97.57Z"/>
              <path class="cls-3" d="m457.47,360.21c-2.1,3.1-4.46,5.16-5.28,4.61-.81-.55.23-3.51,2.33-6.61,2.1-3.1,4.46-5.16,5.28-4.61.81.55-.23,3.51-2.33,6.61Z"/>
              <ellipse class="cls-3" cx="508.45" cy="281.89" rx="6.78" ry="1.78" transform="translate(-10.27 544.4) rotate(-55.85)"/>
              <ellipse class="cls-3" cx="621.21" cy="160.15" rx="4.64" ry="1.78" transform="translate(139.92 584.31) rotate(-55.85)"/>
            </g>
          </g>
        </g>
      </g>
    </g>
  </g>
</svg>