<?xml version="1.0" encoding="UTF-8"?>
<svg xmlns="http://www.w3.org/2000/svg" xmlns:xlink="http://www.w3.org/1999/xlink" viewBox="0 0 657.6 597.49">
  <defs>
    <style>
      .cls-1 {
        isolation: isolate;
      }

      .cls-2 {
        opacity: .3;
      }

      .cls-2, .cls-3, .cls-4, .cls-5, .cls-6, .cls-7, .cls-8, .cls-9 {
        stroke-width: 0px;
      }

      .cls-3 {
        fill: #fff;
        opacity: .5;
      }

      .cls-4 {
        fill: #1a1a1a;
      }

      .cls-5 {
        fill: none;
      }

      .cls-6, .cls-7 {
        opacity: .2;
      }

      .cls-7 {
        fill: #bdccd4;
      }

      .cls-10 {
        clip-path: url(#clippath);
      }

      .cls-11 {
        mix-blend-mode: overlay;
      }

      .cls-8 {
        fill: #afbbcc;
      }

      .cls-9 {
        fill: #4f2418;
      }
    </style>
    <clipPath id="clippath">
      <rect class="cls-5" y="0" width="657.6" height="597.49" rx="20.47" ry="20.47"/>
    </clipPath>
  </defs>
  <g class="cls-1">
    <g id="Layer_2" data-name="Layer 2">
      <g id="Camada_1" data-name="Camada 1">
        <g class="cls-11">
          <g class="cls-10">
            <g>
              <g>
                <path class="cls-8" d="m350.37,309.48l24.34-36.63c7.22-10.86,4.83-25.2-5.33-31.95-7.75-5.15-18.21-4.54-26.01,1.52-20.04,15.56-43.39,24.56-67.54,26.01l-3.5.21c-2.53.15-4.46,2.33-4.31,4.86h0c.15,2.53,2.33,4.46,4.86,4.31l3.5-.21c12.88-.78,25.68-3.58,38.02-8.33,12.32-4.74,23.97-11.34,34.6-19.6,4.68-3.64,10.83-4.09,15.29-1.12,5.94,3.95,7.18,12.57,2.76,19.21l-24.34,36.63,7.65,5.08Z"/>
                <path class="cls-4" d="m275.84,268.43l1.8,8.92s-6.75,2.98-17.7-4.01c-.42-.27-.69-.72-.73-1.22l-.06-.86c-.06-.85.58-1.59,1.44-1.66l15.26-1.17Z"/>
                <path class="cls-6" d="m347.15,305.7l24.34-36.63c5.54-8.34,5.42-18.72.47-26.15,7.94,7.31,9.32,20.05,2.75,29.93l-24.34,36.63-7.65-5.08.75-1.14,3.68,2.44Z"/>
              </g>
              <g>
                <path class="cls-9" d="m16.7,793.36l16.39,10.89,318.46-479.16-22.19-14.75-175.39,251.86c-5.71,8.2-11.1,16.61-16.16,25.22l-15.35,26.09-17.56,29.87-88.21,149.99Z"/>
                <path class="cls-9" d="m30.32,802.41l27.31,18.15L470.11,199.94c5.95-8.95,12.69-17.33,20.05-25.21,3.84-4.12,7.62-8.88,11.13-14.16s6.44-10.6,8.74-15.74c4.41-9.83,9.53-19.3,15.48-28.24l30.44-45.8-27.31-18.15-30.44,45.8c-5.95,8.95-12.69,17.33-20.05,25.21-3.84,4.12-7.62,8.88-11.13,14.16-3.51,5.28-6.44,10.6-8.74,15.74-4.41,9.83-9.53,19.3-15.48,28.24L30.32,802.41Z"/>
                <rect class="cls-8" x="402.98" y="237.06" width="23.02" height="33.89" transform="translate(855.47 49.4) rotate(123.61)"/>
                <path class="cls-8" d="m330.37,301.63h21.81v24.06h-21.81c-.67,0-1.21-.54-1.21-1.21v-21.64c0-.67.54-1.21,1.21-1.21Z" transform="translate(790.47 203.55) rotate(123.61)"/>
                <rect class="cls-8" x="537.6" y="38.86" width="11.38" height="42.68" rx="4.75" ry="4.75" transform="translate(192.43 479.36) rotate(-56.39)"/>
                <rect class="cls-2" x="95.86" y="444.03" width="332.94" height="7.24" transform="translate(780.36 476.96) rotate(123.61)"/>
                <rect class="cls-8" x="155.1" y="562.21" width="31.56" height="63.38" transform="translate(760.09 780.33) rotate(123.61)"/>
                <path class="cls-2" d="m27.92,847.09l7.79,5.18c.58.38,1.35.23,1.74-.35l20.95-31.52c.24-.36.27-.79.11-1.17L470.11,199.94c5.95-8.95,12.69-17.33,20.05-25.21,3.84-4.12,7.62-8.88,11.13-14.16s6.44-10.6,8.74-15.74c4.41-9.83,9.53-19.3,15.48-28.24l28.29-42.57.17.11c2.18,1.45,5.13.86,6.58-1.33l1.04-1.57c1.45-2.18.86-5.13-1.33-6.58l-8.54-5.68L27.92,847.09Z"/>
              </g>
              <circle class="cls-8" cx="287.44" cy="444.93" r="9.83" transform="translate(-196.9 230.45) rotate(-33.25)"/>
              <circle class="cls-8" cx="172.2" cy="559.21" r="4.53" transform="translate(-412.9 564.52) rotate(-73.4)"/>
              <path class="cls-8" d="m228.99,484.98c2.08,1.38,4.32,1.69,4.99.67.67-1.01-.47-2.95-2.55-4.34-2.08-1.38-4.32-1.69-4.99-.67-.67,1.01.47,2.95,2.55,4.34Z"/>
              <path class="cls-8" d="m221.94,473.15c.77.51,1.82.3,2.33-.47.51-.77.3-1.82-.47-2.33-.77-.51-1.82-.3-2.33.47-.51.77-.3,1.82.47,2.33Z"/>
              <path class="cls-8" d="m253.51,424.24c.77.51,1.82.3,2.33-.47.51-.77.3-1.82-.47-2.33-.77-.51-1.82-.3-2.33.47-.51.77-.3,1.82.47,2.33Z"/>
              <path class="cls-8" d="m259.38,415.41c.77.51,1.82.3,2.33-.47.51-.77.3-1.82-.47-2.33-.77-.51-1.82-.3-2.33.47-.51.77-.3,1.82.47,2.33Z"/>
              <path class="cls-8" d="m284.45,386.1c.89.59,2.1.35,2.69-.54.59-.89.35-2.1-.54-2.69-.89-.59-2.1-.35-2.69.54s-.35,2.1.54,2.69Z"/>
              <path class="cls-8" d="m306.24,365.48c.89.59,2.1.35,2.69-.54.59-.89.35-2.1-.54-2.69-.89-.59-2.1-.35-2.69.54-.59.89-.35,2.1.54,2.69Z"/>
              <circle class="cls-8" cx="443.27" cy="210.7" r="1.94"/>
              <path class="cls-8" d="m177.99,550.48c.89.59,2.1.35,2.69-.54.59-.89.35-2.1-.54-2.69-.89-.59-2.1-.35-2.69.54-.59.89-.35,2.1.54,2.69Z"/>
              <path class="cls-8" d="m156.63,563c.89.59,2.1.35,2.69-.54s.35-2.1-.54-2.69c-.89-.59-2.1-.35-2.69.54-.59.89-.35,2.1.54,2.69Z"/>
              <path class="cls-8" d="m212.13,488.37c.77.51,1.82.3,2.33-.47.51-.77.3-1.82-.47-2.33-.77-.51-1.82-.3-2.33.47-.51.77-.3,1.82.47,2.33Z"/>
              <path class="cls-8" d="m202.47,502.45c.77.51,1.82.3,2.33-.47.51-.77.3-1.82-.47-2.33-.77-.51-1.82-.3-2.33.47-.51.77-.3,1.82.47,2.33Z"/>
              <ellipse class="cls-8" cx="345.77" cy="290.33" rx="5.82" ry="3.99" transform="translate(-87.42 417.6) rotate(-56.39)"/>
              <circle class="cls-8" cx="290.79" cy="376.33" r="3.62" transform="translate(-164.93 240.31) rotate(-35.69)"/>
              <circle class="cls-8" cx="315.22" cy="352.19" r="3.62" transform="translate(-153.78 293.58) rotate(-41.05)"/>
              <ellipse class="cls-8" cx="410.48" cy="282.24" rx="3.62" ry="2.85" transform="translate(-51.79 467.88) rotate(-56.39)"/>
              <ellipse class="cls-8" cx="371.67" cy="340.63" rx="3.62" ry="2.85" transform="translate(-117.74 461.63) rotate(-56.39)"/>
              <path class="cls-8" d="m167.3,546.48c1.37.91,3.6-.04,4.98-2.12,1.38-2.08,1.4-4.51.03-5.42-1.37-.91-3.6.04-4.98,2.12-1.38,2.08-1.4,4.51-.03,5.42Z"/>
              <circle class="cls-8" cx="280.62" cy="467.58" r="5.82" transform="translate(-220.74 682.07) rotate(-82.19)"/>
              <circle class="cls-8" cx="209.29" cy="562.74" r="6.6" transform="translate(-379.27 681.38) rotate(-81)"/>
              <path class="cls-8" d="m215.88,576.44l13.18-19.83c.99-1.49.58-3.49-.9-4.48h0c-1.49-.99-3.49-.59-4.48.9l-13.18,19.83c-.99,1.49-.58,3.49.9,4.48h0c1.49.99,3.49.59,4.48-.9Z"/>
              <path class="cls-8" d="m243.48,457.33c.27-.4.68-.68,1.18-.83l69.18-104.08c.27-.41.82-.57,1.24-.32.45.27.58.85.29,1.28l-67.19,101.09c-.63.95-.3,2.22.71,2.78.21.11.41.24.62.37,2.38,1.58,3.54,4.02,2.59,5.45-.95,1.43-3.65,1.3-6.03-.28s-3.54-4.02-2.59-5.45Z"/>
              <path class="cls-8" d="m233.22,461.08c.11-.17.26-.3.43-.42l56.35-84.79c.27-.41.82-.57,1.24-.32.45.27.58.85.29,1.28l-54.06,81.34c-.68,1.02-.23,2.39.92,2.82,1.17.45,2.44,1.1,3.69,1.93,3.87,2.57,6.17,5.91,5.14,7.45-1.03,1.55-5,.72-8.86-1.85-3.87-2.57-6.17-5.91-5.14-7.45Z"/>
              <path class="cls-8" d="m171.45,558.69l58.56-88.11c.02-.33.11-.63.28-.88,1.03-1.55,4.56-1.01,7.89,1.21,3.33,2.21,5.2,5.26,4.17,6.81-1.03,1.55-4.56,1.01-7.89-1.21-.84-.56-1.59-1.18-2.23-1.81-.86-.86-2.29-.74-2.97.28l-56.32,84.74c-.31.47-.98.55-1.4.13-.31-.31-.33-.79-.09-1.15Z"/>
              <path class="cls-8" d="m254.51,423.04c.28-.42.16-.98-.25-1.26l-4.55-3.03c-.42-.28-.98-.16-1.26.25l-80.98,121.84c-.28.42-.16.98.25,1.26s.98.16,1.26-.25l80.48-121.08,3.8,2.53c.42.28.98.16,1.26-.25Z"/>
              <g>
                <path class="cls-8" d="m209.01,516.43c.28-.42.16-.98-.25-1.26l-9.7-6.44c-.42-.28-.98-.16-1.26.25-.28.42-.16.98.25,1.26l9.7,6.44c.42.28.98.16,1.26-.25Z"/>
                <path class="cls-8" d="m197.58,511.32c.92.61,2.17.36,2.78-.56.61-.92.36-2.17-.56-2.78-.92-.61-2.17-.36-2.78.56-.61.92-.36,2.17.56,2.78Z"/>
                <path class="cls-8" d="m207.06,517.62c.92.61,2.17.36,2.78-.56.61-.92.36-2.17-.56-2.78-.92-.61-2.17-.36-2.78.56s-.36,2.17.56,2.78Z"/>
              </g>
              <g>
                <path class="cls-8" d="m230.15,549.12c.28-.42.16-.98-.25-1.26l-9.7-6.44c-.42-.28-.98-.16-1.26.25-.28.42-.16.98.25,1.26l9.7,6.44c.42.28.98.16,1.26-.25Z"/>
                <path class="cls-8" d="m218.72,544c.92.61,2.17.36,2.78-.56s.36-2.17-.56-2.78c-.92-.61-2.17-.36-2.78.56-.61.92-.36,2.17.56,2.78Z"/>
                <path class="cls-8" d="m228.2,550.3c.92.61,2.17.36,2.78-.56.61-.92.36-2.17-.56-2.78-.92-.61-2.17-.36-2.78.56-.61.92-.36,2.17.56,2.78Z"/>
              </g>
              <g>
                <path class="cls-8" d="m259.08,505.6c.28-.42.16-.98-.25-1.26l-9.7-6.44c-.42-.28-.98-.16-1.26.25s-.16.98.25,1.26l9.7,6.44c.42.28.98.16,1.26-.25Z"/>
                <path class="cls-8" d="m247.65,500.48c.92.61,2.17.36,2.78-.56.61-.92.36-2.17-.56-2.78-.92-.61-2.17-.36-2.78.56-.61.92-.36,2.17.56,2.78Z"/>
                <path class="cls-8" d="m257.13,506.78c.92.61,2.17.36,2.78-.56s.36-2.17-.56-2.78-2.17-.36-2.78.56c-.61.92-.36,2.17.56,2.78Z"/>
              </g>
              <g>
                <path class="cls-8" d="m273.69,490.15c.28-.42.16-.98-.25-1.26l-13.03-8.66c-.42-.28-.98-.16-1.26.25s-.16.98.25,1.26l13.03,8.66c.42.28.98.16,1.26-.25Z"/>
                <path class="cls-8" d="m259.03,482.89c.92.61,2.17.36,2.78-.56s.36-2.17-.56-2.78-2.17-.36-2.78.56-.36,2.17.56,2.78Z"/>
                <path class="cls-8" d="m271.74,491.34c.92.61,2.17.36,2.78-.56s.36-2.17-.56-2.78-2.17-.36-2.78.56-.36,2.17.56,2.78Z"/>
              </g>
              <g>
                <path class="cls-8" d="m329.31,397.59c.28-.42.16-.98-.25-1.26l-9.7-6.44c-.42-.28-.98-.16-1.26.25-.28.42-.16.98.25,1.26l9.7,6.44c.42.28.98.16,1.26-.25Z"/>
                <path class="cls-8" d="m317.88,392.47c.92.61,2.17.36,2.78-.56s.36-2.17-.56-2.78-2.17-.36-2.78.56c-.61.92-.36,2.17.56,2.78Z"/>
                <path class="cls-8" d="m327.36,398.77c.92.61,2.17.36,2.78-.56.61-.92.36-2.17-.56-2.78-.92-.61-2.17-.36-2.78.56-.61.92-.36,2.17.56,2.78Z"/>
              </g>
              <g>
                <path class="cls-8" d="m337.48,385.31c.28-.42.16-.98-.25-1.26l-9.7-6.44c-.42-.28-.98-.16-1.26.25s-.16.98.25,1.26l9.7,6.44c.42.28.98.16,1.26-.25Z"/>
                <path class="cls-8" d="m326.04,380.19c.92.61,2.17.36,2.78-.56.61-.92.36-2.17-.56-2.78-.92-.61-2.17-.36-2.78.56-.61.92-.36,2.17.56,2.78Z"/>
                <path class="cls-8" d="m335.52,386.49c.92.61,2.17.36,2.78-.56s.36-2.17-.56-2.78c-.92-.61-2.17-.36-2.78.56-.61.92-.36,2.17.56,2.78Z"/>
              </g>
              <g>
                <path class="cls-8" d="m433.41,237.22c.28-.42.16-.98-.25-1.26l-9.7-6.44c-.42-.28-.98-.16-1.26.25s-.16.98.25,1.26l9.7,6.44c.42.28.98.16,1.26-.25Z"/>
                <path class="cls-8" d="m421.98,232.11c.92.61,2.17.36,2.78-.56s.36-2.17-.56-2.78-2.17-.36-2.78.56-.36,2.17.56,2.78Z"/>
                <path class="cls-8" d="m431.46,238.41c.92.61,2.17.36,2.78-.56.61-.92.36-2.17-.56-2.78-.92-.61-2.17-.36-2.78.56s-.36,2.17.56,2.78Z"/>
              </g>
              <g>
                <path class="cls-8" d="m288.5,404.32c.28-.42.16-.98-.25-1.26l-9.7-6.44c-.42-.28-.98-.16-1.26.25s-.16.98.25,1.26l9.7,6.44c.42.28.98.16,1.26-.25Z"/>
                <path class="cls-8" d="m277.06,399.2c.92.61,2.17.36,2.78-.56.61-.92.36-2.17-.56-2.78-.92-.61-2.17-.36-2.78.56-.61.92-.36,2.17.56,2.78Z"/>
                <path class="cls-8" d="m286.54,405.5c.92.61,2.17.36,2.78-.56s.36-2.17-.56-2.78-2.17-.36-2.78.56-.36,2.17.56,2.78Z"/>
              </g>
              <path class="cls-8" d="m204.21,501.69l19.02-28.61c.28-.42.16-.98-.25-1.26-.42-.28-.98-.16-1.26.25l-19.02,28.61c-.28.42-.16.98.25,1.26.42.28.98.16,1.26-.25Z"/>
              <path class="cls-8" d="m229.13,482.43c.28-.42.16-.98-.25-1.26l-8.4-5.58c-.42-.28-.98-.16-1.26.25s-.16.98.25,1.26l8.4,5.58c.42.28.98.16,1.26-.25Z"/>
              <path class="cls-8" d="m213.82,487.47c.27-.41.17-.97-.24-1.25l-9.84-6.69c-.2-.14-.45-.19-.68-.14-.24.05-.45.19-.58.39l-51.34,77.24c-.28.42-.16.98.25,1.26l4.2,2.79c.42.28.98.16,1.26-.25.28-.42.16-.98-.25-1.26l-3.45-2.29,50.33-75.72,9.08,6.18c.41.28.98.17,1.26-.24,0,0,0,0,0,0Z"/>
              <path class="cls-8" d="m267.57,462.49c.43-1.53,1.19-2.76,1.99-3.38,1.09-1.22,2.54-2.13,4.22-2.54l2.14-.52c2.33-.57,4.37-1.99,5.69-3.99l171.72-258.37c.27-.41.82-.57,1.24-.32.45.27.58.85.29,1.28l-171.75,258.41c-1.58,2.38-4,4.07-6.77,4.75l-2.14.52c-.11.03-.23.06-.34.09-1.12.34-1.8,1.45-1.73,2.62.05.78-.05,1.7-.31,2.64-.68,2.41-2.18,4.09-3.36,3.76-1.18-.33-1.58-2.55-.91-4.96Z"/>
              <path class="cls-8" d="m271.23,464.92c.64-2.29,2.03-3.92,3.18-3.79,1.03-.99,2.32-1.73,3.79-2.09l2.14-.52c2.33-.57,4.37-1.99,5.69-3.99l85.23-128.24c.27-.41.82-.57,1.24-.32.45.27.58.85.29,1.28l-85.26,128.28c-1.58,2.38-4,4.07-6.77,4.75l-2.14.52c-.36.09-.71.21-1.04.35-1.07.46-1.77,1.54-1.76,2.7,0,.69-.1,1.47-.33,2.26-.68,2.41-2.18,4.09-3.36,3.76-1.18-.33-1.58-2.55-.91-4.96Z"/>
              <path class="cls-8" d="m381.44,334.99c.28-.42.16-.98-.25-1.26l-10.74-7.14c-.42-.28-.98-.16-1.26.25-.28.42-.16.98.25,1.26l10.74,7.14c.42.28.98.16,1.26-.25Z"/>
              <path class="cls-8" d="m371.09,340.19l38.77-58.33c.28-.42.16-.98-.25-1.26-.42-.28-.98-.16-1.26.25l-38.77,58.33c-.28.42-.16.98.25,1.26.42.28.98.16,1.26-.25Z"/>
              <path class="cls-8" d="m211.13,563.96l43.27-65.1c1.62-2.44,3.91-4.37,6.59-5.55h0c.92-.41,1.7-1.09,2.23-1.95,1.13-1.82,2.72-3.95,4.61-6.13,4.51-5.17,9.03-8.6,10.11-7.66,1.08.94-1.7,5.89-6.21,11.06-4.51,5.17-9.03,8.6-10.11,7.66-.02-.02-.05-.04-.07-.07-.39-.48-1.04-.67-1.57-.34-1.62,1.02-3.01,2.37-4.08,3.98l-43.26,65.08c-.24.36-.7.52-1.1.36-.55-.22-.73-.88-.42-1.34Z"/>
              <path class="cls-8" d="m352.66,294.91c.28-.42.16-.98-.25-1.26l-11.73-7.8c-.42-.28-.98-.16-1.26.25l-11.1,16.7c-.28.42-.16.98.25,1.26l5.87,3.9c.42.28.98.16,1.26-.25.28-.42.16-.98-.25-1.26l-5.11-3.4,10.1-15.19,10.98,7.3c.42.28.98.16,1.26-.25Z"/>
              <path class="cls-8" d="m328.09,315.54c.28-.42.16-.98-.25-1.26l-6.03-4.01c-.42-.28-.98-.16-1.26.25l-66.16,99.54c-.28.42-.16.98.25,1.26l5.28,3.51c.42.28.98.16,1.26-.25.28-.42.16-.98-.25-1.26l-4.52-3.01,65.15-98.03,5.28,3.51c.42.28.98.16,1.26-.25Z"/>
              <circle class="cls-8" cx="454.12" cy="194.14" r="9.83"/>
              <ellipse class="cls-7" cx="489.68" cy="122.88" rx="51.61" ry="2.59" transform="translate(116.29 462.69) rotate(-56.39)"/>
              <path class="cls-3" d="m453.19,191.34c2.91-.34,5.15-1.59,5.01-2.8-.14-1.21-2.61-1.91-5.52-1.57-2.91.34-5.15,1.59-5.01,2.8.14,1.21,2.61,1.91,5.52,1.57Z"/>
              <path class="cls-3" d="m404.9,247.63c2.65-3.99,4.31-7.54,3.72-7.93-.59-.4-3.22,2.52-5.87,6.5-2.65,3.99-4.31,7.54-3.72,7.93.59.4,3.22-2.52,5.87-6.5Z"/>
              <path class="cls-3" d="m335.76,311.01c2.65-3.99,4.31-7.54,3.72-7.93s-3.22,2.52-5.87,6.5c-2.65,3.99-4.31,7.54-3.72,7.93.59.4,3.22-2.52,5.87-6.5Z"/>
              <path class="cls-3" d="m151.24,580.69c3.36-5.06,5.46-9.57,4.69-10.09-.77-.51-4.13,3.17-7.49,8.23-3.36,5.06-5.46,9.57-4.69,10.09.77.51,4.13-3.17,7.49-8.23Z"/>
              <path class="cls-3" d="m287.08,442.2c2.91-.34,5.15-1.59,5.01-2.8-.14-1.21-2.61-1.91-5.52-1.57-2.91.34-5.15,1.59-5.01,2.8.14,1.21,2.61,1.91,5.52,1.57Z"/>
              <path class="cls-3" d="m208.74,561.62c1.99-.23,3.51-1.24,3.39-2.25s-1.83-1.64-3.82-1.41c-1.99.23-3.51,1.24-3.39,2.25.12,1.01,1.83,1.64,3.82,1.41Z"/>
            </g>
            <g>
              <g>
                <path class="cls-9" d="m412.94,427.55l16.39,10.89L747.8-40.72l-22.19-14.75-175.39,251.86c-5.71,8.2-11.1,16.61-16.16,25.22l-15.35,26.09-17.56,29.87-88.21,149.99Z"/>
                <path class="cls-9" d="m426.56,436.6l27.31,18.15L866.35-165.87c5.95-8.95,12.69-17.33,20.05-25.21,3.84-4.12,7.62-8.88,11.13-14.16,3.51-5.28,6.44-10.6,8.74-15.74,4.41-9.83,9.53-19.3,15.48-28.24l30.44-45.8-27.31-18.15-30.44,45.8c-5.95,8.95-12.69,17.33-20.05,25.21-3.84,4.12-7.62,8.88-11.13,14.16-3.51,5.28-6.44,10.6-8.74,15.74-4.41,9.83-9.53,19.3-15.48,28.24L426.56,436.6Z"/>
                <path class="cls-8" d="m391.16,459.36l40.79,27.11c.58.38,1.35.23,1.74-.35l20.95-31.52c.24-.36.27-.79.11-1.17-.09-.22-.25-.42-.46-.57l-40.79-27.11c-.58-.38-1.35-.23-1.74.35l-20.95,31.52c-.38.58-.23,1.35.35,1.74Z"/>
                <rect class="cls-2" x="492.1" y="78.23" width="332.94" height="7.24" transform="translate(1091.28 -421.32) rotate(123.61)"/>
                <rect class="cls-8" x="551.34" y="196.41" width="31.56" height="63.38" transform="translate(1071 -117.96) rotate(123.61)"/>
                <path class="cls-2" d="m424.16,481.29l7.79,5.18c.58.38,1.35.23,1.74-.35l20.95-31.52c.24-.36.27-.79.11-1.17L866.35-165.87c5.95-8.95,12.69-17.33,20.05-25.21,3.84-4.12,7.62-8.88,11.13-14.16,3.51-5.28,6.44-10.6,8.74-15.74,4.41-9.83,9.53-19.3,15.48-28.24l28.29-42.57.17.11c2.18,1.45,5.13.86,6.58-1.33l1.04-1.57c1.45-2.18.86-5.13-1.33-6.58l-8.54-5.68L424.16,481.29Z"/>
              </g>
              <circle class="cls-8" cx="515.78" cy="325.68" r="9.83"/>
              <circle class="cls-8" cx="526.75" cy="273.64" r="9.83" transform="translate(-43.67 109.42) rotate(-11.39)"/>
              <circle class="cls-8" cx="458.01" cy="421.47" r="9.83"/>
              <circle class="cls-8" cx="437.14" cy="428.1" r="7.24"/>
              <circle class="cls-8" cx="502.57" cy="345.32" r="6.6" transform="translate(-20.7 658.38) rotate(-65.38)"/>
              <circle class="cls-8" cx="568.43" cy="193.4" r="4.53" transform="translate(220.73 682.92) rotate(-73.4)"/>
              <path class="cls-8" d="m625.23,119.17c2.08,1.38,4.32,1.69,4.99.67.67-1.01-.47-2.95-2.55-4.34-2.08-1.38-4.32-1.69-4.99-.67-.67,1.01.47,2.95,2.55,4.34Z"/>
              <path class="cls-8" d="m618.18,107.34c.77.51,1.82.3,2.33-.47.51-.77.3-1.82-.47-2.33-.77-.51-1.82-.3-2.33.47-.51.77-.3,1.82.47,2.33Z"/>
              <path class="cls-8" d="m526.95,335.28c.77.51,1.82.3,2.33-.47.51-.77.3-1.82-.47-2.33-.77-.51-1.82-.3-2.33.47-.51.77-.3,1.82.47,2.33Z"/>
              <path class="cls-8" d="m544.7,308.56c.77.51,1.82.3,2.33-.47.51-.77.3-1.82-.47-2.33-.77-.51-1.82-.3-2.33.47-.51.77-.3,1.82.47,2.33Z"/>
              <path class="cls-8" d="m649.75,58.44c.77.51,1.82.3,2.33-.47.51-.77.3-1.82-.47-2.33-.77-.51-1.82-.3-2.33.47-.51.77-.3,1.82.47,2.33Z"/>
              <path class="cls-8" d="m655.62,49.6c.77.51,1.82.3,2.33-.47.51-.77.3-1.82-.47-2.33-.77-.51-1.82-.3-2.33.47-.51.77-.3,1.82.47,2.33Z"/>
              <path class="cls-8" d="m574.23,184.68c.89.59,2.1.35,2.69-.54.59-.89.35-2.1-.54-2.69-.89-.59-2.1-.35-2.69.54-.59.89-.35,2.1.54,2.69Z"/>
              <path class="cls-8" d="m552.87,197.19c.89.59,2.1.35,2.69-.54s.35-2.1-.54-2.69c-.89-.59-2.1-.35-2.69.54-.59.89-.35,2.1.54,2.69Z"/>
              <path class="cls-8" d="m608.37,122.57c.77.51,1.82.3,2.33-.47.51-.77.3-1.82-.47-2.33-.77-.51-1.82-.3-2.33.47-.51.77-.3,1.82.47,2.33Z"/>
              <path class="cls-8" d="m598.7,136.64c.77.51,1.82.3,2.33-.47.51-.77.3-1.82-.47-2.33-.77-.51-1.82-.3-2.33.47-.51.77-.3,1.82.47,2.33Z"/>
              <circle class="cls-8" cx="553.28" cy="259.9" r="3.62" transform="translate(-24.9 458.34) rotate(-44.1)"/>
              <circle class="cls-8" cx="525.07" cy="302.35" r="3.62" transform="translate(-77.77 363.09) rotate(-35.69)"/>
              <path class="cls-8" d="m518.82,293.53c1.67,1.11,3.91.65,5.02-1.01,1.11-1.67.65-3.91-1.01-5.02-1.67-1.11-3.91-.65-5.02,1.01-1.11,1.67-.65,3.91,1.01,5.02Z"/>
              <circle class="cls-8" cx="511.49" cy="288.66" r="3.62"/>
              <circle class="cls-8" cx="484.16" cy="345.67" r="3.62" transform="translate(-79.1 154.26) rotate(-16.76)"/>
              <circle class="cls-8" cx="492.14" cy="352.83" r="3.62" transform="translate(-42.36 68.22) rotate(-7.6)"/>
              <circle class="cls-8" cx="476.82" cy="375.89" r="3.62" transform="translate(-10.72 14.01) rotate(-1.66)"/>
              <circle class="cls-8" cx="478.52" cy="359.31" r="3.62" transform="translate(-118.32 402.56) rotate(-41.05)"/>
              <circle class="cls-8" cx="427.08" cy="417.07" r="3.62" transform="translate(-163.1 327.46) rotate(-35.69)"/>
              <circle class="cls-8" cx="447.99" cy="385.61" r="3.62" transform="translate(-140.83 333.75) rotate(-35.69)"/>
              <circle class="cls-8" cx="434.01" cy="398.69" r="3.62" transform="translate(-23.23 770.51) rotate(-81.69)"/>
              <circle class="cls-8" cx="478.67" cy="414.7" r="3.62" transform="translate(-154.65 416.28) rotate(-41.05)"/>
              <circle class="cls-8" cx="458.05" cy="396.65" r="3.62"/>
              <circle class="cls-8" cx="550.68" cy="299.8" r="3.62" transform="translate(-61.5 435.32) rotate(-41.05)"/>
              <path class="cls-8" d="m518.61,348.06c1.67,1.11,3.91.65,5.02-1.01,1.11-1.67.65-3.91-1.01-5.02-1.67-1.11-3.91-.65-5.02,1.01-1.11,1.67-.65,3.91,1.01,5.02Z"/>
              <path class="cls-8" d="m563.54,180.68c1.37.91,3.6-.04,4.98-2.12,1.38-2.08,1.4-4.51.03-5.42-1.37-.91-3.6.04-4.98,2.12-1.38,2.08-1.4,4.51-.03,5.42Z"/>
              <circle class="cls-8" cx="605.53" cy="196.94" r="6.6" transform="translate(316.25 764.19) rotate(-81)"/>
              <path class="cls-8" d="m612.12,210.64l13.18-19.83c.99-1.49.58-3.49-.9-4.48h0c-1.49-.99-3.49-.59-4.48.9l-13.18,19.83c-.99,1.49-.58,3.49.9,4.48h0c1.49.99,3.49.59,4.48-.9Z"/>
              <path class="cls-8" d="m501.78,278.15c2.58,1.58,5.78,1.02,7.27-1.21.04-.06.08-.12.12-.19l12.89-21.54c1.43-2.39.44-5.64-2.21-7.26-.22-.14-.45-.26-.68-.36-.66-.3-1.44-.05-1.8.58l-16.22,27.98c-.38.65-.17,1.47.45,1.89.06.04.12.08.18.12Z"/>
              <path class="cls-8" d="m639.72,91.53c.27-.4.68-.68,1.18-.83l69.18-104.08c.27-.41.82-.57,1.24-.32.45.27.58.85.29,1.28l-67.19,101.09c-.63.95-.3,2.22.71,2.78.21.11.41.24.62.37,2.38,1.58,3.54,4.02,2.59,5.45-.95,1.43-3.65,1.3-6.03-.28s-3.54-4.02-2.59-5.45Z"/>
              <path class="cls-8" d="m629.46,95.27c.11-.17.26-.3.43-.42l56.35-84.79c.27-.41.82-.57,1.24-.32.45.27.58.85.29,1.28l-54.06,81.34c-.68,1.02-.23,2.39.92,2.82,1.17.45,2.44,1.1,3.69,1.93,3.87,2.57,6.17,5.91,5.14,7.45-1.03,1.55-5,.72-8.86-1.85-3.87-2.57-6.17-5.91-5.14-7.45Z"/>
              <path class="cls-8" d="m567.69,192.88l58.56-88.11c.02-.33.11-.63.28-.88,1.03-1.55,4.56-1.01,7.89,1.21,3.33,2.21,5.2,5.26,4.17,6.81-1.03,1.55-4.56,1.01-7.89-1.21-.84-.56-1.59-1.18-2.23-1.81-.86-.86-2.29-.74-2.97.28l-56.32,84.74c-.31.47-.98.55-1.4.13-.31-.31-.33-.79-.09-1.15Z"/>
              <path class="cls-8" d="m650.75,57.24c.28-.42.16-.98-.25-1.26l-4.55-3.03c-.42-.28-.98-.16-1.26.25l-80.98,121.84c-.28.42-.16.98.25,1.26s.98.16,1.26-.25l80.48-121.08,3.8,2.53c.42.28.98.16,1.26-.25Z"/>
              <g>
                <path class="cls-8" d="m605.25,150.63c.28-.42.16-.98-.25-1.26l-9.7-6.44c-.42-.28-.98-.16-1.26.25-.28.42-.16.98.25,1.26l9.7,6.44c.42.28.98.16,1.26-.25Z"/>
                <path class="cls-8" d="m593.82,145.51c.92.61,2.17.36,2.78-.56.61-.92.36-2.17-.56-2.78-.92-.61-2.17-.36-2.78.56-.61.92-.36,2.17.56,2.78Z"/>
                <path class="cls-8" d="m603.3,151.81c.92.61,2.17.36,2.78-.56s.36-2.17-.56-2.78-2.17-.36-2.78.56-.36,2.17.56,2.78Z"/>
              </g>
              <g>
                <path class="cls-8" d="m626.39,183.31c.28-.42.16-.98-.25-1.26l-9.7-6.44c-.42-.28-.98-.16-1.26.25-.28.42-.16.98.25,1.26l9.7,6.44c.42.28.98.16,1.26-.25Z"/>
                <path class="cls-8" d="m614.96,178.2c.92.61,2.17.36,2.78-.56.61-.92.36-2.17-.56-2.78-.92-.61-2.17-.36-2.78.56-.61.92-.36,2.17.56,2.78Z"/>
                <path class="cls-8" d="m624.44,184.5c.92.61,2.17.36,2.78-.56.61-.92.36-2.17-.56-2.78-.92-.61-2.17-.36-2.78.56-.61.92-.36,2.17.56,2.78Z"/>
              </g>
              <g>
                <path class="cls-8" d="m655.32,139.79c.28-.42.16-.98-.25-1.26l-9.7-6.44c-.42-.28-.98-.16-1.26.25s-.16.98.25,1.26l9.7,6.44c.42.28.98.16,1.26-.25Z"/>
                <path class="cls-8" d="m643.89,134.68c.92.61,2.17.36,2.78-.56.61-.92.36-2.17-.56-2.78-.92-.61-2.17-.36-2.78.56-.61.92-.36,2.17.56,2.78Z"/>
                <path class="cls-8" d="m653.37,140.98c.92.61,2.17.36,2.78-.56s.36-2.17-.56-2.78-2.17-.36-2.78.56c-.61.92-.36,2.17.56,2.78Z"/>
              </g>
              <g>
                <path class="cls-8" d="m669.93,124.35c.28-.42.16-.98-.25-1.26l-13.03-8.66c-.42-.28-.98-.16-1.26.25s-.16.98.25,1.26l13.03,8.66c.42.28.98.16,1.26-.25Z"/>
                <path class="cls-8" d="m655.27,117.08c.92.61,2.17.36,2.78-.56s.36-2.17-.56-2.78-2.17-.36-2.78.56-.36,2.17.56,2.78Z"/>
              </g>
              <path class="cls-8" d="m600.45,135.88l19.02-28.61c.28-.42.16-.98-.25-1.26-.42-.28-.98-.16-1.26.25l-19.02,28.61c-.28.42-.16.98.25,1.26.42.28.98.16,1.26-.25Z"/>
              <path class="cls-8" d="m625.37,116.62c.28-.42.16-.98-.25-1.26l-8.4-5.58c-.42-.28-.98-.16-1.26.25s-.16.98.25,1.26l8.4,5.58c.42.28.98.16,1.26-.25Z"/>
              <path class="cls-8" d="m610.06,121.67c.27-.41.17-.97-.24-1.25l-9.84-6.69c-.2-.14-.45-.19-.68-.14-.24.05-.45.19-.58.39l-51.34,77.24c-.28.42-.16.98.25,1.26l4.2,2.79c.42.28.98.16,1.26-.25.28-.42.16-.98-.25-1.26l-3.45-2.29,50.33-75.72,9.08,6.18c.41.28.98.17,1.26-.24,0,0,0,0,0,0Z"/>
              <path class="cls-8" d="m607.36,198.16l43.27-65.1c1.62-2.44,3.91-4.37,6.59-5.55h0c.92-.41,1.7-1.09,2.23-1.95,1.13-1.82,2.72-3.95,4.61-6.13,4.51-5.17,9.03-8.6,10.11-7.66,1.08.94-1.7,5.89-6.21,11.06-4.51,5.17-9.03,8.6-10.11,7.66-.02-.02-.05-.04-.07-.07-.39-.48-1.04-.67-1.57-.34-1.62,1.02-3.01,2.37-4.08,3.98l-43.26,65.08c-.24.36-.7.52-1.1.36-.55-.22-.73-.88-.42-1.34Z"/>
              <path class="cls-8" d="m525.24,303.73l28.76-43.28c.28-.42.16-.98-.25-1.26s-.98-.16-1.26.25l-28.76,43.28c-.28.42-.16.98.25,1.26s.98.16,1.26-.25Z"/>
              <path class="cls-8" d="m541.22,275.06l-3.17-6.98c-.71-1.55-2.04-2.77-3.67-3.32-1.3-.43-2.72-1.13-4.12-2.06-3.91-2.6-6.19-6.06-5.08-7.72,1.1-1.66,5.51-1.35,9.08,1.7,3.07,2.62,4.62,4.8,5.08,7.72,0,0-.01.01-.02.02l4.39,9.66c.2.44.15.91-.09,1.27-.16.23-.39.42-.69.52-.67.21-1.42-.16-1.72-.82Z"/>
              <path class="cls-8" d="m521.31,345.39l29.3-44.09c.28-.42.16-.98-.25-1.26s-.98-.16-1.26.25l-29.3,44.09c-.28.42-.16.98.25,1.26.42.28.98.16,1.26-.25Z"/>
              <path class="cls-8" d="m485.03,346.24l36.51-54.94c.28-.42.16-.98-.25-1.26s-.98-.16-1.26.25l-36.51,54.94c-.28.42-.16.98.25,1.26s.98.16,1.26-.25Z"/>
              <path class="cls-8" d="m427.3,417.21l84.84-127.65c.28-.42.16-.98-.25-1.26-.42-.28-.98-.16-1.26.25l-84.84,127.65c-.28.42-.16.98.25,1.26s.98.16,1.26-.25Z"/>
              <path class="cls-8" d="m528.81,334.34c.28-.42.16-.98-.25-1.26l-12.28-8.16c-.42-.28-.98-.16-1.26.25-.28.42-.16.98.25,1.26l12.28,8.16c.42.28.98.16,1.26-.25Z"/>
              <path class="cls-8" d="m546.43,307.83c.28-.42.16-.98-.25-1.26l-16.59-11.03c-.42-.28-.98-.16-1.26.25-.28.42-.16.98.25,1.26l16.59,11.03c.42.28.98.16,1.26-.25Z"/>
              <path class="cls-8" d="m503.32,345.82c.28-.42.16-.98-.25-1.26l-12.6-8.38c-.42-.28-.98-.16-1.26.25s-.16.98.25,1.26l12.6,8.38c.42.28.98.16,1.26-.25Z"/>
              <path class="cls-8" d="m477.57,376.39l15.32-23.05c.28-.42.16-.98-.25-1.26s-.98-.16-1.26.25l-15.32,23.05c-.28.42-.16.98.25,1.26.42.28.98.16,1.26-.25Z"/>
              <path class="cls-8" d="m500.36,358.92l6.94-10.45c.28-.42.16-.98-.25-1.26-.42-.28-.98-.16-1.26.25l-6.94,10.45c-1.62,2.43-4.91,3.09-7.34,1.48l-2.59-1.72c-.42-.28-.98-.16-1.26.25-.28.42-.16.98.25,1.26l2.59,1.72c3.26,2.17,7.68,1.28,9.85-1.98Z"/>
              <path class="cls-8" d="m485.77,364.05s0,0,0,0c.27-.42.16-.98-.26-1.25l-6.5-4.24c-.42-.27-.97-.16-1.25.26,0,0,0,0,0,0-.27.42-.16.98.26,1.25l6.5,4.24c.42.27.97.16,1.25-.26Z"/>
              <path class="cls-8" d="m458.77,421.97c.24-.36.19-.85-.13-1.16l-23.38-22.31c-.36-.35-.93-.33-1.28.03-.35.36-.33.93.03,1.28l23.38,22.31c.36.35.93.33,1.28-.03.04-.04.07-.08.1-.12Z"/>
              <path class="cls-8" d="m445.12,418.21s0,0,0,0l13.69-21.06c.27-.42.15-.98-.27-1.25-.42-.27-.97-.15-1.25.26,0,0,0,0,0,0l-13.62,20.96-9.51,8.74c-.37.34-.39.91-.05,1.28.34.37.91.39,1.28.05l9.59-8.82c.05-.05.1-.1.14-.17Z"/>
              <path class="cls-8" d="m480.68,416.04s.05-.08.07-.12c.21-.45.01-.99-.44-1.2l-26.11-12.07c-.45-.21-.99-.01-1.2.44-.21.45-.01.99.44,1.2l26.11,12.07c.41.19.89.05,1.13-.32Z"/>
              <g>
                <rect class="cls-8" x="501.71" y="249.31" width="6.21" height="18.88" transform="translate(999.73 -18.45) rotate(123.61)"/>
                <path class="cls-4" d="m500.95,233.41l-1.04.32c-2.45.75-3.89,3.3-3.26,5.79l1.5,5.94c.92,3.65-.39,7.51-3.34,9.84l-.06.04c-3.28,2.59-5.71,6.1-6.98,10.09l-1.71,5.37c-.41,1.29.93,2.26,2.15,1.4l3.17-2.71c.23-.19.45-.39.66-.6.72-.7,1.87-1.83,2.34-2.28,2.23-2.14,4.29-4.46,6.16-6.93l5.48-7.27c3.25-4.37,3.47-10.46,1.19-15.41l-.46-1c-1.01-2.19-3.49-3.3-5.8-2.59Z"/>
              </g>
              <path class="cls-8" d="m724.32-50.26c.28-.42.16-.98-.25-1.26l-6.03-4.01c-.42-.28-.98-.16-1.26.25l-66.16,99.54c-.28.42-.16.98.25,1.26l5.28,3.51c.42.28.98.16,1.26-.25.28-.42.16-.98-.25-1.26l-4.52-3.01,65.15-98.03,5.28,3.51c.42.28.98.16,1.26-.25Z"/>
              <path class="cls-3" d="m547.48,214.89c3.36-5.06,5.46-9.57,4.69-10.09-.77-.51-4.13,3.17-7.49,8.23-3.36,5.06-5.46,9.57-4.69,10.09.77.51,4.13-3.17,7.49-8.23Z"/>
              <path class="cls-3" d="m407.82,446.05c4.07-6.13,6.75-11.51,5.97-12.03-.77-.51-4.7,4.04-8.77,10.16-4.07,6.13-6.75,11.51-5.97,12.03.77.51,4.7-4.04,8.77-10.16Z"/>
              <path class="cls-3" d="m525.67,270.13c2.91-.34,5.15-1.59,5.01-2.8-.14-1.21-2.61-1.91-5.52-1.57-2.91.34-5.15,1.59-5.01,2.8.14,1.21,2.61,1.91,5.52,1.57Z"/>
              <path class="cls-3" d="m515.13,322.45c2.91-.34,5.15-1.59,5.01-2.8-.14-1.21-2.61-1.91-5.52-1.57-2.91.34-5.15,1.59-5.01,2.8s2.61,1.91,5.52,1.57Z"/>
              <path class="cls-3" d="m502.46,343.04c1.62-.19,2.86-.98,2.77-1.77-.09-.79-1.48-1.28-3.1-1.09-1.62.19-2.86.98-2.77,1.77s1.48,1.28,3.1,1.09Z"/>
              <path class="cls-3" d="m457.07,417.74c2.91-.34,5.15-1.59,5.01-2.8-.14-1.21-2.61-1.91-5.52-1.57-2.91.34-5.15,1.59-5.01,2.8.14,1.21,2.61,1.91,5.52,1.57Z"/>
              <ellipse class="cls-3" cx="436.83" cy="424.68" rx="4.19" ry="1.98" transform="translate(-46.35 53.59) rotate(-6.67)"/>
              <path class="cls-3" d="m604.97,195.81c1.99-.23,3.51-1.24,3.39-2.25-.12-1.01-1.83-1.64-3.82-1.41-1.99.23-3.51,1.24-3.39,2.25.12,1.01,1.83,1.64,3.82,1.41Z"/>
            </g>
          </g>
        </g>
      </g>
    </g>
  </g>
</svg>