<?xml version="1.0" encoding="UTF-8"?>
<svg xmlns="http://www.w3.org/2000/svg" xmlns:xlink="http://www.w3.org/1999/xlink" viewBox="0 0 657.6 597.49">
  <defs>
    <style>
      .flautas-1 {
        fill: #f1f1f190;
      }

      .flautas-1, .flautas-2, .flautas-3, .flautas-4, .flautas-5, .flautas-6, .flautas-7, .flautas-8, .flautas-9, .flautas-10, .flautas-11, .flautas-12, .flautas-13, .flautas-14, .flautas-15, .flautas-16, .flautas-17, .flautas-18, .flautas-19, .flautas-20, .flautas-21, .flautas-22, .flautas-23, .flautas-24, .flautas-25, .flautas-26, .flautas-27, .flautas-28, .flautas-29, .flautas-30, .flautas-31, .flautas-32, .flautas-33, .flautas-34, .flautas-35, .flautas-36, .flautas-37, .flautas-38, .flautas-39, .flautas-40, .flautas-41, .flautas-42, .flautas-43, .flautas-44, .flautas-45, .flautas-46, .flautas-47, .flautas-48, .flautas-49, .flautas-50, .flautas-51, .flautas-52, .flautas-53, .flautas-54, .flautas-55, .flautas-56, .flautas-57, .flautas-58, .flautas-59, .flautas-60, .flautas-61, .flautas-62, .flautas-63, .flautas-64, .flautas-65, .flautas-66, .flautas-67, .flautas-68, .flautas-69, .flautas-70, .flautas-71, .flautas-72, .flautas-73 {
        stroke-width: 0px;
      }

      .flautas-2 {
        fill: #f1f1f190;
      }

      .flautas-3 {
        fill: #f1f1f190;
      }

      .flautas-4 {
        fill: #f1f1f190;
      }

      .flautas-5 {
        fill: #f1f1f190;
      }

      .flautas-6 {
        fill: #f1f1f190;
      }

      .flautas-7 {
        fill: #f1f1f190;
      }

      .flautas-8 {
        fill: #f1f1f190;
      }

      .flautas-9 {
        fill: #f1f1f190;
      }

      .flautas-10 {
        fill: #f1f1f190;
      }

      .flautas-11 {
        fill: #f1f1f190;
      }

      .flautas-74 {
        mask: url(#mask-2);
      }

      .flautas-75 {
        isolation: isolate;
      }

      .flautas-12 {
        fill: #f1f1f190;
      }

      .flautas-13 {
        fill: #f1f1f190;
      }

      .flautas-14 {
        fill: #f1f1f190;
      }

      .flautas-76 {
        mask: url(#mask-3);
      }

      .flautas-15 {
        fill: #f1f1f190;
      }

      .flautas-16 {
        fill: #f1f1f190;
      }

      .flautas-17 {
        fill: #f1f1f190;
      }

      .flautas-18 {
        fill: #f1f1f190;
      }

      .flautas-19 {
        fill: #f1f1f190;
      }

      .flautas-20 {
        fill: #f1f1f190;
      }

      .flautas-21 {
        fill: #f1f1f190;
      }

      .flautas-22 {
        fill: #f1f1f190;
      }

      .flautas-23 {
        fill: #f1f1f190;
      }

      .flautas-24 {
        fill: #f1f1f190;
      }

      .flautas-25 {
        fill: #f1f1f190;
      }

      .flautas-26 {
        fill: #f1f1f190;
      }

      .flautas-27 {
        fill: #f1f1f190;
      }

      .flautas-28 {
        fill: #f1f1f190;
      }

      .flautas-29 {
        fill: #f1f1f190;
      }

      .flautas-30 {
        fill: #f1f1f190;
      }

      .flautas-31 {
        fill: #f1f1f190;
      }

      .flautas-32 {
        fill: #f1f1f190;
      }

      .flautas-33 {
        fill: #f1f1f190;
      }

      .flautas-34 {
        fill: #f1f1f190;
      }

      .flautas-35 {
        fill: #f1f1f190;
      }

      .flautas-36 {
        fill: #f1f1f190;
      }

      .flautas-37 {
        fill: #f1f1f190;
      }

      .flautas-38 {
        fill: #f1f1f190;
      }

      .flautas-39 {
        fill: #f1f1f190;
      }

      .flautas-40 {
        fill: #f1f1f190;
      }

      .flautas-41 {
        fill: #f1f1f190;
      }

      .flautas-42 {
        fill: #f1f1f190;
      }

      .flautas-43 {
        fill: #f1f1f190;
      }

      .flautas-44 {
        fill: #f1f1f190;
      }

      .flautas-77 {
        clip-path: url(#clippath);
      }

      .flautas-45 {
        fill: #f1f1f190;
      }

      .flautas-46 {
        fill: #f1f1f190;
      }

      .flautas-47 {
        fill: #f1f1f190;
      }

      .flautas-48 {
        fill: #f1f1f190;
      }

      .flautas-49 {
        fill: #f1f1f190;
      }

      .flautas-50 {
        fill: #f1f1f190;
      }

      .flautas-51 {
        fill: #f1f1f190;
      }

      .flautas-51, .flautas-69 {
        mix-blend-mode: multiply;
      }

      .flautas-52 {
        fill: #f1f1f190;
      }

      .flautas-53 {
        fill: #f1f1f190;
      }

      .flautas-54 {
        fill: #f1f1f190;
      }

      .flautas-55 {
        fill: #f1f1f190;
      }

      .flautas-56 {
        fill: #f1f1f190;
      }

      .flautas-57 {
        fill: #f1f1f190;
      }

      .flautas-58 {
        fill: #f1f1f190;
      }

      .flautas-78 {
        mix-blend-mode: overlay;
      }

      .flautas-59 {
        fill: #f1f1f190;
      }

      .flautas-60 {
        fill: #f1f1f190;
      }

      .flautas-79 {
        filter: url(#luminosity-noclip);
      }

      .flautas-80 {
        mask: url(#mask-1);
      }

      .flautas-81 {
        mask: url(#mask);
      }

      .flautas-61 {
        fill: #f1f1f190;
      }

      .flautas-62 {
        fill: #f1f1f190;
      }

      .flautas-63 {
        fill: #f1f1f190;
      }

      .flautas-64 {
        fill: #f1f1f190;
      }

      .flautas-65 {
        fill: #f1f1f190;
      }

      .flautas-66 {
        fill: #f1f1f190;
      }

      .flautas-67 {
        fill: #f1f1f190;
      }

      .flautas-68 {
        fill: #f1f1f190;
      }

      .flautas-69 {
        fill: #f1f1f190;
      }

      .flautas-70 {
        fill: #f1f1f190;
      }

      .flautas-71 {
        fill: #f1f1f190;
      }

      .flautas-72 {
        fill: #f1f1f190;
      }

      .flautas-73 {
        fill: #f1f1f190;
      }

      .flautas-82 {
        filter: url(#luminosity-noclip-3);
      }
    </style>
    <clipPath id="clippath">
      <rect class="flautas-16" y="0" width="657.6" height="597.49" rx="20.47" ry="20.47"/>
    </clipPath>
    <linearGradient id="linear-gradient" x1="8145.29" y1="4318.26" x2="8145.29" y2="4326.47" gradientTransform="translate(-7999.31 5001.25) rotate(-56.39)" gradientUnits="userSpaceOnUse">
      <stop offset="0" stop-color="#989398"/>
      <stop offset=".31" stop-color="#f8f8f8"/>
      <stop offset=".41" stop-color="#e9e9e9"/>
      <stop offset=".61" stop-color="#c4c2c3"/>
      <stop offset=".88" stop-color="#8c878a"/>
    </linearGradient>
    <linearGradient id="linear-gradient-2" x1="8278.78" y1="4326.45" x2="8278.78" y2="4362.19" gradientTransform="translate(-7999.31 5001.25) rotate(-56.39)" gradientUnits="userSpaceOnUse">
      <stop offset="0" stop-color="#989398"/>
      <stop offset=".31" stop-color="#f8f8f8"/>
      <stop offset=".38" stop-color="#e9e9e9"/>
      <stop offset=".51" stop-color="#c4c2c3"/>
      <stop offset=".68" stop-color="#8c878a"/>
      <stop offset="1" stop-color="#151413"/>
    </linearGradient>
    <filter id="luminosity-noclip" x="-101.44" y="65.47" width="597.21" height="886.33" color-interpolation-filters="sRGB" filterUnits="userSpaceOnUse">
      <feFlood flood-color="#fff" result="bg"/>
      <feBlend in="SourceGraphic" in2="bg"/>
    </filter>
    <filter id="luminosity-noclip-2" x="-101.44" y="-14615.79" width="597.21" height="32766" color-interpolation-filters="sRGB" filterUnits="userSpaceOnUse">
      <feFlood flood-color="#fff" result="bg"/>
      <feBlend in="SourceGraphic" in2="bg"/>
    </filter>
    <mask id="mask-1" x="-101.44" y="-14615.79" width="597.21" height="32766" maskUnits="userSpaceOnUse"/>
    <linearGradient id="linear-gradient-3" x1="8278.49" y1="4331.09" x2="8278.49" y2="4347.79" gradientTransform="translate(-7999.31 5001.25) rotate(-56.39)" gradientUnits="userSpaceOnUse">
      <stop offset="0" stop-color="#fff"/>
      <stop offset=".07" stop-color="#f8f8f8"/>
      <stop offset=".17" stop-color="#e6e6e6"/>
      <stop offset=".28" stop-color="#c7c7c7"/>
      <stop offset=".41" stop-color="#9d9d9d"/>
      <stop offset=".55" stop-color="#676767"/>
      <stop offset=".69" stop-color="#262626"/>
      <stop offset=".77" stop-color="#000"/>
    </linearGradient>
    <mask id="mask" x="-101.44" y="65.47" width="597.21" height="886.33" maskUnits="userSpaceOnUse">
      <g class="flautas-79">
        <g class="flautas-80">
          <path class="flautas-69" d="m490.19,67.73c-4.72-3.13-10.36-2.96-13.07.27l-.08-.06L-100.51,936.88l.04.03c-2.35,3.76-.3,9.35,4.63,12.62,4.9,3.29,10.88,2.97,13.4-.61l.05.05L495.13,79.97l-.09-.06c1.94-3.74-.12-9.01-4.86-12.19Z"/>
        </g>
      </g>
    </mask>
    <linearGradient id="linear-gradient-4" x1="8278.49" y1="4331.09" x2="8278.49" y2="4347.79" gradientTransform="translate(-7999.31 5001.25) rotate(-56.39)" gradientUnits="userSpaceOnUse">
      <stop offset="0" stop-color="#fff"/>
      <stop offset=".77" stop-color="#fff"/>
    </linearGradient>
    <linearGradient id="linear-gradient-5" x1="8482.83" y1="4342.77" x2="8504.35" y2="4342.77" xlink:href="#linear-gradient-2"/>
    <linearGradient id="linear-gradient-6" x1="8799.73" y1="4344.92" x2="8808.3" y2="4344.92" xlink:href="#linear-gradient-2"/>
    <linearGradient id="linear-gradient-7" x1="8418.37" y1="4342.77" x2="8437.04" y2="4342.77" xlink:href="#linear-gradient-2"/>
    <linearGradient id="linear-gradient-8" x1="8167.15" y1="4319.11" x2="8167.15" y2="4333.25" gradientTransform="translate(-7999.31 5001.25) rotate(-56.39)" gradientUnits="userSpaceOnUse">
      <stop offset=".15" stop-color="#989398"/>
      <stop offset=".52" stop-color="#f8f8f8"/>
      <stop offset=".59" stop-color="#e9e9e9"/>
      <stop offset=".71" stop-color="#c4c2c3"/>
      <stop offset=".88" stop-color="#8c878a"/>
    </linearGradient>
    <linearGradient id="linear-gradient-9" x1="8168.32" y1="4340.97" x2="8165.55" y2="4307.85" xlink:href="#linear-gradient-8"/>
    <linearGradient id="linear-gradient-10" x1="8167.13" y1="4313.66" x2="8167.13" y2="4329.55" xlink:href="#linear-gradient-8"/>
    <linearGradient id="linear-gradient-11" x1="8167.13" y1="4306.67" x2="8167.13" y2="4344.54" xlink:href="#linear-gradient-8"/>
    <linearGradient id="linear-gradient-12" x1="8205.57" y1="4319.14" x2="8205.57" y2="4333.24" xlink:href="#linear-gradient-8"/>
    <linearGradient id="linear-gradient-13" x1="8206.75" y1="4340.98" x2="8203.98" y2="4307.86" xlink:href="#linear-gradient-8"/>
    <linearGradient id="linear-gradient-14" x1="8205.59" y1="4313.64" x2="8205.59" y2="4329.53" xlink:href="#linear-gradient-8"/>
    <linearGradient id="linear-gradient-15" x1="8205.59" y1="4306.67" x2="8205.59" y2="4344.53" xlink:href="#linear-gradient-8"/>
    <linearGradient id="linear-gradient-16" x1="8254.52" y1="4319.14" x2="8254.52" y2="4333.24" xlink:href="#linear-gradient-8"/>
    <linearGradient id="linear-gradient-17" x1="8255.69" y1="4340.97" x2="8252.93" y2="4307.87" xlink:href="#linear-gradient-8"/>
    <linearGradient id="linear-gradient-18" x1="8254.5" y1="4313.64" x2="8254.5" y2="4329.55" xlink:href="#linear-gradient-8"/>
    <linearGradient id="linear-gradient-19" x1="8254.5" y1="4306.7" x2="8254.5" y2="4344.52" xlink:href="#linear-gradient-8"/>
    <linearGradient id="linear-gradient-20" x1="8309.65" y1="4319.11" x2="8309.65" y2="4333.25" xlink:href="#linear-gradient-8"/>
    <linearGradient id="linear-gradient-21" x1="8310.82" y1="4340.98" x2="8308.06" y2="4307.89" xlink:href="#linear-gradient-8"/>
    <linearGradient id="linear-gradient-22" x1="8309.64" y1="4313.63" x2="8309.64" y2="4329.55" xlink:href="#linear-gradient-8"/>
    <linearGradient id="linear-gradient-23" x1="8309.66" y1="4306.64" x2="8309.66" y2="4344.58" xlink:href="#linear-gradient-8"/>
    <linearGradient id="linear-gradient-24" x1="8680.49" y1="4313.63" x2="8680.49" y2="4342" xlink:href="#linear-gradient-2"/>
    <linearGradient id="linear-gradient-25" x1="8680.48" y1="4325.3" x2="8680.48" y2="4341.69" xlink:href="#linear-gradient-2"/>
    <linearGradient id="linear-gradient-26" x1="8800.38" y1="4459.1" x2="8800.38" y2="4467.31" xlink:href="#linear-gradient"/>
    <linearGradient id="linear-gradient-27" x1="8529.82" y1="4453.28" x2="8529.82" y2="4466.19" xlink:href="#linear-gradient"/>
    <linearGradient id="linear-gradient-28" x1="8574.09" y1="4501.12" x2="8574.09" y2="4462.63" xlink:href="#linear-gradient-8"/>
    <linearGradient id="linear-gradient-29" x1="8574.1" y1="4469.05" x2="8574.1" y2="4445.95" xlink:href="#linear-gradient"/>
    <linearGradient id="linear-gradient-30" x1="8524.57" y1="4501.11" x2="8524.57" y2="4462.62" xlink:href="#linear-gradient-8"/>
    <linearGradient id="linear-gradient-31" x1="8524.58" y1="4469.05" x2="8524.58" y2="4445.95" xlink:href="#linear-gradient"/>
    <linearGradient id="linear-gradient-32" x1="8470.99" y1="4501.09" x2="8470.99" y2="4462.63" xlink:href="#linear-gradient-8"/>
    <linearGradient id="linear-gradient-33" x1="8470.98" y1="4469.03" x2="8470.98" y2="4445.93" xlink:href="#linear-gradient"/>
    <linearGradient id="linear-gradient-34" x1="8933.87" y1="4467.29" x2="8933.87" y2="4503.03" xlink:href="#linear-gradient-2"/>
    <filter id="luminosity-noclip-3" x="378.46" y="-402.16" width="597.21" height="886.33" color-interpolation-filters="sRGB" filterUnits="userSpaceOnUse">
      <feFlood flood-color="#fff" result="bg"/>
      <feBlend in="SourceGraphic" in2="bg"/>
    </filter>
    <filter id="luminosity-noclip-4" x="378.46" y="-14615.79" width="597.21" height="32766" color-interpolation-filters="sRGB" filterUnits="userSpaceOnUse">
      <feFlood flood-color="#fff" result="bg"/>
      <feBlend in="SourceGraphic" in2="bg"/>
    </filter>
    <mask id="mask-3" x="378.46" y="-14615.79" width="597.21" height="32766" maskUnits="userSpaceOnUse"/>
    <linearGradient id="linear-gradient-35" x1="8933.58" y1="4471.93" x2="8933.58" y2="4488.63" xlink:href="#linear-gradient-3"/>
    <mask id="mask-2" x="378.46" y="-402.16" width="597.21" height="886.33" maskUnits="userSpaceOnUse">
      <g class="flautas-82">
        <g class="flautas-76">
          <path class="flautas-51" d="m970.09-399.9c-4.72-3.13-10.36-2.96-13.07.27l-.08-.06L379.39,469.25l.04.03c-2.35,3.76-.3,9.35,4.63,12.62,4.9,3.29,10.88,2.97,13.4-.61l.05.05L975.03-387.66l-.09-.06c1.94-3.74-.12-9.01-4.86-12.19Z"/>
        </g>
      </g>
    </mask>
    <linearGradient id="linear-gradient-36" x1="8933.58" y1="4471.93" x2="8933.58" y2="4488.63" xlink:href="#linear-gradient-4"/>
    <linearGradient id="linear-gradient-37" x1="8427.31" y1="4483.59" x2="8436.64" y2="4483.59" xlink:href="#linear-gradient-2"/>
    <linearGradient id="linear-gradient-38" x1="8602.03" y1="4483.59" x2="8610.74" y2="4483.59" xlink:href="#linear-gradient-2"/>
    <linearGradient id="linear-gradient-39" x1="8630.01" y1="4459.98" x2="8630.01" y2="4474.07" xlink:href="#linear-gradient-8"/>
    <linearGradient id="linear-gradient-40" x1="8631.18" y1="4481.82" x2="8628.42" y2="4448.73" xlink:href="#linear-gradient-8"/>
    <linearGradient id="linear-gradient-41" x1="8630.01" y1="4451.38" x2="8630.01" y2="4467.27" xlink:href="#linear-gradient-8"/>
    <linearGradient id="linear-gradient-42" x1="8630.01" y1="4447.48" x2="8630.01" y2="4485.4" xlink:href="#linear-gradient-8"/>
    <linearGradient id="linear-gradient-43" x1="8668.47" y1="4459.98" x2="8668.47" y2="4474.07" xlink:href="#linear-gradient-8"/>
    <linearGradient id="linear-gradient-44" x1="8669.64" y1="4481.8" x2="8666.87" y2="4448.7" xlink:href="#linear-gradient-8"/>
    <linearGradient id="linear-gradient-45" x1="8668.46" y1="4454.47" x2="8668.46" y2="4470.38" xlink:href="#linear-gradient-8"/>
    <linearGradient id="linear-gradient-46" x1="8668.46" y1="4447.49" x2="8668.46" y2="4485.41" xlink:href="#linear-gradient-8"/>
    <linearGradient id="linear-gradient-47" x1="8706.89" y1="4459.98" x2="8706.89" y2="4474.07" xlink:href="#linear-gradient-8"/>
    <linearGradient id="linear-gradient-48" x1="8708.07" y1="4481.83" x2="8705.3" y2="4448.68" xlink:href="#linear-gradient-8"/>
    <linearGradient id="linear-gradient-49" x1="8706.9" y1="4454.45" x2="8706.9" y2="4470.38" xlink:href="#linear-gradient-8"/>
    <linearGradient id="linear-gradient-50" x1="8706.9" y1="4447.5" x2="8706.9" y2="4485.38" xlink:href="#linear-gradient-8"/>
    <linearGradient id="linear-gradient-51" x1="8745.34" y1="4459.95" x2="8745.34" y2="4474.07" xlink:href="#linear-gradient-8"/>
    <linearGradient id="linear-gradient-52" x1="8746.5" y1="4481.78" x2="8743.74" y2="4448.73" xlink:href="#linear-gradient-8"/>
    <linearGradient id="linear-gradient-53" x1="8745.34" y1="4454.44" x2="8745.34" y2="4470.38" xlink:href="#linear-gradient-8"/>
    <linearGradient id="linear-gradient-54" x1="8745.32" y1="4447.48" x2="8745.32" y2="4485.42" xlink:href="#linear-gradient-8"/>
    <linearGradient id="linear-gradient-55" x1="8783.78" y1="4459.97" x2="8783.78" y2="4474.09" xlink:href="#linear-gradient-8"/>
    <linearGradient id="linear-gradient-56" x1="8784.96" y1="4481.84" x2="8782.19" y2="4448.68" xlink:href="#linear-gradient-8"/>
    <linearGradient id="linear-gradient-57" x1="8783.78" y1="4454.48" x2="8783.78" y2="4470.37" xlink:href="#linear-gradient-8"/>
    <linearGradient id="linear-gradient-58" x1="8783.78" y1="4447.46" x2="8783.78" y2="4485.44" xlink:href="#linear-gradient-8"/>
    <linearGradient id="linear-gradient-59" x1="8822.23" y1="4459.95" x2="8822.23" y2="4474.09" xlink:href="#linear-gradient-8"/>
    <linearGradient id="linear-gradient-60" x1="8823.41" y1="4481.81" x2="8820.64" y2="4448.69" xlink:href="#linear-gradient-8"/>
    <linearGradient id="linear-gradient-61" x1="8822.22" y1="4454.5" x2="8822.22" y2="4470.39" xlink:href="#linear-gradient-8"/>
    <linearGradient id="linear-gradient-62" x1="8822.22" y1="4447.5" x2="8822.22" y2="4485.38" xlink:href="#linear-gradient-8"/>
    <linearGradient id="linear-gradient-63" x1="8860.66" y1="4459.98" x2="8860.66" y2="4474.07" xlink:href="#linear-gradient-8"/>
    <linearGradient id="linear-gradient-64" x1="8861.84" y1="4481.82" x2="8859.07" y2="4448.7" xlink:href="#linear-gradient-8"/>
    <linearGradient id="linear-gradient-65" x1="8860.68" y1="4454.48" x2="8860.68" y2="4470.37" xlink:href="#linear-gradient-8"/>
    <linearGradient id="linear-gradient-66" x1="8860.68" y1="4447.51" x2="8860.68" y2="4485.37" xlink:href="#linear-gradient-8"/>
    <linearGradient id="linear-gradient-67" x1="8909.61" y1="4459.98" x2="8909.61" y2="4474.08" xlink:href="#linear-gradient-8"/>
    <linearGradient id="linear-gradient-68" x1="8910.78" y1="4481.81" x2="8908.02" y2="4448.71" xlink:href="#linear-gradient-8"/>
    <linearGradient id="linear-gradient-69" x1="8909.59" y1="4454.47" x2="8909.59" y2="4470.39" xlink:href="#linear-gradient-8"/>
    <linearGradient id="linear-gradient-70" x1="8909.59" y1="4447.54" x2="8909.59" y2="4485.36" xlink:href="#linear-gradient-8"/>
    <linearGradient id="linear-gradient-71" x1="8558.41" y1="4461.37" x2="8582.17" y2="4492.68" xlink:href="#linear-gradient-2"/>
    <linearGradient id="linear-gradient-72" x1="8553.55" y1="4462.87" x2="8589.5" y2="4496.16" xlink:href="#linear-gradient"/>
  </defs>
  <g class="flautas-75">
    <g id="flautas_2" data-name="flautas 2">
      <g id="Camada_1" data-name="Camada 1">
        <g class="flautas-78">
          <g class="flautas-77">
            <g>
              <path class="flautas-6" d="m216.39,456.47c1.79,1.16,1.34,4.99-.98,8.5L16.5,764.21c-2.31,3.49-5.64,5.35-7.45,4.19h0c-1.79-1.19-1.35-5,1-8.51l198.85-299.26c2.36-3.46,5.69-5.36,7.48-4.15h0Z"/>
              <path class="flautas-39" d="m498.93,63.04c-7.8-5.19-15.97-6.58-18.92-3.47l-.15-.1L-106.88,942.31h.04c-2.28,3.84,2.28,11.23,10.35,16.58,8.1,5.38,16.64,6.72,19.29,3.15l.07.05L509.63,79.24l-.17-.11c1.69-3.95-2.76-10.92-10.53-16.09Z"/>
              <g class="flautas-81">
                <path class="flautas-72" d="m490.19,67.73c-4.72-3.13-10.36-2.96-13.07.27l-.08-.06L-100.51,936.88l.04.03c-2.35,3.76-.3,9.35,4.63,12.62,4.9,3.29,10.88,2.97,13.4-.61l.05.05L495.13,79.97l-.09-.06c1.94-3.74-.12-9.01-4.86-12.19Z"/>
              </g>
              <path class="flautas-15" d="m335.37,338.33c2.04,1.35,2.27,4.62.47,7.31h0c-1.77,2.67-4.87,3.73-6.9,2.4l-29.51-19.63c-2.03-1.33-2.24-4.6-.46-7.29h0c1.78-2.68,4.87-3.75,6.91-2.42l29.49,19.63Z"/>
              <path class="flautas-11" d="m507.34,80.36c1.83,1.24,2.44,3.57,1.33,5.25h0c-1.16,1.69-3.52,2.04-5.34.81l-26.67-17.71c-1.82-1.2-2.4-3.56-1.29-5.24h0c1.11-1.67,3.5-2.03,5.34-.81l26.63,17.71Z"/>
              <path class="flautas-42" d="m298.64,393.63c2.03,1.34,2.23,4.62.45,7.3h0c-1.78,2.68-4.88,3.75-6.92,2.42l-29.49-19.63c-2.04-1.33-2.25-4.61-.47-7.29h0c1.78-2.69,4.88-3.75,6.92-2.39l29.51,19.6Z"/>
              <g>
                <g>
                  <path class="flautas-53" d="m130.76,585.58c-2.48.61-5.64,3.26-8.25,7.14-2.55,3.84-3.76,7.83-3.4,10.34l-.59.91,1.78,1.16c2.27,1.52,7.04-1.55,10.57-6.87s4.55-10.93,2.24-12.43l-1.75-1.18-.61.92Z"/>
                  <path class="flautas-45" d="m131.37,584.66c2.28,1.53,1.27,7.1-2.26,12.42s-8.31,8.41-10.59,6.9c-2.31-1.53-1.29-7.1,2.23-12.44,3.55-5.33,8.3-8.42,10.62-6.89Z"/>
                </g>
                <g>
                  <path class="flautas-70" d="m127.73,581.96c-2.74.68-6.34,3.68-9.25,8.07-2.91,4.36-4.3,8.86-3.82,11.65l-.71,1.06,1.95,1.31c2.63,1.74,8-1.78,11.96-7.76,4.02-6.03,5.16-12.3,2.55-14.05l-2-1.33-.69,1.05Z"/>
                  <path class="flautas-14" d="m128.42,580.92c2.61,1.75,1.46,8.02-2.52,14.04s-9.37,9.5-11.94,7.79c-2.62-1.76-1.47-8.01,2.53-14.04,4-6.04,9.34-9.51,11.94-7.79Z"/>
                </g>
              </g>
              <g>
                <g>
                  <path class="flautas-2" d="m152.03,553.58c-2.45.59-5.65,3.25-8.23,7.14-2.56,3.87-3.77,7.84-3.37,10.34l-.62.91,1.74,1.18c2.33,1.54,7.06-1.55,10.6-6.9,3.52-5.35,4.55-10.9,2.25-12.43l-1.75-1.16-.61.92Z"/>
                  <path class="flautas-25" d="m152.64,552.66c2.3,1.5,1.28,7.08-2.25,12.43-3.53,5.32-8.31,8.41-10.59,6.88-2.3-1.54-1.32-7.08,2.24-12.41,3.55-5.35,8.3-8.44,10.6-6.89Z"/>
                </g>
                <g>
                  <path class="flautas-38" d="m149.02,549.96c-2.78.67-6.38,3.68-9.29,8.06-2.89,4.36-4.25,8.85-3.82,11.62l-.7,1.05,2,1.35c2.61,1.71,7.94-1.76,11.92-7.79,4.03-6.02,5.17-12.32,2.57-14.04l-1.98-1.31-.7,1.06Z"/>
                  <path class="flautas-13" d="m149.73,548.9c2.6,1.75,1.46,8.02-2.56,14.05-3.98,6.03-9.33,9.5-11.95,7.75-2.58-1.71-1.46-7.99,2.55-14.02,3.99-6.02,9.36-9.51,11.96-7.78Z"/>
                </g>
              </g>
              <g>
                <g>
                  <path class="flautas-29" d="m179.11,512.8c-2.43.6-5.64,3.26-8.24,7.17-2.55,3.84-3.76,7.83-3.39,10.3l-.61.92,1.77,1.18c2.31,1.53,7.03-1.56,10.59-6.9,3.53-5.3,4.55-10.9,2.24-12.43l-1.75-1.16-.62.91Z"/>
                  <path class="flautas-3" d="m179.74,511.89c2.27,1.54,1.27,7.12-2.27,12.45-3.54,5.3-8.25,8.41-10.58,6.86-2.29-1.5-1.29-7.09,2.26-12.42,3.54-5.34,8.28-8.43,10.6-6.89Z"/>
                </g>
                <g>
                  <path class="flautas-58" d="m176.1,509.19c-2.76.67-6.36,3.67-9.26,8.06-2.91,4.39-4.25,8.85-3.83,11.67l-.7,1.06,1.98,1.31c2.62,1.73,7.97-1.76,11.95-7.77,4.02-6.03,5.16-12.31,2.55-14.04l-1.98-1.31-.7,1.02Z"/>
                  <path class="flautas-4" d="m176.8,508.17c2.6,1.72,1.47,8-2.54,14.03-4.02,6.03-9.36,9.51-11.96,7.78-2.61-1.73-1.47-8.03,2.56-14.03,3.98-6.05,9.32-9.51,11.93-7.78Z"/>
                </g>
              </g>
              <g>
                <g>
                  <path class="flautas-37" d="m209.64,466.9c-2.44.59-5.62,3.25-8.25,7.13-2.56,3.87-3.76,7.86-3.36,10.32l-.64.94,1.77,1.18c2.29,1.52,7.05-1.57,10.6-6.89,3.54-5.34,4.54-10.92,2.24-12.46l-1.75-1.14-.61.92Z"/>
                  <path class="flautas-10" d="m210.25,465.98c2.28,1.53,1.29,7.09-2.25,12.43-3.55,5.32-8.31,8.41-10.61,6.88-2.26-1.54-1.28-7.09,2.27-12.41,3.56-5.37,8.29-8.44,10.59-6.9Z"/>
                </g>
                <g>
                  <path class="flautas-30" d="m206.62,463.28c-2.76.68-6.38,3.68-9.28,8.05s-4.28,8.85-3.82,11.65l-.7,1.06,1.97,1.34c2.61,1.69,7.96-1.79,11.96-7.79,3.99-6.03,5.16-12.31,2.55-14.05l-1.98-1.31-.7,1.05Z"/>
                  <path class="flautas-26" d="m207.32,462.23c2.6,1.72,1.48,8-2.53,14.05-4.02,6-9.37,9.49-11.96,7.76-2.6-1.72-1.47-8.01,2.54-14.03,4-6.04,9.35-9.52,11.96-7.79Z"/>
                </g>
              </g>
              <path class="flautas-55" d="m378.31,218.58s-5.69.88-1.82-4.96c3.85-5.77,62.75-94.43,62.75-94.43,0,0,3.45-5.14,5.18-2.14,0,0-3.66,50.74-66.11,101.54Z"/>
              <path class="flautas-27" d="m376.37,217.29s-5.7.87-1.84-4.94c3.89-5.83,62.78-94.43,62.78-94.43,0,0,3.43-5.17,5.15-2.18,0,0-3.64,50.75-66.09,101.55Z"/>
            </g>
            <g>
              <path class="flautas-56" d="m696.28-11.15c1.79,1.16,1.34,4.99-.98,8.5l-198.9,299.23c-2.31,3.49-5.64,5.35-7.45,4.19h0c-1.79-1.19-1.35-5,1-8.51L688.8-7c2.36-3.46,5.69-5.36,7.48-4.15h0Z"/>
              <path class="flautas-46" d="m479.36,308.37c1.51,1,2.01,2.91,1.13,4.25l-76.11,114.48c-.89,1.35-2.81,1.6-4.35.62h0c-1.5-1.02-1.97-2.92-1.1-4.26l76.08-114.46c.89-1.34,2.83-1.63,4.35-.62h0Z"/>
              <g>
                <path class="flautas-67" d="m478.32,323.01c6.71,4.45,8.53,13.54,4.1,20.25-4.49,6.74-13.56,8.53-20.3,4.07-6.68-4.45-8.52-13.55-4.08-20.24,4.47-6.75,13.56-8.57,20.28-4.08Z"/>
                <path class="flautas-64" d="m479.08,324.6c6.27,4.19,8,12.66,3.8,18.99-4.18,6.3-12.67,7.99-18.97,3.82-6.32-4.19-8.02-12.68-3.83-18.99,4.17-6.29,12.66-8,18.99-3.83Z"/>
              </g>
              <g>
                <path class="flautas-60" d="m450.9,364.25c6.72,4.46,8.55,13.53,4.09,20.25-4.47,6.73-13.55,8.55-20.27,4.06-6.74-4.47-8.54-13.55-4.1-20.25,4.47-6.69,13.54-8.54,20.27-4.06Z"/>
                <path class="flautas-17" d="m451.65,365.83c6.3,4.17,8.01,12.71,3.83,18.99-4.18,6.28-12.69,8-19,3.82-6.28-4.16-7.99-12.68-3.8-18.97,4.17-6.29,12.66-8,18.97-3.84Z"/>
              </g>
              <g>
                <path class="flautas-34" d="m421.26,408.86c6.68,4.49,8.54,13.54,4.08,20.26-4.46,6.73-13.55,8.54-20.28,4.1-6.72-4.45-8.52-13.57-4.07-20.27,4.46-6.74,13.52-8.54,20.27-4.09Z"/>
                <path class="flautas-5" d="m421.98,410.48c6.3,4.18,8.01,12.67,3.82,18.96-4.18,6.31-12.66,8-18.95,3.83-6.32-4.19-8.03-12.68-3.84-19,4.19-6.29,12.68-8.01,18.97-3.8Z"/>
              </g>
              <path class="flautas-21" d="m978.82-404.59c-7.8-5.19-15.97-6.58-18.92-3.47l-.15-.1L373.01,474.68h.04c-2.28,3.84,2.28,11.23,10.35,16.58,8.1,5.38,16.64,6.72,19.29,3.15l.07.05L989.53-388.38l-.17-.11c1.69-3.95-2.76-10.92-10.53-16.09Z"/>
              <g class="flautas-74">
                <path class="flautas-49" d="m970.09-399.9c-4.72-3.13-10.36-2.96-13.07.27l-.08-.06L379.39,469.25l.04.03c-2.35,3.76-.3,9.35,4.63,12.62,4.9,3.29,10.88,2.97,13.4-.61l.05.05L975.03-387.66l-.09-.06c1.94-3.74-.12-9.01-4.86-12.19Z"/>
              </g>
              <path class="flautas-73" d="m418.02,468.44c2.03,1.31,2.69,3.92,1.47,5.76h0c-1.22,1.84-3.87,2.23-5.89.88l-29.5-19.61c-2.05-1.34-2.7-3.94-1.48-5.78h0c1.21-1.83,3.88-2.2,5.9-.86l29.5,19.61Z"/>
              <path class="flautas-1" d="m515.06,322.41c2.03,1.34,2.69,3.94,1.49,5.75h0c-1.23,1.86-3.88,2.24-5.95.9l-29.46-19.62c-2.04-1.35-2.72-3.94-1.5-5.78h0c1.22-1.84,3.88-2.24,5.91-.88l29.49,19.63Z"/>
              <g>
                <g>
                  <path class="flautas-43" d="m504.24,278.08c-2.42.55-5.63,3.23-8.21,7.11-2.57,3.89-3.77,7.84-3.39,10.34l-.61.92,1.73,1.15c2.35,1.56,7.07-1.53,10.61-6.88,3.54-5.34,4.57-10.89,2.25-12.43l-1.73-1.15-.64.94Z"/>
                  <path class="flautas-23" d="m504.88,277.13c2.28,1.51,1.29,7.09-2.26,12.42-3.57,5.35-8.28,8.4-10.6,6.89-2.31-1.53-1.29-7.09,2.28-12.45,3.53-5.33,8.25-8.41,10.58-6.87Z"/>
                </g>
                <g>
                  <path class="flautas-22" d="m498.64,272.68c-2.75.71-6.34,3.7-9.25,8.07-2.91,4.39-4.29,8.86-3.83,11.66l-.7,1.06,1.97,1.31c2.6,1.72,7.97-1.76,11.95-7.77,4-6.02,5.14-12.28,2.56-14.03l-2-1.32-.7,1.02Z"/>
                  <path class="flautas-12" d="m499.34,271.65c2.61,1.71,1.47,8.01-2.53,14.04-4.02,6.03-9.36,9.51-11.96,7.78-2.59-1.74-1.45-8.03,2.54-14.05,3.99-6.02,9.37-9.52,11.95-7.77Z"/>
                </g>
              </g>
              <g>
                <g>
                  <path class="flautas-28" d="m525.54,246.06c-2.46.58-5.64,3.23-8.23,7.11-2.57,3.87-3.76,7.87-3.39,10.32l-.61.92,1.76,1.17c2.3,1.53,7.03-1.53,10.56-6.86,3.58-5.37,4.58-10.92,2.27-12.47l-1.76-1.17-.6.97Z"/>
                  <path class="flautas-61" d="m526.14,245.08c2.3,1.54,1.27,7.12-2.25,12.43-3.57,5.36-8.3,8.42-10.59,6.9s-1.32-7.08,2.23-12.41c3.55-5.35,8.3-8.42,10.6-6.92Z"/>
                </g>
                <g>
                  <path class="flautas-41" d="m522.52,242.45c-2.75.63-6.38,3.65-9.27,8.01-2.91,4.36-4.28,8.85-3.84,11.7l-.71,1.02,2,1.32c2.6,1.72,7.95-1.77,11.95-7.77,4.03-6.05,5.15-12.31,2.56-14.05l-1.96-1.32-.73,1.09Z"/>
                  <path class="flautas-65" d="m523.24,241.35c2.59,1.71,1.45,8.04-2.55,14.04-4.01,6.03-9.36,9.52-11.99,7.78-2.61-1.73-1.46-8,2.56-14.03,4-6.04,9.36-9.48,11.98-7.79Z"/>
                </g>
              </g>
              <g>
                <g>
                  <path class="flautas-54" d="m546.79,214.03c-2.44.61-5.63,3.24-8.21,7.13-2.59,3.88-3.8,7.86-3.37,10.34l-.64.93,1.75,1.16c2.3,1.53,7.05-1.56,10.6-6.89,3.55-5.33,4.55-10.9,2.26-12.42l-1.77-1.17-.62.94Z"/>
                  <path class="flautas-50" d="m547.41,213.09c2.32,1.54,1.31,7.1-2.23,12.44-3.55,5.33-8.31,8.41-10.6,6.89s-1.3-7.12,2.24-12.43c3.56-5.37,8.28-8.43,10.59-6.9Z"/>
                </g>
                <g>
                  <path class="flautas-52" d="m543.79,210.38c-2.76.68-6.35,3.7-9.29,8.07-2.89,4.36-4.27,8.87-3.8,11.65l-.7,1.05,1.98,1.31c2.59,1.74,7.93-1.74,11.95-7.77,4.02-6.03,5.16-12.34,2.54-14.03l-1.99-1.34-.7,1.05Z"/>
                  <path class="flautas-33" d="m544.48,209.33c2.61,1.77,1.45,8.04-2.53,14.05s-9.37,9.5-11.95,7.77c-2.62-1.7-1.49-7.99,2.53-14.01,4-6.04,9.38-9.51,11.95-7.81Z"/>
                </g>
              </g>
              <g>
                <g>
                  <path class="flautas-59" d="m568.1,181.99c-2.46.61-5.66,3.26-8.25,7.14-2.56,3.86-3.78,7.86-3.37,10.36l-.61.9,1.76,1.17c2.31,1.53,7.03-1.53,10.58-6.88,3.56-5.35,4.55-10.9,2.24-12.43l-1.76-1.14-.59.89Z"/>
                  <path class="flautas-40" d="m568.69,181.1c2.34,1.51,1.3,7.05-2.27,12.41-3.53,5.35-8.26,8.4-10.56,6.88-2.31-1.53-1.31-7.1,2.24-12.43,3.55-5.33,8.28-8.41,10.58-6.86Z"/>
                </g>
                <g>
                  <path class="flautas-47" d="m565.08,178.38c-2.77.69-6.39,3.69-9.29,8.04-2.89,4.4-4.27,8.88-3.82,11.68l-.71,1.04,2,1.32c2.6,1.72,7.94-1.78,11.96-7.8,4-6,5.14-12.28,2.54-14.03l-2.01-1.31-.67,1.04Z"/>
                  <path class="flautas-31" d="m565.75,177.33c2.63,1.74,1.48,8.02-2.5,14.03-4.03,6.05-9.38,9.51-11.99,7.78-2.58-1.71-1.47-8.01,2.56-14.03,4.02-6.03,9.36-9.53,11.94-7.78Z"/>
                </g>
              </g>
              <g>
                <g>
                  <path class="flautas-32" d="m589.36,149.96c-2.44.62-5.64,3.26-8.22,7.16s-3.79,7.84-3.4,10.34l-.61.9,1.75,1.16c2.33,1.54,7.06-1.53,10.61-6.85,3.54-5.35,4.54-10.92,2.24-12.45l-1.75-1.16-.62.89Z"/>
                  <path class="flautas-68" d="m589.98,149.07c2.29,1.52,1.28,7.08-2.23,12.44-3.57,5.32-8.31,8.41-10.62,6.86-2.27-1.52-1.29-7.1,2.26-12.43,3.54-5.34,8.3-8.42,10.58-6.86Z"/>
                </g>
                <g>
                  <path class="flautas-9" d="m586.36,146.36c-2.76.68-6.37,3.69-9.28,8.06-2.91,4.36-4.29,8.84-3.84,11.65l-.7,1.05,1.98,1.33c2.62,1.72,7.96-1.75,11.97-7.79,4.02-6.01,5.16-12.28,2.55-14.02l-1.99-1.32-.69,1.04Z"/>
                  <path class="flautas-19" d="m587.05,145.32c2.57,1.74,1.47,8.01-2.51,14.02-4.02,6.03-9.39,9.52-12,7.78-2.6-1.75-1.45-8,2.55-14.04,4.01-5.99,9.36-9.48,11.96-7.76Z"/>
                </g>
              </g>
              <g>
                <g>
                  <path class="flautas-36" d="m610.66,117.95c-2.48.61-5.64,3.26-8.25,7.14-2.55,3.84-3.76,7.83-3.4,10.34l-.59.91,1.78,1.16c2.27,1.52,7.04-1.55,10.57-6.87,3.55-5.35,4.55-10.93,2.24-12.43l-1.75-1.18-.61.92Z"/>
                  <path class="flautas-35" d="m611.27,117.03c2.28,1.53,1.27,7.1-2.26,12.42-3.54,5.34-8.31,8.41-10.59,6.9-2.31-1.53-1.29-7.1,2.23-12.44,3.55-5.33,8.3-8.42,10.62-6.89Z"/>
                </g>
                <g>
                  <path class="flautas-57" d="m607.62,114.34c-2.74.68-6.34,3.68-9.25,8.07-2.91,4.36-4.3,8.86-3.82,11.65l-.71,1.06,1.95,1.31c2.63,1.74,8-1.78,11.96-7.76,4.02-6.03,5.16-12.3,2.55-14.05l-2-1.33-.69,1.05Z"/>
                  <path class="flautas-7" d="m608.32,113.29c2.61,1.75,1.46,8.02-2.52,14.04-4,6.04-9.37,9.5-11.94,7.79-2.62-1.76-1.47-8.01,2.53-14.04,4-6.04,9.34-9.51,11.94-7.79Z"/>
                </g>
              </g>
              <g>
                <g>
                  <path class="flautas-20" d="m631.92,85.95c-2.45.59-5.65,3.25-8.23,7.14s-3.77,7.84-3.37,10.34l-.62.91,1.74,1.18c2.33,1.54,7.06-1.55,10.6-6.9,3.52-5.35,4.55-10.9,2.25-12.43l-1.75-1.16-.61.92Z"/>
                  <path class="flautas-66" d="m632.54,85.03c2.3,1.5,1.28,7.08-2.25,12.43-3.53,5.32-8.31,8.41-10.59,6.88-2.3-1.54-1.32-7.08,2.24-12.41,3.55-5.35,8.3-8.44,10.6-6.89Z"/>
                </g>
                <g>
                  <path class="flautas-48" d="m628.92,82.33c-2.78.67-6.38,3.68-9.29,8.06-2.89,4.36-4.25,8.85-3.82,11.62l-.7,1.05,2,1.35c2.61,1.71,7.94-1.76,11.92-7.79,4.03-6.02,5.17-12.32,2.57-14.04l-1.98-1.31-.7,1.06Z"/>
                  <path class="flautas-24" d="m629.62,81.27c2.6,1.75,1.46,8.02-2.56,14.05-3.98,6.03-9.33,9.5-11.95,7.75-2.58-1.71-1.46-7.99,2.55-14.02,3.99-6.02,9.36-9.51,11.96-7.78Z"/>
                </g>
              </g>
              <g>
                <g>
                  <path class="flautas-8" d="m659.01,45.17c-2.43.6-5.64,3.26-8.24,7.17-2.55,3.84-3.76,7.83-3.39,10.3l-.61.92,1.77,1.18c2.31,1.53,7.03-1.56,10.59-6.9,3.53-5.3,4.55-10.9,2.24-12.43l-1.75-1.16-.62.91Z"/>
                  <path class="flautas-62" d="m659.63,44.26c2.27,1.54,1.27,7.12-2.27,12.45-3.54,5.3-8.25,8.41-10.58,6.86-2.29-1.5-1.29-7.09,2.26-12.42,3.54-5.34,8.28-8.43,10.6-6.89Z"/>
                </g>
                <g>
                  <path class="flautas-44" d="m655.99,41.56c-2.76.67-6.36,3.67-9.26,8.06-2.91,4.39-4.25,8.85-3.83,11.67l-.7,1.06,1.98,1.31c2.62,1.73,7.97-1.76,11.95-7.77,4.02-6.03,5.16-12.31,2.55-14.04l-1.98-1.31-.7,1.02Z"/>
                  <path class="flautas-71" d="m656.69,40.54c2.6,1.72,1.47,8-2.54,14.03-4.02,6.03-9.36,9.51-11.96,7.78-2.61-1.73-1.47-8.03,2.56-14.03,3.98-6.05,9.32-9.51,11.93-7.78Z"/>
                </g>
              </g>
              <path class="flautas-18" d="m489.06,329.84c6.21,4.13,7.93,12.53,3.77,18.77-4.17,6.23-12.54,7.9-18.76,3.78-6.22-4.12-7.91-12.55-3.78-18.73,4.13-6.23,12.51-7.92,18.76-3.82Z"/>
              <path class="flautas-63" d="m486.36,329.99c6.23,4.13,7.9,12.54,3.78,18.76-4.15,6.26-12.54,7.94-18.75,3.8-6.24-4.15-7.95-12.53-3.8-18.75,4.13-6.23,12.56-7.93,18.77-3.81Z"/>
            </g>
          </g>
        </g>
      </g>
    </g>
  </g>
</svg>