<?xml version="1.0" encoding="UTF-8"?>
<svg id="Layer_2" data-name="Layer 2" xmlns="http://www.w3.org/2000/svg" viewBox="0 0 18.95 18.78">
  <defs>
    <style>
      .cls-1 {
        fill: #f2921a;
      }
    </style>
  </defs>
  <g id="Camada_1" data-name="Camada 1">
    <g>
      <path class="cls-1" d="m0,5.03c.17-.87.32-1.74.79-2.51C1.87.77,3.55.1,5.49.05c2.65-.06,5.3-.06,7.94,0,1.8.04,3.4.64,4.49,2.19.7,1,.97,2.15.98,3.34.04,2.54.06,5.09,0,7.63-.05,2.05-.76,3.8-2.68,4.84-.89.48-1.86.69-2.85.7-2.61.03-5.23.06-7.84,0-1.96-.04-3.66-.71-4.75-2.48-.47-.77-.63-1.64-.79-2.51V5.03ZM9.48,1.84c-1.3,0-2.6-.02-3.89,0-2.03.05-3.27,1-3.64,2.74-.08.37-.14.75-.14,1.13-.01,2.46-.04,4.92,0,7.37.05,2.45,1.29,3.75,3.64,3.84,2.66.1,5.33.09,8,0,1.96-.07,3.13-1.01,3.51-2.71.07-.3.13-.61.13-.92.01-2.8.17-5.61-.08-8.41-.15-1.66-1.26-2.74-2.91-2.97-1.53-.21-3.08-.06-4.61-.09Z"/>
      <path class="cls-1" d="m14.36,9.43c0,2.64-2.2,4.81-4.89,4.84-2.7.03-4.94-2.2-4.93-4.91,0-2.66,2.28-4.89,4.94-4.84,2.73.05,4.89,2.22,4.88,4.91Zm-1.82-.02c0-1.68-1.38-3.06-3.08-3.07-1.69,0-3.09,1.37-3.1,3.05,0,1.68,1.38,3.06,3.08,3.07,1.69,0,3.09-1.37,3.1-3.05Z"/>
      <path class="cls-1" d="m14.5,3.24c.65,0,1.2.53,1.2,1.17,0,.62-.53,1.14-1.16,1.16-.65.02-1.21-.51-1.22-1.15-.01-.65.52-1.17,1.19-1.18Z"/>
    </g>
  </g>
</svg>