<?xml version="1.0" encoding="UTF-8"?>
<svg id="Layer_2" data-name="Layer 2" xmlns="http://www.w3.org/2000/svg" viewBox="0 0 11.66 16.22">
  <defs>
    <style>
      .cls-1 {
        fill: #fff;
      }
    </style>
  </defs>
  <g id="Camada_1" data-name="Camada 1">
    <path id="Map_Pin_Filed" data-name="Map Pin Filed" class="cls-1" d="m11.66,5.82c0-3.21-2.61-5.82-5.83-5.82S0,2.6,0,5.82c0,1.18.35,2.27.96,3.19h0l.03.04s0,0,0,.01l1.64,2.43,1.36,2.01.54.79h0s1.3,1.93,1.3,1.93l1.3-1.93h0s1.13-1.68,1.13-1.68l.65-.96h0s.13-.2.13-.2c0,0,0,0,0,0l1.63-2.41s0-.01.01-.02l.02-.03h0c.6-.91.96-2.01.96-3.18Zm-5.81,2.69c-1.73,0-3.15-1.41-3.15-3.14s1.41-3.14,3.15-3.14,3.15,1.41,3.15,3.14-1.41,3.14-3.15,3.14Z"/>
  </g>
</svg>