<?xml version="1.0" encoding="UTF-8"?>
<svg id="Layer_2" data-name="Layer 2" xmlns="http://www.w3.org/2000/svg" viewBox="0 0 14.25 14.04">
  <defs>
    <style>
      .cls-1 {
        fill: #fff;
      }
    </style>
  </defs>
  <g id="Camada_1" data-name="Camada 1">
    <path class="cls-1" d="m14.05,12.92l-2.64-2.43c2.06-2.52,1.91-6.26-.44-8.61-1.22-1.21-2.83-1.88-4.55-1.88S3.1.67,1.88,1.88C-.63,4.39-.63,8.47,1.88,10.98c1.22,1.22,2.83,1.88,4.55,1.88,1.5,0,2.92-.51,4.06-1.44l2.64,2.43c.13.13.3.19.46.19s.34-.06.46-.19c.26-.26.26-.67,0-.93Zm-11.25-2.87c-2-2-2-5.24,0-7.24.97-.97,2.25-1.5,3.62-1.5s2.65.53,3.62,1.5c2,2,2,5.24,0,7.24-.97.97-2.25,1.5-3.62,1.5s-2.65-.53-3.62-1.5Z"/>
  </g>
</svg>