<?xml version="1.0" encoding="UTF-8"?>
<svg xmlns="http://www.w3.org/2000/svg" xmlns:xlink="http://www.w3.org/1999/xlink" viewBox="0 0 657.6 597.49">
  <defs>
    <style>
      .cls-1 {
        isolation: isolate;
      }

      .cls-2 {
        opacity: .3;
      }

      .cls-2, .cls-3, .cls-4, .cls-5, .cls-6, .cls-7, .cls-8, .cls-9, .cls-10, .cls-11, .cls-12, .cls-13, .cls-14, .cls-15, .cls-16, .cls-17, .cls-18, .cls-19, .cls-20 {
        stroke-width: 0px;
      }

      .cls-3, .cls-11 {
        opacity: .5;
      }

      .cls-3, .cls-11, .cls-12 {
        fill: #fff;
      }

      .cls-4 {
        fill: #1a1a1a;
      }

      .cls-5 {
        fill: #454542;
      }

      .cls-6 {
        fill: #929090;
      }

      .cls-7 {
        fill: none;
      }

      .cls-8, .cls-13 {
        opacity: .2;
      }

      .cls-9 {
        fill: #595959;
        mix-blend-mode: multiply;
      }

      .cls-10 {
        fill: #616361;
      }

      .cls-11 {
        mix-blend-mode: screen;
      }

      .cls-13 {
        fill: #bdccd4;
      }

      .cls-14 {
        fill: #636362;
      }

      .cls-15 {
        fill: #939191;
      }

      .cls-21 {
        clip-path: url(#clippath);
      }

      .cls-22 {
        mix-blend-mode: overlay;
      }

      .cls-16 {
        fill: #afbbcc;
      }

      .cls-17 {
        fill: #363634;
      }

      .cls-18 {
        fill: #484947;
      }

      .cls-19 {
        fill: #4f2418;
      }

      .cls-20 {
        fill: #a4a4a4;
      }
    </style>
    <clipPath id="clippath">
      <rect class="cls-7" width="657.6" height="597.49" rx="20.47" ry="20.47"/>
    </clipPath>
  </defs>
  <g class="cls-1">
    <g id="Layer_2" data-name="Layer 2">
      <g id="Camada_1" data-name="Camada 1">
        <g class="cls-22">
          <g class="cls-21">
            <g>
              <g>
                <path class="cls-16" d="m350.37,309.48l24.34-36.63c7.22-10.86,4.83-25.2-5.33-31.95-7.75-5.15-18.21-4.54-26.01,1.52-20.04,15.56-43.39,24.56-67.54,26.01l-3.5.21c-2.53.15-4.46,2.33-4.31,4.86h0c.15,2.53,2.33,4.46,4.86,4.31l3.5-.21c12.88-.78,25.68-3.58,38.02-8.33,12.32-4.74,23.97-11.34,34.6-19.6,4.68-3.64,10.83-4.09,15.29-1.12,5.94,3.95,7.18,12.57,2.76,19.21l-24.34,36.63,7.65,5.08Z"/>
                <path class="cls-4" d="m275.84,268.43l1.8,8.92s-6.75,2.98-17.7-4.01c-.42-.27-.69-.72-.73-1.22l-.06-.86c-.06-.85.58-1.59,1.44-1.66l15.26-1.17Z"/>
                <path class="cls-8" d="m347.15,305.7l24.34-36.63c5.54-8.34,5.42-18.72.47-26.15,7.94,7.31,9.32,20.05,2.75,29.93l-24.34,36.63-7.65-5.08.75-1.14,3.68,2.44Z"/>
              </g>
              <g>
                <path class="cls-19" d="m16.7,793.36l16.39,10.89,318.46-479.16-22.19-14.75-175.39,251.86c-5.71,8.2-11.1,16.61-16.16,25.22l-15.35,26.09-17.56,29.87-88.21,149.99Z"/>
                <path class="cls-19" d="m30.32,802.41l27.31,18.15L470.11,199.94c5.95-8.95,12.69-17.33,20.05-25.21,3.84-4.12,7.62-8.88,11.13-14.16,3.51-5.28,6.44-10.6,8.74-15.74,4.41-9.83,9.53-19.3,15.48-28.24l30.44-45.8-27.31-18.15-30.44,45.8c-5.95,8.95-12.69,17.33-20.05,25.21-3.84,4.12-7.62,8.88-11.13,14.16-3.51,5.28-6.44,10.6-8.74,15.74-4.41,9.83-9.53,19.3-15.48,28.24L30.32,802.41Z"/>
                <rect class="cls-16" x="402.98" y="237.06" width="23.02" height="33.89" transform="translate(855.47 49.4) rotate(123.61)"/>
                <path class="cls-16" d="m330.37,301.63h21.81v24.06h-21.81c-.67,0-1.21-.54-1.21-1.21v-21.64c0-.67.54-1.21,1.21-1.21Z" transform="translate(790.47 203.55) rotate(123.61)"/>
                <rect class="cls-16" x="537.6" y="38.86" width="11.38" height="42.68" rx="4.75" ry="4.75" transform="translate(192.43 479.36) rotate(-56.39)"/>
                <rect class="cls-2" x="95.86" y="444.03" width="332.94" height="7.24" transform="translate(780.36 476.96) rotate(123.61)"/>
                <rect class="cls-16" x="155.1" y="562.21" width="31.56" height="63.38" transform="translate(760.09 780.33) rotate(123.61)"/>
                <path class="cls-2" d="m27.92,847.09l7.79,5.18c.58.38,1.35.23,1.74-.35l20.95-31.52c.24-.36.27-.79.11-1.17L470.11,199.94c5.95-8.95,12.69-17.33,20.05-25.21,3.84-4.12,7.62-8.88,11.13-14.16,3.51-5.28,6.44-10.6,8.74-15.74,4.41-9.83,9.53-19.3,15.48-28.24l28.29-42.57.17.11c2.18,1.45,5.13.86,6.58-1.33l1.04-1.57c1.45-2.18.86-5.13-1.33-6.58l-8.54-5.68L27.92,847.09Z"/>
              </g>
              <circle class="cls-16" cx="287.44" cy="444.93" r="9.83" transform="translate(-196.9 230.45) rotate(-33.25)"/>
              <circle class="cls-16" cx="172.2" cy="559.21" r="4.53" transform="translate(-412.9 564.52) rotate(-73.4)"/>
              <path class="cls-16" d="m228.99,484.98c2.08,1.38,4.32,1.69,4.99.67.67-1.01-.47-2.95-2.55-4.34-2.08-1.38-4.32-1.69-4.99-.67-.67,1.01.47,2.95,2.55,4.34Z"/>
              <path class="cls-16" d="m221.94,473.15c.77.51,1.82.3,2.33-.47.51-.77.3-1.82-.47-2.33-.77-.51-1.82-.3-2.33.47-.51.77-.3,1.82.47,2.33Z"/>
              <path class="cls-16" d="m253.51,424.24c.77.51,1.82.3,2.33-.47.51-.77.3-1.82-.47-2.33-.77-.51-1.82-.3-2.33.47-.51.77-.3,1.82.47,2.33Z"/>
              <path class="cls-16" d="m259.38,415.41c.77.51,1.82.3,2.33-.47.51-.77.3-1.82-.47-2.33-.77-.51-1.82-.3-2.33.47-.51.77-.3,1.82.47,2.33Z"/>
              <path class="cls-16" d="m284.45,386.1c.89.59,2.1.35,2.69-.54.59-.89.35-2.1-.54-2.69-.89-.59-2.1-.35-2.69.54s-.35,2.1.54,2.69Z"/>
              <path class="cls-16" d="m306.24,365.48c.89.59,2.1.35,2.69-.54.59-.89.35-2.1-.54-2.69-.89-.59-2.1-.35-2.69.54-.59.89-.35,2.1.54,2.69Z"/>
              <circle class="cls-16" cx="443.27" cy="210.7" r="1.94"/>
              <path class="cls-16" d="m177.99,550.48c.89.59,2.1.35,2.69-.54.59-.89.35-2.1-.54-2.69-.89-.59-2.1-.35-2.69.54-.59.89-.35,2.1.54,2.69Z"/>
              <path class="cls-16" d="m156.63,563c.89.59,2.1.35,2.69-.54s.35-2.1-.54-2.69c-.89-.59-2.1-.35-2.69.54-.59.89-.35,2.1.54,2.69Z"/>
              <path class="cls-16" d="m212.13,488.37c.77.51,1.82.3,2.33-.47.51-.77.3-1.82-.47-2.33-.77-.51-1.82-.3-2.33.47-.51.77-.3,1.82.47,2.33Z"/>
              <path class="cls-16" d="m202.47,502.45c.77.51,1.82.3,2.33-.47.51-.77.3-1.82-.47-2.33-.77-.51-1.82-.3-2.33.47-.51.77-.3,1.82.47,2.33Z"/>
              <ellipse class="cls-16" cx="345.77" cy="290.33" rx="5.82" ry="3.99" transform="translate(-87.42 417.6) rotate(-56.39)"/>
              <circle class="cls-16" cx="290.79" cy="376.33" r="3.62" transform="translate(-164.93 240.31) rotate(-35.69)"/>
              <circle class="cls-16" cx="315.22" cy="352.19" r="3.62" transform="translate(-153.78 293.58) rotate(-41.05)"/>
              <ellipse class="cls-16" cx="410.48" cy="282.24" rx="3.62" ry="2.85" transform="translate(-51.79 467.88) rotate(-56.39)"/>
              <ellipse class="cls-16" cx="371.67" cy="340.63" rx="3.62" ry="2.85" transform="translate(-117.74 461.63) rotate(-56.39)"/>
              <path class="cls-16" d="m167.3,546.48c1.37.91,3.6-.04,4.98-2.12,1.38-2.08,1.4-4.51.03-5.42-1.37-.91-3.6.04-4.98,2.12-1.38,2.08-1.4,4.51-.03,5.42Z"/>
              <circle class="cls-16" cx="280.62" cy="467.58" r="5.82" transform="translate(-220.74 682.07) rotate(-82.19)"/>
              <circle class="cls-16" cx="209.29" cy="562.74" r="6.6" transform="translate(-379.27 681.38) rotate(-81)"/>
              <path class="cls-16" d="m215.88,576.44l13.18-19.83c.99-1.49.58-3.49-.9-4.48h0c-1.49-.99-3.49-.59-4.48.9l-13.18,19.83c-.99,1.49-.58,3.49.9,4.48h0c1.49.99,3.49.59,4.48-.9Z"/>
              <path class="cls-16" d="m243.48,457.33c.27-.4.68-.68,1.18-.83l69.18-104.08c.27-.41.82-.57,1.24-.32.45.27.58.85.29,1.28l-67.19,101.09c-.63.95-.3,2.22.71,2.78.21.11.41.24.62.37,2.38,1.58,3.54,4.02,2.59,5.45-.95,1.43-3.65,1.3-6.03-.28s-3.54-4.02-2.59-5.45Z"/>
              <path class="cls-16" d="m233.22,461.08c.11-.17.26-.3.43-.42l56.35-84.79c.27-.41.82-.57,1.24-.32.45.27.58.85.29,1.28l-54.06,81.34c-.68,1.02-.23,2.39.92,2.82,1.17.45,2.44,1.1,3.69,1.93,3.87,2.57,6.17,5.91,5.14,7.45-1.03,1.55-5,.72-8.86-1.85s-6.17-5.91-5.14-7.45Z"/>
              <path class="cls-16" d="m171.45,558.69l58.56-88.11c.02-.33.11-.63.28-.88,1.03-1.55,4.56-1.01,7.89,1.21,3.33,2.21,5.2,5.26,4.17,6.81-1.03,1.55-4.56,1.01-7.89-1.21-.84-.56-1.59-1.18-2.23-1.81-.86-.86-2.29-.74-2.97.28l-56.32,84.74c-.31.47-.98.55-1.4.13-.31-.31-.33-.79-.09-1.15Z"/>
              <path class="cls-16" d="m254.51,423.04c.28-.42.16-.98-.25-1.26l-4.55-3.03c-.42-.28-.98-.16-1.26.25l-80.98,121.84c-.28.42-.16.98.25,1.26s.98.16,1.26-.25l80.48-121.08,3.8,2.53c.42.28.98.16,1.26-.25Z"/>
              <g>
                <path class="cls-16" d="m209.01,516.43c.28-.42.16-.98-.25-1.26l-9.7-6.44c-.42-.28-.98-.16-1.26.25-.28.42-.16.98.25,1.26l9.7,6.44c.42.28.98.16,1.26-.25Z"/>
                <path class="cls-16" d="m197.58,511.32c.92.61,2.17.36,2.78-.56.61-.92.36-2.17-.56-2.78-.92-.61-2.17-.36-2.78.56-.61.92-.36,2.17.56,2.78Z"/>
                <path class="cls-16" d="m207.06,517.62c.92.61,2.17.36,2.78-.56s.36-2.17-.56-2.78-2.17-.36-2.78.56-.36,2.17.56,2.78Z"/>
              </g>
              <g>
                <path class="cls-16" d="m230.15,549.12c.28-.42.16-.98-.25-1.26l-9.7-6.44c-.42-.28-.98-.16-1.26.25-.28.42-.16.98.25,1.26l9.7,6.44c.42.28.98.16,1.26-.25Z"/>
                <path class="cls-16" d="m218.72,544c.92.61,2.17.36,2.78-.56s.36-2.17-.56-2.78c-.92-.61-2.17-.36-2.78.56-.61.92-.36,2.17.56,2.78Z"/>
                <path class="cls-16" d="m228.2,550.3c.92.61,2.17.36,2.78-.56.61-.92.36-2.17-.56-2.78-.92-.61-2.17-.36-2.78.56-.61.92-.36,2.17.56,2.78Z"/>
              </g>
              <g>
                <path class="cls-16" d="m259.08,505.6c.28-.42.16-.98-.25-1.26l-9.7-6.44c-.42-.28-.98-.16-1.26.25s-.16.98.25,1.26l9.7,6.44c.42.28.98.16,1.26-.25Z"/>
                <path class="cls-16" d="m247.65,500.48c.92.61,2.17.36,2.78-.56.61-.92.36-2.17-.56-2.78-.92-.61-2.17-.36-2.78.56-.61.92-.36,2.17.56,2.78Z"/>
                <path class="cls-16" d="m257.13,506.78c.92.61,2.17.36,2.78-.56s.36-2.17-.56-2.78-2.17-.36-2.78.56c-.61.92-.36,2.17.56,2.78Z"/>
              </g>
              <g>
                <path class="cls-16" d="m273.69,490.15c.28-.42.16-.98-.25-1.26l-13.03-8.66c-.42-.28-.98-.16-1.26.25s-.16.98.25,1.26l13.03,8.66c.42.28.98.16,1.26-.25Z"/>
                <path class="cls-16" d="m259.03,482.89c.92.61,2.17.36,2.78-.56s.36-2.17-.56-2.78-2.17-.36-2.78.56-.36,2.17.56,2.78Z"/>
                <path class="cls-16" d="m271.74,491.34c.92.61,2.17.36,2.78-.56s.36-2.17-.56-2.78-2.17-.36-2.78.56-.36,2.17.56,2.78Z"/>
              </g>
              <g>
                <path class="cls-16" d="m329.31,397.59c.28-.42.16-.98-.25-1.26l-9.7-6.44c-.42-.28-.98-.16-1.26.25-.28.42-.16.98.25,1.26l9.7,6.44c.42.28.98.16,1.26-.25Z"/>
                <path class="cls-16" d="m317.88,392.47c.92.61,2.17.36,2.78-.56s.36-2.17-.56-2.78-2.17-.36-2.78.56c-.61.92-.36,2.17.56,2.78Z"/>
                <path class="cls-16" d="m327.36,398.77c.92.61,2.17.36,2.78-.56.61-.92.36-2.17-.56-2.78-.92-.61-2.17-.36-2.78.56-.61.92-.36,2.17.56,2.78Z"/>
              </g>
              <g>
                <path class="cls-16" d="m337.48,385.31c.28-.42.16-.98-.25-1.26l-9.7-6.44c-.42-.28-.98-.16-1.26.25s-.16.98.25,1.26l9.7,6.44c.42.28.98.16,1.26-.25Z"/>
                <path class="cls-16" d="m326.04,380.19c.92.61,2.17.36,2.78-.56.61-.92.36-2.17-.56-2.78-.92-.61-2.17-.36-2.78.56-.61.92-.36,2.17.56,2.78Z"/>
                <path class="cls-16" d="m335.52,386.49c.92.61,2.17.36,2.78-.56s.36-2.17-.56-2.78c-.92-.61-2.17-.36-2.78.56-.61.92-.36,2.17.56,2.78Z"/>
              </g>
              <g>
                <path class="cls-16" d="m433.41,237.22c.28-.42.16-.98-.25-1.26l-9.7-6.44c-.42-.28-.98-.16-1.26.25s-.16.98.25,1.26l9.7,6.44c.42.28.98.16,1.26-.25Z"/>
                <path class="cls-16" d="m421.98,232.11c.92.61,2.17.36,2.78-.56s.36-2.17-.56-2.78-2.17-.36-2.78.56-.36,2.17.56,2.78Z"/>
                <path class="cls-16" d="m431.46,238.41c.92.61,2.17.36,2.78-.56.61-.92.36-2.17-.56-2.78-.92-.61-2.17-.36-2.78.56s-.36,2.17.56,2.78Z"/>
              </g>
              <g>
                <path class="cls-16" d="m288.5,404.32c.28-.42.16-.98-.25-1.26l-9.7-6.44c-.42-.28-.98-.16-1.26.25s-.16.98.25,1.26l9.7,6.44c.42.28.98.16,1.26-.25Z"/>
                <path class="cls-16" d="m277.06,399.2c.92.61,2.17.36,2.78-.56.61-.92.36-2.17-.56-2.78-.92-.61-2.17-.36-2.78.56-.61.92-.36,2.17.56,2.78Z"/>
                <path class="cls-16" d="m286.54,405.5c.92.61,2.17.36,2.78-.56s.36-2.17-.56-2.78-2.17-.36-2.78.56-.36,2.17.56,2.78Z"/>
              </g>
              <path class="cls-16" d="m204.21,501.69l19.02-28.61c.28-.42.16-.98-.25-1.26-.42-.28-.98-.16-1.26.25l-19.02,28.61c-.28.42-.16.98.25,1.26.42.28.98.16,1.26-.25Z"/>
              <path class="cls-16" d="m229.13,482.43c.28-.42.16-.98-.25-1.26l-8.4-5.58c-.42-.28-.98-.16-1.26.25s-.16.98.25,1.26l8.4,5.58c.42.28.98.16,1.26-.25Z"/>
              <path class="cls-16" d="m213.82,487.47c.27-.41.17-.97-.24-1.25l-9.84-6.69c-.2-.14-.45-.19-.68-.14-.24.05-.45.19-.58.39l-51.34,77.24c-.28.42-.16.98.25,1.26l4.2,2.79c.42.28.98.16,1.26-.25.28-.42.16-.98-.25-1.26l-3.45-2.29,50.33-75.72,9.08,6.18c.41.28.98.17,1.26-.24,0,0,0,0,0,0Z"/>
              <path class="cls-16" d="m267.57,462.49c.43-1.53,1.19-2.76,1.99-3.38,1.09-1.22,2.54-2.13,4.22-2.54l2.14-.52c2.33-.57,4.37-1.99,5.69-3.99l171.72-258.37c.27-.41.82-.57,1.24-.32.45.27.58.85.29,1.28l-171.75,258.41c-1.58,2.38-4,4.07-6.77,4.75l-2.14.52c-.11.03-.23.06-.34.09-1.12.34-1.8,1.45-1.73,2.62.05.78-.05,1.7-.31,2.64-.68,2.41-2.18,4.09-3.36,3.76-1.18-.33-1.58-2.55-.91-4.96Z"/>
              <path class="cls-16" d="m271.23,464.92c.64-2.29,2.03-3.92,3.18-3.79,1.03-.99,2.32-1.73,3.79-2.09l2.14-.52c2.33-.57,4.37-1.99,5.69-3.99l85.23-128.24c.27-.41.82-.57,1.24-.32.45.27.58.85.29,1.28l-85.26,128.28c-1.58,2.38-4,4.07-6.77,4.75l-2.14.52c-.36.09-.71.21-1.04.35-1.07.46-1.77,1.54-1.76,2.7,0,.69-.1,1.47-.33,2.26-.68,2.41-2.18,4.09-3.36,3.76-1.18-.33-1.58-2.55-.91-4.96Z"/>
              <path class="cls-16" d="m381.44,334.99c.28-.42.16-.98-.25-1.26l-10.74-7.14c-.42-.28-.98-.16-1.26.25-.28.42-.16.98.25,1.26l10.74,7.14c.42.28.98.16,1.26-.25Z"/>
              <path class="cls-16" d="m371.09,340.19l38.77-58.33c.28-.42.16-.98-.25-1.26-.42-.28-.98-.16-1.26.25l-38.77,58.33c-.28.42-.16.98.25,1.26.42.28.98.16,1.26-.25Z"/>
              <path class="cls-16" d="m211.13,563.96l43.27-65.1c1.62-2.44,3.91-4.37,6.59-5.55h0c.92-.41,1.7-1.09,2.23-1.95,1.13-1.82,2.72-3.95,4.61-6.13,4.51-5.17,9.03-8.6,10.11-7.66,1.08.94-1.7,5.89-6.21,11.06-4.51,5.17-9.03,8.6-10.11,7.66-.02-.02-.05-.04-.07-.07-.39-.48-1.04-.67-1.57-.34-1.62,1.02-3.01,2.37-4.08,3.98l-43.26,65.08c-.24.36-.7.52-1.1.36-.55-.22-.73-.88-.42-1.34Z"/>
              <path class="cls-16" d="m352.66,294.91c.28-.42.16-.98-.25-1.26l-11.73-7.8c-.42-.28-.98-.16-1.26.25l-11.1,16.7c-.28.42-.16.98.25,1.26l5.87,3.9c.42.28.98.16,1.26-.25.28-.42.16-.98-.25-1.26l-5.11-3.4,10.1-15.19,10.98,7.3c.42.28.98.16,1.26-.25Z"/>
              <path class="cls-16" d="m328.09,315.54c.28-.42.16-.98-.25-1.26l-6.03-4.01c-.42-.28-.98-.16-1.26.25l-66.16,99.54c-.28.42-.16.98.25,1.26l5.28,3.51c.42.28.98.16,1.26-.25.28-.42.16-.98-.25-1.26l-4.52-3.01,65.15-98.03,5.28,3.51c.42.28.98.16,1.26-.25Z"/>
              <circle class="cls-16" cx="454.12" cy="194.14" r="9.83"/>
              <ellipse class="cls-13" cx="489.68" cy="122.88" rx="51.61" ry="2.59" transform="translate(116.29 462.69) rotate(-56.39)"/>
              <path class="cls-3" d="m453.19,191.34c2.91-.34,5.15-1.59,5.01-2.8-.14-1.21-2.61-1.91-5.52-1.57-2.91.34-5.15,1.59-5.01,2.8.14,1.21,2.61,1.91,5.52,1.57Z"/>
              <path class="cls-3" d="m404.9,247.63c2.65-3.99,4.31-7.54,3.72-7.93-.59-.4-3.22,2.52-5.87,6.5-2.65,3.99-4.31,7.54-3.72,7.93.59.4,3.22-2.52,5.87-6.5Z"/>
              <path class="cls-3" d="m335.76,311.01c2.65-3.99,4.31-7.54,3.72-7.93s-3.22,2.52-5.87,6.5c-2.65,3.99-4.31,7.54-3.72,7.93.59.4,3.22-2.52,5.87-6.5Z"/>
              <path class="cls-3" d="m151.24,580.69c3.36-5.06,5.46-9.57,4.69-10.09-.77-.51-4.13,3.17-7.49,8.23-3.36,5.06-5.46,9.57-4.69,10.09.77.51,4.13-3.17,7.49-8.23Z"/>
              <path class="cls-3" d="m287.08,442.2c2.91-.34,5.15-1.59,5.01-2.8-.14-1.21-2.61-1.91-5.52-1.57-2.91.34-5.15,1.59-5.01,2.8s2.61,1.91,5.52,1.57Z"/>
              <path class="cls-3" d="m208.74,561.62c1.99-.23,3.51-1.24,3.39-2.25s-1.83-1.64-3.82-1.41c-1.99.23-3.51,1.24-3.39,2.25.12,1.01,1.83,1.64,3.82,1.41Z"/>
            </g>
            <g>
              <g>
                <path class="cls-5" d="m553.04,265.28s-10.91,4.08-4.11,15.78c0,0-428.32,568.35-469.29,599.16-40.97,30.8-57.91,7.82-53.37,28.62,4.38,20.06,45.87,68.22,86.78,81.98,0,0,12.31,4.9,14.44-16.71,2.13-21.61-7.17-15.52,25.51-60.51,32.69-44.99,396.37-588.1,429.23-608.28,0,0,5.89,2.23,12.71-4.26,8.51-8.11-17-39.01-41.91-35.78Z"/>
                <path class="cls-4" d="m118.33,991.43c-2.92.77-5.33-.17-5.44-.21-42.31-14.24-82.88-63.21-87.05-82.3-1.47-6.74-.75-9.34,2.86-10.29,1.39-.37,3.17-.5,5.43-.67,3.55-.26,8.41-.62,14.39-2.2,10.05-2.65,20.14-7.85,30.86-15.91,40.15-30.19,458.37-584.69,469.03-598.84-2.13-3.77-2.68-7.17-1.64-10.1,1.54-4.3,5.93-5.98,6.12-6.05l.04-.02h.05c18.37-2.39,36.66,13.32,42.27,25.09,2.41,5.07,2.42,9.12,0,11.43-2.32,2.21-4.79,3.67-7.34,4.34h0c-2.86.76-4.96.28-5.62.09-25.49,16.48-239.36,330.47-354.38,499.34-38.6,56.68-66.5,97.63-74.56,108.72-25.45,35.03-25.36,38.89-25.12,49.21.08,2.97.16,6.33-.31,11.08-1.24,12.52-5.9,16.31-9.6,17.28Zm-89.41-91.94c-2.72.72-3.74,2.28-2.22,9.26,4.13,18.92,44.43,67.51,86.5,81.66.05.01,2.27.88,4.91.18,3.43-.9,7.77-4.5,8.95-16.52.46-4.69.39-8.03.31-10.97-.25-10.53-.34-14.48,25.29-49.75,8.05-11.08,35.94-52.03,74.54-108.7,115.32-169.3,329.97-484.44,354.81-499.7l.19-.11.2.07s2.17.79,5.3-.04c2.4-.63,4.74-2.02,6.96-4.13,2.12-2.02,2.05-5.72-.19-10.41-2.92-6.11-9.1-12.84-16.15-17.55-8.31-5.57-17.24-8.07-25.17-7.06-.45.19-4.24,1.82-5.55,5.52-.98,2.74-.4,5.97,1.72,9.61l.15.25-.18.23c-4.28,5.68-428.82,568.75-469.38,599.24-10.81,8.13-21,13.38-31.16,16.06-6.05,1.59-10.96,1.95-14.54,2.22-2.21.16-3.96.29-5.28.64Z"/>
              </g>
              <path class="cls-9" d="m553.04,265.28s-10.91,4.08-4.11,15.78c0,0-428.32,568.35-469.29,599.16-40.97,30.8-57.91,7.82-53.37,28.62,4.38,20.06,45.87,68.22,86.78,81.98,0,0,12.31,4.9,14.44-16.71,2.13-21.61-7.17-15.52,25.51-60.51,32.69-44.99,396.37-588.1,429.23-608.28,0,0,5.89,2.23,12.71-4.26,8.51-8.11-17-39.01-41.91-35.78Zm-217.45,353.46s-197,268.96-222.22,297.43c-25.23,28.47-16.75,35.33-26.29,45.12-9.54,9.79-50.62-44.84-52-52.36-1.38-7.52,14.55-6.87,25.89-9.86,11.33-2.99,23.56-14.09,23.56-14.09,11.12-8.39,22.57-24.74,22.57-24.74l443.47-570.97c10.92-2.27,14.47,8.92,14.47,8.92l-229.46,320.56Z"/>
              <path class="cls-11" d="m46.61,908.93s-5.97.36.12,9.67c6.09,9.3,23.94,26.42,25.25,17.59,1.31-8.83,7.03-17.01,18.24-29.66,11.21-12.66,466.87-608.67,466.87-608.67,0,0,2.31-2.73,1.22-4.57-1.09-1.83-4.93-1.42-7.37,1.95l-305.61,401.87-141.99,179.89s-19.11,22.93-30.13,28.26c-11.02,5.33-22.3,1.63-26.61,3.68Z"/>
              <g>
                <g>
                  <g>
                    <path class="cls-20" d="m622.73,203.71l-15.52,20.46.72,6.17-32.07,41.71-1.86,2.32,6-1.66,31.26-40.07,4.88-2.19,15.83-21c-2.64-6.58-9.24-5.75-9.24-5.75Z"/>
                    <path class="cls-17" d="m572.82,275.17l2.7-3.39,31.96-41.56-.72-6.17,15.73-20.75.19-.02c.07-.01,6.97-.79,9.71,6.02l.09.23-16.05,21.28-4.88,2.2-31.28,40.09-7.45,2.07Zm34.86-50.87l.72,6.18-.11.14-32.07,41.7-1.02,1.28,4.56-1.27,31.23-40.04,4.88-2.2,15.61-20.7c-2.32-5.43-7.46-5.34-8.5-5.27l-15.29,20.17Z"/>
                  </g>
                  <g>
                    <path class="cls-20" d="m613.78,227.91c.91.74,1.7,1.58,2.41,2.48l15.78-20.93c-2.64-6.58-9.24-5.75-9.24-5.75l-15.52,20.46.09.83c2.34.54,4.61,1.38,6.48,2.9Z"/>
                    <path class="cls-17" d="m616.2,231.11l-.35-.45c-.77-.96-1.53-1.75-2.34-2.41-1.6-1.3-3.6-2.2-6.29-2.82l-.3-.07-.15-1.32,15.73-20.75.19-.02c.07-.01,6.97-.79,9.71,6.02l.09.23-16.27,21.59Zm-8.49-6.46c2.65.64,4.73,1.59,6.35,2.92.73.59,1.43,1.29,2.12,2.11l15.29-20.28c-2.32-5.43-7.46-5.34-8.5-5.27l-15.29,20.17.04.35Z"/>
                  </g>
                  <g>
                    <path class="cls-5" d="m558.23,271.18l13.74-9.98s13.02,1.11,20.24,14.67c0,0-4.29,14.77-6.17,17.99-1.88,3.23-27.81-22.67-27.81-22.67Z"/>
                    <path class="cls-17" d="m585.81,294.53c-3.71.98-25.42-20.58-27.89-23.04l-.36-.36,14.28-10.39h.16c.13.02,13.35,1.3,20.59,14.91l.09.16-.05.17c-.18.61-4.33,14.86-6.21,18.09-.14.23-.34.38-.61.46Zm-26.9-23.3c9.21,9.17,24.29,23.07,26.68,22.45.05,0,.06-.03.07-.05,1.72-2.95,5.59-16.06,6.07-17.72-6.61-12.25-18.16-14.07-19.64-14.26l-13.18,9.58Z"/>
                  </g>
                </g>
                <g>
                  <path class="cls-15" d="m427.05,437.57c-.57.15-1.13.3-1.68.46.44-.58.83-1.24,1.15-1.97.2-.46-.33-.55-.55-.19-2.53,4.25-9.69,5.3-13.81,7.73-3.41,2.01-6.5,4.69-9.33,7.43-6.94,6.7-11.54,15.25-19.41,21.02-6.58,4.82-14.07,9.35-19.21,15.78-2.8,3.51-6.35,9.97-2.11,13.68,4.06,3.56,12.08.63,16-1.57,7.28-4.08,11.7-10.57,15.46-17.83,4.36-8.44,8.78-15.98,15.38-22.9,6.37-6.66,13.22-12.72,18.59-20.27.28-.41.31-1.58-.48-1.37Z"/>
                  <path class="cls-17" d="m371.8,502.97h0c-3.05.8-7.26,1.26-9.98-1.13-4.05-3.55-1.6-9.71,2.06-14.29,4.11-5.14,9.7-9.07,15.11-12.88,1.41-.99,2.82-1.98,4.18-2.98,4.6-3.37,8.16-7.8,11.6-12.09,2.41-3.01,4.91-6.12,7.77-8.89,3.57-3.44,6.48-5.75,9.42-7.49,1.42-.84,3.15-1.5,4.99-2.2,3.47-1.32,7.07-2.69,8.67-5.37.27-.46.94-.56,1.25-.2.08.1.26.38.07.8-.16.37-.34.72-.54,1.05.18-.05.36-.1.55-.15.42-.11.79.01,1.01.33.33.47.24,1.3-.06,1.72-3.95,5.56-8.77,10.38-13.44,15.05-1.71,1.72-3.48,3.48-5.18,5.26-6.39,6.69-10.74,13.95-15.32,22.8-3.33,6.44-7.79,13.62-15.63,18.01-1.97,1.11-4.34,2.07-6.51,2.64Zm53.26-65.25c-1.97,1.91-4.93,3.04-7.81,4.13-1.8.69-3.49,1.33-4.86,2.14-2.88,1.7-5.74,3.97-9.25,7.36-2.82,2.73-5.3,5.82-7.7,8.81-3.47,4.33-7.07,8.81-11.76,12.25-1.37,1-2.77,1.99-4.19,2.99-5.35,3.77-10.89,7.67-14.93,12.72-1.17,1.47-6.8,9.01-2.16,13.07,2.43,2.13,6.33,1.68,9.18.93h0c2.11-.56,4.41-1.49,6.31-2.55,7.64-4.28,12.01-11.32,15.28-17.65,4.61-8.91,9.01-16.24,15.47-23,1.71-1.79,3.48-3.56,5.2-5.28,4.64-4.64,9.44-9.45,13.34-14.95.12-.17.13-.62.05-.71-.62.17-1.18.32-1.73.48l-1.27.37.8-1.05s.03-.04.04-.06Z"/>
                </g>
                <g>
                  <path class="cls-15" d="m403.82,468.3c-.51.14-1.07.04-1.52-.31-.77-.59-.91-1.69-.31-2.46l75.93-98.22c.59-.77,1.7-.92,2.47-.32.76.59.91,1.7.31,2.46l-75.94,98.23c-.25.32-.58.53-.94.62Z"/>
                  <path class="cls-18" d="m403.93,468.72c-.67.18-1.37.04-1.91-.38-.46-.36-.76-.88-.84-1.46-.07-.58.08-1.16.44-1.62l75.93-98.22c.71-.93,2.15-1.11,3.08-.39.47.36.76.87.83,1.46.08.58-.08,1.16-.44,1.62l-75.94,98.22c-.3.38-.7.66-1.18.78Zm75.03-101.62c-.28.08-.52.24-.71.47l-75.94,98.23c-.21.27-.31.63-.26.97.04.35.22.66.5.88.56.43,1.42.33,1.85-.23l75.93-98.22c.21-.28.31-.63.26-.97-.04-.35-.22-.66-.5-.88-.33-.25-.75-.34-1.14-.23Z"/>
                </g>
                <path class="cls-6" d="m399.88,560.26c-.48.13-1.02.05-1.46-.26-.79-.56-.98-1.66-.42-2.45l78.74-111.69c.57-.79,1.66-.98,2.45-.43.79.56.98,1.66.43,2.45l-78.75,111.69c-.25.35-.6.58-.99.69Z"/>
                <g>
                  <path class="cls-15" d="m222.86,823.35c-.95.25-2.01.1-2.89-.5-1.6-1.1-2-3.29-.9-4.89l173.54-252.17c1.1-1.6,3.29-2,4.89-.9,1.6,1.1,2,3.29.9,4.89l-173.54,252.17c-.49.72-1.21,1.2-2,1.41Z"/>
                  <path class="cls-18" d="m222.97,823.77c-1.12.3-2.3.09-3.26-.56-1.79-1.24-2.25-3.71-1.01-5.51l173.54-252.17c.53-.78,1.33-1.34,2.24-1.58,1.12-.3,2.3-.08,3.25.57,1.8,1.23,2.25,3.7,1.01,5.5l-173.54,252.17c-.54.78-1.34,1.34-2.25,1.58Zm171.75-258.96c-.71.19-1.33.62-1.75,1.23l-173.55,252.17c-.46.67-.64,1.5-.49,2.3.15.81.61,1.51,1.28,1.97.74.51,1.66.67,2.53.44.71-.19,1.33-.62,1.75-1.23l173.54-252.17c.47-.68.64-1.5.49-2.3-.15-.81-.6-1.51-1.28-1.98-.74-.51-1.67-.67-2.53-.44Z"/>
                </g>
                <g>
                  <path class="cls-15" d="m409.75,574.31s1.73-6.65-8.04-4.07c-9.78,2.58-42.74,53.88-42.74,53.88,0,0-2.95,3.49.21,2.27,3.17-1.22,21.71-28.36,26.29-32.5,9.7-8.75,21.12-10.99,24.28-19.57Z"/>
                  <path class="cls-4" d="m358.74,626.99c-.25.07-1.01.26-1.34-.26-.43-.68.44-1.95,1.24-2.89,1.32-2.05,33.13-51.43,42.96-54.02,3.7-.97,6.28-.77,7.66.6,1.54,1.54.95,3.91.92,4.01-1.96,5.32-6.89,8.23-12.6,11.61-3.72,2.2-7.94,4.69-11.8,8.18-2.02,1.82-6.8,8.2-11.87,14.95-7.67,10.22-12.82,16.97-14.56,17.63-.23.09-.43.15-.6.2Zm-.57-.79c.13,0,.44-.07.85-.23,1.63-.63,8.3-9.51,14.18-17.35,5.09-6.78,9.9-13.18,11.98-15.07,3.93-3.54,8.19-6.06,11.94-8.28,5.56-3.29,10.37-6.13,12.21-11.11h0s.47-1.96-.71-3.13c-1.13-1.12-3.49-1.25-6.81-.37-9.5,2.51-42.14,53.18-42.47,53.69-.6.71-1.1,1.52-1.17,1.85Z"/>
                </g>
                <g>
                  <path class="cls-15" d="m387.5,583.98l11.54-14.86s8.84-9.6,15.03-8.51c0,0,7.7,1.61,1.82,8.61,0,0-4.54,3.47-12.74,6.84-8.2,3.38-21.16,23.16-21.16,23.16,0,0-3.46,7.58-6.89,6.06l12.41-21.3Z"/>
                  <path class="cls-4" d="m376.77,605.83c-.64.17-1.27.13-1.86-.14l-.45-.2,12.66-21.73,11.57-14.91c.28-.31,6.44-6.95,12.18-8.47,1.19-.31,2.29-.38,3.28-.21.15.03,3.34.73,4.19,3.18.59,1.71-.12,3.78-2.12,6.16l-.07.06s-4.68,3.54-12.84,6.91c-7.99,3.28-20.84,22.8-20.97,23-.07.17-2.56,5.57-5.57,6.36Zm-1.02-.8c.26.04.53.02.8-.05,2.62-.69,5.01-5.88,5.03-5.94.56-.87,13.17-19.99,21.4-23.38,7.66-3.15,12.16-6.42,12.61-6.76,1.76-2.11,2.4-3.87,1.93-5.27-.69-1.98-3.49-2.59-3.53-2.6-.84-.15-1.82-.08-2.88.2-5.49,1.45-11.68,8.12-11.73,8.18l-11.52,14.84-12.1,20.78Z"/>
                </g>
                <path class="cls-20" d="m553.04,265.28s-10.91,4.08-4.11,15.78c0,0,22.63,3.89,33.3,24.26,0,0,5.89,2.23,12.71-4.26,8.51-8.11-17-39.01-41.91-35.78Z"/>
                <path class="cls-9" d="m553.04,265.28s-10.91,4.08-4.11,15.78c0,0,22.63,3.89,33.3,24.26,0,0,5.89,2.23,12.71-4.26,8.51-8.11-17-39.01-41.91-35.78Zm17.11,19.97c-.64.31-1.33.09-1.95-.19-1.58-.71-3.09-1.58-4.67-2.31-3.22-1.48-6.92-2.16-9.87-4.17-1.64-1.12-2.38-2.78-2.66-4.6-1.15-3.72,2.53-4.94,6.02-4.53,5.66.67,11.13,4.79,13.1,10.22.4,1.09,1.67,4.78.03,5.58Z"/>
                <g>
                  <path class="cls-14" d="m553.04,265.28s-3.66,1.38-5.42,4.8c1.27-.84,2.59-1.5,3.78-1.89,8.4-2.81,18.16,2.52,24.81,7.27,6.64,4.74,12.61,11.4,16.07,18.85.82,1.78,1.95,4.45,2.35,7.02.11-.1.21-.18.32-.28,8.51-8.11-17-39.01-41.91-35.78Z"/>
                  <path class="cls-4" d="m594.33,302.21l-.13-.81c-.3-1.95-1.06-4.2-2.32-6.91-3.28-7.05-8.94-13.68-15.93-18.68-9.27-6.64-17.2-9.15-23.54-7.48-.29.08-.58.17-.87.26-1.17.39-2.48,1.04-3.67,1.84l-1.41.95.78-1.51c1.82-3.54,5.5-4.95,5.66-5.01l.04-.02h.05c18.37-2.39,36.66,13.32,42.27,25.09,2.41,5.07,2.42,9.12,0,11.43-.06.07-.13.13-.2.18l-.73.66Zm-42.14-34.72c6.62-1.75,14.79.81,24.28,7.61,7.11,5.09,12.87,11.84,16.21,19.02,1.13,2.42,1.87,4.5,2.25,6.33,1.84-2.07,1.68-5.64-.46-10.13-2.92-6.11-9.1-12.84-16.15-17.55-8.31-5.57-17.24-8.07-25.17-7.06-.33.14-2.47,1.06-4.09,3.01.75-.39,1.49-.71,2.2-.95.31-.1.62-.19.93-.27Z"/>
                </g>
                <g>
                  <g>
                    <path class="cls-15" d="m332.27,586.05c-.7.21-1.34.5-1.94.86-2.12-.81-4.27-2.4-5.71-3.28-2.37-1.43-5.49-3.82-8.45-3.23-.67.13-1.16,1.17-.75,1.74.8,1.1,6.61,6.54,10.63,10.72-.3,1.42-.25,2.94.2,4.42,1.44,4.76,6.47,7.46,11.23,6.02,4.76-1.44,7.46-6.47,6.02-11.23-1.44-4.76-6.47-7.46-11.24-6.02Z"/>
                    <path class="cls-4" d="m337.28,603.81h0c-4.95,1.3-9.97-1.51-11.45-6.4-.44-1.43-.52-2.95-.26-4.41-1.84-1.9-4-4.03-5.92-5.92-2.31-2.27-4.14-4.07-4.59-4.68-.26-.36-.3-.84-.13-1.33.2-.54.61-.96,1.08-1.08,2.77-.55,5.54,1.2,7.76,2.61.37.23.72.46,1.06.66.38.23.8.5,1.26.8,1.22.8,2.73,1.78,4.19,2.37.6-.34,1.23-.6,1.85-.79,5.07-1.5,10.27,1.3,11.78,6.31.73,2.42.47,4.98-.72,7.2-1.19,2.23-3.18,3.85-5.6,4.59-.1.03-.22.06-.32.09Zm-21.03-22.99c-.21.05-.4.27-.5.53-.07.21-.07.4.02.52.41.56,2.3,2.42,4.49,4.57,1.97,1.95,4.23,4.15,6.1,6.1l.16.16-.05.23c-.29,1.39-.22,2.84.2,4.21,1.34,4.44,5.9,6.99,10.38,5.81h0c.1-.03.19-.05.3-.08,2.19-.66,3.99-2.14,5.07-4.15,1.09-2.02,1.31-4.34.65-6.54-1.37-4.54-6.14-7.13-10.69-5.72-.63.19-1.25.47-1.85.82l-.18.11-.2-.08c-1.62-.61-3.24-1.67-4.55-2.52-.45-.3-.87-.57-1.23-.79-.35-.21-.71-.44-1.08-.67-2.09-1.32-4.69-2.97-7.05-2.51h0Z"/>
                  </g>
                  <path class="cls-12" d="m338.42,593.95c.5,1.65-.43,3.4-2.09,3.89-1.65.5-3.4-.43-3.9-2.08-.5-1.66.43-3.4,2.09-3.9,1.65-.5,3.4.43,3.9,2.09Z"/>
                </g>
                <g>
                  <g>
                    <path class="cls-15" d="m393.44,502.7c-.51.13-.99.33-1.44.58-1.53-.64-3.05-1.87-4.09-2.54-1.69-1.11-3.9-2.93-6.09-2.59-.49.08-.88.83-.59,1.26.56.82,4.65,4.94,7.49,8.11-.25,1.03-.26,2.14.03,3.24.93,3.52,4.54,5.62,8.05,4.69,3.52-.93,5.62-4.53,4.69-8.05-.93-3.52-4.53-5.62-8.05-4.69Z"/>
                    <path class="cls-4" d="m396.91,515.87c-3.75.99-7.6-1.26-8.59-5-.28-1.05-.3-2.17-.08-3.23-1.28-1.42-2.79-3.01-4.13-4.43-1.64-1.72-2.93-3.09-3.25-3.55-.19-.29-.23-.68-.08-1.06.16-.43.5-.75.87-.85l.1-.02c2.04-.32,4.03,1.04,5.64,2.14.26.18.51.35.75.52.27.17.58.38.9.62.85.6,1.9,1.34,2.93,1.81,4.08-2.06,8.82.29,9.93,4.49.99,3.74-1.26,7.6-5,8.58Zm-15.02-17.29c-.09.03-.22.14-.28.31-.04.11-.05.22-.01.27.27.41,1.67,1.88,3.15,3.44,1.4,1.47,2.98,3.14,4.3,4.62l.15.18-.06.22c-.24.99-.23,2.03.03,3.02.86,3.28,4.23,5.24,7.51,4.37,3.28-.87,5.24-4.24,4.38-7.51-.98-3.73-5.23-5.8-8.86-3.84l-.19.1-.19-.08c-1.18-.5-2.35-1.31-3.29-1.98-.32-.22-.61-.43-.88-.59-.25-.16-.51-.34-.77-.53-1.48-1.01-3.31-2.27-5-2h0Z"/>
                  </g>
                  <path class="cls-12" d="m397.73,508.64c.32,1.21-.41,2.47-1.63,2.79-1.22.32-2.47-.41-2.79-1.63-.32-1.22.41-2.47,1.63-2.79,1.22-.32,2.47.4,2.79,1.63Z"/>
                </g>
                <g>
                  <g>
                    <path class="cls-15" d="m408.95,482.61c-.51.14-.99.35-1.43.6-1.54-.62-3.08-1.83-4.13-2.49-1.71-1.08-3.95-2.87-6.12-2.5-.49.09-.87.84-.57,1.26.57.81,4.72,4.88,7.6,8-.24,1.04-.23,2.14.08,3.24.98,3.5,4.61,5.55,8.12,4.57,3.5-.98,5.55-4.61,4.57-8.12-.98-3.51-4.61-5.55-8.12-4.58Z"/>
                    <path class="cls-4" d="m412.51,495.75c-3.69.97-7.53-1.23-8.56-4.9-.29-1.05-.34-2.17-.13-3.23-1.3-1.41-2.84-2.98-4.2-4.38-1.66-1.7-2.96-3.04-3.29-3.5-.2-.3-.23-.69-.09-1.07.16-.43.49-.76.87-.85,2.12-.38,4.13.96,5.75,2.03.26.18.52.35.76.5.27.17.58.38.92.61.86.58,1.91,1.31,2.95,1.76.44-.23.89-.41,1.34-.54l.1-.02c3.69-.97,7.54,1.23,8.56,4.9,1.04,3.74-1.15,7.62-4.88,8.66l-.1.03Zm-15.17-17.09c-.09.02-.21.14-.28.31-.04.11-.05.22-.01.27.29.4,1.7,1.86,3.2,3.39,1.42,1.45,3.03,3.1,4.37,4.56l.15.17-.05.23c-.23.98-.2,2.03.08,3.02.89,3.22,4.25,5.14,7.48,4.29l.09-.02c3.27-.91,5.18-4.31,4.27-7.58-.9-3.22-4.26-5.15-7.49-4.29l-.08.02c-.45.12-.89.32-1.34.55l-.18.1-.2-.08c-1.18-.48-2.36-1.28-3.31-1.93-.32-.22-.62-.42-.89-.59-.25-.16-.51-.33-.78-.51-1.49-.99-3.34-2.22-5.03-1.93h0Z"/>
                  </g>
                  <path class="cls-12" d="m413.33,488.49c.34,1.21-.37,2.48-1.59,2.82-1.22.34-2.48-.37-2.82-1.59-.34-1.21.37-2.47,1.59-2.81,1.22-.34,2.48.37,2.82,1.59Z"/>
                </g>
                <g>
                  <g>
                    <path class="cls-15" d="m423.11,462.54c-.51.14-.98.35-1.43.59-1.54-.62-3.08-1.82-4.13-2.48-1.71-1.08-3.95-2.88-6.12-2.5-.49.09-.87.84-.57,1.26.56.81,4.73,4.87,7.6,8-.24,1.03-.23,2.15.08,3.24.98,3.51,4.62,5.55,8.12,4.58,3.5-.98,5.55-4.61,4.57-8.12-.98-3.5-4.61-5.55-8.12-4.57Z"/>
                    <path class="cls-4" d="m426.68,475.68c-3.7.98-7.53-1.23-8.56-4.91-.3-1.05-.34-2.16-.14-3.22-1.3-1.4-2.83-2.98-4.19-4.37-1.66-1.7-2.97-3.05-3.29-3.51-.21-.29-.24-.69-.1-1.07.16-.43.49-.76.88-.86,2.11-.37,4.12.97,5.74,2.04.27.17.52.34.77.5.27.18.58.38.91.61.86.59,1.92,1.31,2.96,1.76.44-.22.89-.4,1.34-.53l.1-.02c3.69-.98,7.53,1.22,8.56,4.9,1.04,3.74-1.15,7.62-4.88,8.66l-.1.03Zm-15.16-17.09c-.1.02-.22.14-.28.31-.04.11-.05.22,0,.26.28.41,1.7,1.86,3.21,3.4,1.42,1.46,3.02,3.11,4.36,4.56l.16.17-.05.23c-.23.99-.2,2.03.08,3.02.9,3.21,4.26,5.14,7.49,4.29l.08-.02c3.26-.92,5.18-4.31,4.27-7.58-.9-3.22-4.25-5.15-7.49-4.29l-.08.02c-.45.12-.89.31-1.34.56l-.18.1-.2-.08c-1.19-.48-2.36-1.29-3.31-1.93-.32-.22-.62-.43-.89-.59-.25-.16-.51-.33-.78-.51-1.49-.99-3.35-2.22-5.03-1.92h0Z"/>
                  </g>
                  <path class="cls-12" d="m427.5,468.42c.33,1.22-.37,2.48-1.59,2.82-1.21.34-2.47-.38-2.81-1.59-.34-1.22.37-2.48,1.59-2.81,1.22-.34,2.47.37,2.82,1.58Z"/>
                </g>
                <g>
                  <g>
                    <path class="cls-15" d="m439.7,440.49c-.51.14-.99.35-1.43.6-1.54-.62-3.09-1.83-4.12-2.49-1.72-1.08-3.96-2.88-6.13-2.5-.49.09-.86.84-.57,1.26.56.82,4.73,4.88,7.6,8.01-.24,1.03-.23,2.14.08,3.23.98,3.51,4.61,5.55,8.12,4.57,3.5-.98,5.55-4.61,4.57-8.11-.98-3.51-4.61-5.56-8.11-4.58Z"/>
                    <path class="cls-4" d="m443.27,453.64c-3.7.97-7.53-1.23-8.56-4.91-.29-1.05-.33-2.16-.13-3.22-1.3-1.41-2.82-2.98-4.18-4.37-1.66-1.7-2.97-3.05-3.3-3.52-.21-.29-.24-.69-.09-1.07.15-.43.49-.75.87-.85,2.11-.37,4.13.96,5.75,2.04.26.18.52.35.77.5.27.17.58.39.91.61.86.59,1.92,1.31,2.96,1.76.44-.23.89-.41,1.34-.53l.1-.03c3.7-.97,7.53,1.23,8.56,4.91,1.04,3.73-1.15,7.61-4.88,8.66l-.1.03Zm-15.17-17.1c-.1.02-.22.14-.28.31-.04.11-.04.22,0,.27.28.41,1.7,1.87,3.2,3.4,1.42,1.45,3.02,3.1,4.36,4.56l.15.17-.05.22c-.23.99-.2,2.04.07,3.02.9,3.22,4.26,5.14,7.49,4.29l.09-.02c3.26-.91,5.17-4.31,4.27-7.58-.9-3.22-4.26-5.14-7.49-4.29l-.09.02c-.45.13-.89.31-1.33.56l-.19.11-.19-.08c-1.19-.48-2.37-1.28-3.31-1.93-.32-.22-.62-.43-.88-.59-.25-.16-.51-.33-.78-.51-1.49-.99-3.34-2.21-5.03-1.92h0Z"/>
                  </g>
                  <path class="cls-12" d="m444.08,446.38c.34,1.21-.37,2.47-1.58,2.81-1.22.34-2.48-.37-2.82-1.59-.34-1.21.37-2.48,1.58-2.82,1.22-.34,2.48.37,2.82,1.59Z"/>
                </g>
                <g>
                  <path class="cls-15" d="m291.78,612.23c-.63.16-1.34.05-1.9-.38-.96-.73-1.15-2.11-.41-3.08l47.03-61.77c.73-.96,2.11-1.15,3.08-.41.96.73,1.15,2.11.41,3.08l-47.03,61.78c-.31.4-.73.67-1.19.8Z"/>
                  <path class="cls-18" d="m291.89,612.66c-.79.21-1.62.04-2.27-.46-.56-.42-.92-1.04-1.02-1.74-.1-.7.09-1.39.51-1.95l47.03-61.78c.86-1.12,2.57-1.35,3.7-.49.56.42.92,1.05,1.02,1.74.1.7-.09,1.39-.52,1.95l-47.03,61.78c-.36.47-.85.8-1.43.95Zm45.91-66.03c-.38.1-.71.32-.95.63l-47.03,61.78c-.28.36-.41.83-.34,1.3.06.47.3.88.68,1.16.75.57,1.89.42,2.46-.33l47.03-61.77c.59-.77.43-1.88-.34-2.47-.43-.33-.99-.44-1.51-.3Z"/>
                </g>
                <g>
                  <path class="cls-15" d="m346.11,542.43c-.63.17-1.34.05-1.9-.38-.97-.74-1.15-2.11-.42-3.08l47.03-61.78c.73-.96,2.12-1.15,3.08-.41.97.74,1.15,2.11.42,3.08l-47.03,61.77c-.31.41-.73.68-1.19.8Z"/>
                  <path class="cls-18" d="m346.22,542.86c-.79.21-1.62.05-2.27-.45-.56-.43-.92-1.05-1.01-1.74-.1-.7.09-1.39.51-1.95l47.03-61.77c.86-1.13,2.58-1.36,3.7-.5.56.42.92,1.05,1.01,1.74.09.7-.09,1.39-.51,1.95l-47.03,61.77c-.36.47-.85.8-1.42.95Zm45.9-66.02c-.38.1-.71.31-.95.63l-47.03,61.77c-.28.37-.4.83-.34,1.3.06.47.3.88.68,1.17.75.56,1.89.41,2.46-.34l47.03-61.78c.59-.77.44-1.88-.33-2.46-.43-.33-.99-.44-1.52-.3Z"/>
                </g>
                <g>
                  <g>
                    <path class="cls-15" d="m285.71,583.95c-4.94-2.27-8.72,1.61-10.45,5.86-2.2,5.41-.55,11.13,1.86,16.15,5.79,12.05,18.03,20.98,20.48,34.1.44.66.95,1.25,1.57,1.68,1.49,1.02,2.57.17,3.32-1.07,1.78-5.61-4.17-15.77-5.59-19.6-2.83-7.56-.91-16.66-1.75-24.59-.56-5.24-4.76-10.38-9.43-12.53Z"/>
                    <path class="cls-4" d="m300.96,642.56h0c-.66.17-1.34.02-2.05-.46-.61-.43-1.16-1.01-1.68-1.8l-.05-.07v-.09c-1.46-7.7-6.23-13.83-11.28-20.32-3.36-4.3-6.82-8.75-9.18-13.67-3.17-6.6-3.76-11.85-1.87-16.51,1.43-3.5,3.75-5.91,6.38-6.6,1.51-.4,3.07-.23,4.66.5,5.07,2.33,9.15,7.75,9.69,12.89.31,2.93.25,6.07.18,9.11-.11,5.24-.22,10.66,1.54,15.37.31.82.84,1.96,1.45,3.29,2.23,4.8,5.59,12.05,4.15,16.59l-.04.09c-.56.93-1.19,1.49-1.9,1.68Zm-2.95-2.67c.44.65.9,1.14,1.4,1.48.49.33.92.44,1.32.34h0c.47-.12.91-.54,1.34-1.24,1.3-4.23-1.97-11.24-4.12-15.9-.62-1.34-1.16-2.49-1.48-3.35-1.82-4.87-1.7-10.38-1.6-15.7.06-3.01.13-6.12-.18-9-.51-4.84-4.37-9.96-9.18-12.18-1.39-.64-2.77-.79-4.07-.45-2.32.61-4.49,2.89-5.79,6.09-1.79,4.41-1.21,9.43,1.85,15.79,2.32,4.84,5.76,9.26,9.08,13.52,4.87,6.27,9.91,12.74,11.42,20.61Z"/>
                  </g>
                  <g>
                    <path class="cls-10" d="m284.62,585.82c-4.19-1.68-8.31,3.04-8.36,7.78-.06,5.56.73,8.21,4.88,15.95,1.51,2.82,3.41,5.7,6.2,7.44,4.17,2.61,4.39-5.46,4.45-7.63.23-7.42,1.37-20.11-7.18-23.53Z"/>
                    <path class="cls-4" d="m289.37,617.87h0c-.67.18-1.43,0-2.27-.51-3.03-1.89-4.99-5.06-6.36-7.61-4.16-7.75-4.99-10.47-4.93-16.15.04-3.8,2.61-7.57,5.72-8.39,1.09-.29,2.18-.22,3.23.21,8.24,3.29,7.81,14.74,7.52,22.31-.02.57-.04,1.12-.06,1.64-.11,3.39-.51,7.89-2.87,8.51Zm-7.6-31.81c-2.76.73-5.04,4.11-5.07,7.55-.06,5.49.75,8.14,4.82,15.73,1.31,2.45,3.19,5.49,6.05,7.28.61.38,1.14.52,1.57.4h0c1.31-.34,2.06-2.91,2.21-7.63.01-.58.04-1.13.06-1.7.28-7.33.7-18.4-6.96-21.46-.88-.35-1.79-.41-2.69-.17Z"/>
                  </g>
                </g>
                <g>
                  <path class="cls-15" d="m406.12,547.71c-.48.12-1,.05-1.44-.26l-40.02-27.63c-.8-.56-1-1.65-.45-2.45.56-.79,1.65-1,2.45-.45l40.02,27.64c.81.55,1,1.64.45,2.44-.25.36-.6.6-1,.7Z"/>
                  <path class="cls-18" d="m406.23,548.13c-.62.16-1.28.05-1.81-.32l-40.02-27.63c-1-.69-1.25-2.06-.56-3.06.67-.96,2.1-1.22,3.06-.56l40.02,27.64c1,.69,1.25,2.06.56,3.06-.3.43-.74.74-1.25.87Zm-40.92-31.04c-.31.09-.57.27-.75.52-.41.6-.27,1.42.34,1.84l40.02,27.64c.57.39,1.43.24,1.83-.34.42-.6.26-1.42-.34-1.83l-40.02-27.63c-.31-.22-.71-.29-1.08-.19Z"/>
                </g>
                <g>
                  <path class="cls-15" d="m392.3,567.71c-.48.13-1,.05-1.44-.26l-40.02-27.63c-.8-.55-1-1.65-.45-2.45.56-.8,1.65-1,2.45-.44l40.02,27.63c.8.55,1,1.65.45,2.45-.25.36-.61.6-1,.7Z"/>
                  <path class="cls-18" d="m392.42,568.14c-.62.17-1.28.05-1.81-.31l-40.02-27.63c-1-.69-1.25-2.07-.56-3.06.67-.96,2.1-1.22,3.06-.56l40.02,27.63c1,.69,1.25,2.06.56,3.06-.29.43-.74.74-1.25.87Zm-40.91-31.03c-.3.08-.57.27-.75.53-.41.6-.26,1.42.34,1.83l40.02,27.64c.57.4,1.44.24,1.84-.33.41-.6.26-1.43-.34-1.84l-40.02-27.63c-.32-.22-.71-.29-1.09-.19Z"/>
                </g>
                <g>
                  <path class="cls-15" d="m394.18,564.49c-.48.13-1.01.05-1.44-.26l-40.02-27.63c-.8-.55-1-1.64-.45-2.44.55-.8,1.65-1,2.45-.45l40.02,27.64c.8.55,1,1.64.45,2.44-.25.36-.6.6-1,.7Z"/>
                  <path class="cls-18" d="m394.3,564.91c-.62.17-1.28.05-1.81-.31l-40.02-27.64c-1-.68-1.25-2.06-.56-3.05.68-.96,2.1-1.22,3.06-.56l40.02,27.64c1.01.68,1.26,2.06.56,3.06-.3.43-.74.74-1.25.87Zm-40.92-31.03c-.31.08-.57.27-.75.52-.41.6-.26,1.42.33,1.83l40.02,27.63c.58.4,1.44.24,1.84-.33.41-.6.26-1.42-.34-1.84l-40.02-27.63c-.31-.22-.71-.29-1.09-.19Z"/>
                </g>
                <g>
                  <g>
                    <path class="cls-15" d="m363.39,547.63c-.7.21-1.34.5-1.94.86-2.12-.81-4.27-2.41-5.72-3.27-2.37-1.44-5.48-3.82-8.44-3.24-.67.13-1.16,1.17-.74,1.74.79,1.1,6.61,6.53,10.63,10.72-.3,1.42-.25,2.94.2,4.43,1.44,4.76,6.47,7.46,11.24,6.01,4.76-1.44,7.45-6.47,6.02-11.23-1.44-4.77-6.47-7.46-11.24-6.02Z"/>
                    <path class="cls-4" d="m368.4,565.39h0c-4.94,1.3-9.97-1.51-11.45-6.4-.43-1.43-.52-2.95-.25-4.41-1.83-1.89-4.01-4.03-5.93-5.91-2.31-2.28-4.13-4.07-4.59-4.69-.26-.35-.31-.84-.13-1.33.2-.54.61-.95,1.08-1.08,2.78-.55,5.55,1.2,7.77,2.61.37.23.72.45,1.06.66.38.23.8.51,1.26.81,1.22.79,2.72,1.77,4.19,2.36.6-.33,1.22-.61,1.85-.79,5.07-1.51,10.27,1.31,11.79,6.31.73,2.42.47,4.97-.72,7.2-1.19,2.23-3.18,3.85-5.59,4.59-.11.03-.22.06-.33.09Zm-21.03-22.99c-.21.05-.41.27-.49.53-.07.21-.07.4.02.52.4.56,2.29,2.42,4.49,4.58,1.98,1.94,4.23,4.15,6.1,6.1l.16.17-.04.23c-.28,1.38-.22,2.84.19,4.21,1.35,4.43,5.9,6.99,10.39,5.81h0c.1-.03.2-.05.3-.09,2.19-.66,3.99-2.14,5.07-4.15,1.08-2.02,1.31-4.34.65-6.53-1.37-4.54-6.12-7.13-10.68-5.73-.62.19-1.25.47-1.85.82l-.18.11-.2-.08c-1.61-.61-3.24-1.67-4.55-2.52-.45-.29-.86-.57-1.24-.79-.34-.21-.7-.44-1.08-.67-2.09-1.33-4.69-2.97-7.05-2.51h0Z"/>
                  </g>
                  <path class="cls-12" d="m369.55,555.53c.5,1.65-.44,3.4-2.09,3.9-1.66.49-3.4-.44-3.9-2.09-.5-1.65.44-3.4,2.09-3.9,1.65-.5,3.4.44,3.9,2.09Z"/>
                </g>
                <g>
                  <path class="cls-15" d="m458.96,432.39c.81,3.08-1.02,6.24-4.11,7.05-3.08.81-6.24-1.03-7.05-4.11-.81-3.08,1.03-6.24,4.11-7.05,3.08-.81,6.24,1.03,7.05,4.11Z"/>
                  <path class="cls-4" d="m454.97,439.86c-3.31.87-6.72-1.11-7.59-4.42-.87-3.31,1.11-6.72,4.42-7.59,3.31-.87,6.71,1.12,7.58,4.42.88,3.31-1.1,6.72-4.42,7.59Zm-2.94-11.16c-2.85.75-4.55,3.67-3.8,6.52.75,2.84,3.67,4.54,6.51,3.79,2.84-.75,4.54-3.67,3.79-6.51-.75-2.84-3.67-4.55-6.51-3.8Z"/>
                </g>
                <g>
                  <path class="cls-15" d="m495.54,383.19c.82,3.08-1.02,6.24-4.1,7.05-3.08.81-6.24-1.02-7.05-4.1-.81-3.08,1.02-6.24,4.11-7.05,3.08-.81,6.24,1.03,7.05,4.11Z"/>
                  <path class="cls-4" d="m491.55,390.66c-3.31.88-6.71-1.11-7.59-4.42-.87-3.31,1.11-6.71,4.42-7.58,3.31-.87,6.72,1.11,7.59,4.42.87,3.31-1.11,6.71-4.42,7.59Zm-2.94-11.15c-2.84.75-4.54,3.67-3.79,6.51.75,2.85,3.67,4.55,6.51,3.8,2.84-.75,4.55-3.67,3.8-6.51-.75-2.84-3.67-4.55-6.51-3.79Z"/>
                </g>
                <g>
                  <path class="cls-15" d="m550.82,314.67c.81,3.08-1.02,6.23-4.11,7.05-3.08.81-6.24-1.03-7.05-4.11-.81-3.08,1.02-6.24,4.11-7.05,3.08-.81,6.23,1.03,7.05,4.11Z"/>
                  <path class="cls-4" d="m546.82,322.13c-3.31.88-6.71-1.11-7.59-4.42-.87-3.31,1.11-6.71,4.42-7.58,3.31-.88,6.71,1.1,7.59,4.42.87,3.31-1.11,6.71-4.42,7.58Zm-2.94-11.15c-2.84.75-4.54,3.67-3.79,6.51.75,2.84,3.67,4.55,6.51,3.79,2.84-.75,4.54-3.67,3.8-6.51-.75-2.84-3.67-4.55-6.52-3.8Z"/>
                </g>
                <g>
                  <path class="cls-15" d="m472.07,414.84c.81,3.08-1.03,6.24-4.11,7.05-3.08.81-6.24-1.02-7.05-4.1-.81-3.08,1.02-6.24,4.11-7.06,3.08-.81,6.23,1.03,7.05,4.11Z"/>
                  <path class="cls-4" d="m468.07,422.31c-3.31.88-6.71-1.1-7.59-4.42-.87-3.31,1.11-6.72,4.42-7.59,3.31-.87,6.72,1.11,7.59,4.42.87,3.31-1.11,6.71-4.42,7.58Zm-2.94-11.16c-2.84.75-4.55,3.67-3.8,6.52.75,2.84,3.67,4.54,6.51,3.79,2.84-.75,4.54-3.67,3.8-6.51-.75-2.84-3.68-4.54-6.52-3.79Z"/>
                </g>
                <g>
                  <path class="cls-15" d="m490.42,386.36c-.52.14-1.1.04-1.55-.33-.76-.6-.88-1.71-.27-2.47l23.92-29.95c.58-.73,1.64-.88,2.41-.32l20.23,14.67c.78.57.96,1.67.39,2.45-.57.78-1.67.96-2.45.39l-18.88-13.68-22.88,28.64c-.24.31-.57.51-.92.6Z"/>
                  <path class="cls-18" d="m490.53,386.79c-.67.18-1.39.03-1.93-.41-.46-.37-.75-.89-.81-1.47-.06-.59.1-1.16.47-1.62l23.93-29.95c.71-.88,2.08-1.07,3.01-.41l20.23,14.67c.98.71,1.2,2.09.49,3.07-.69.95-2.13,1.18-3.07.49l-18.53-13.44-22.62,28.31c-.3.37-.69.63-1.15.75Zm23.02-33.35c-.27.07-.51.23-.69.45l-23.92,29.95c-.22.28-.32.62-.28.97.04.35.21.66.49.89.55.44,1.41.34,1.85-.21l23.14-28.96,19.22,13.92c.57.41,1.43.28,1.84-.3.43-.59.3-1.41-.29-1.84l-20.24-14.66c-.32-.24-.73-.31-1.11-.21Z"/>
                </g>
                <g>
                  <path class="cls-15" d="m550.23,349.98c-.51.14-1.07.04-1.52-.31l-17.53-13.56c-.76-.59-.9-1.69-.32-2.46l13.99-18.23c.59-.77,1.69-.92,2.46-.32.77.59.92,1.69.33,2.46l-12.92,16.85,16.13,12.49c.77.6.91,1.7.32,2.47-.24.32-.58.53-.94.62Z"/>
                  <path class="cls-18" d="m550.34,350.4c-.66.17-1.36.03-1.9-.39l-17.53-13.57c-.95-.73-1.13-2.12-.4-3.08l13.98-18.23c.71-.94,2.15-1.13,3.08-.41.47.35.77.87.84,1.45.08.58-.08,1.16-.44,1.63l-12.65,16.5,15.79,12.22c.47.36.76.88.83,1.46.08.58-.08,1.16-.44,1.62-.3.39-.7.66-1.18.78Zm-4.43-35.2c-.29.07-.53.24-.71.47l-13.99,18.23c-.44.58-.33,1.4.24,1.85l17.52,13.57c.56.43,1.41.32,1.85-.24.21-.28.31-.62.26-.97-.04-.35-.23-.66-.5-.88l-16.48-12.76,13.18-17.2c.21-.28.31-.63.26-.98-.05-.34-.23-.66-.51-.87-.32-.25-.74-.33-1.14-.23Z"/>
                </g>
                <g>
                  <path class="cls-15" d="m475.76,451.45c-.5.13-1.05.04-1.49-.29-.78-.58-.95-1.68-.37-2.46l81.04-109.87c.58-.78,1.68-.95,2.46-.37s.95,1.68.37,2.46l-81.04,109.87c-.24.34-.59.56-.96.66Z"/>
                  <path class="cls-18" d="m475.87,451.88c-.64.17-1.33.04-1.87-.36-.97-.72-1.18-2.1-.46-3.07l81.04-109.88c.7-.94,2.13-1.16,3.07-.46.98.72,1.19,2.1.47,3.07l-81.04,109.87c-.3.4-.73.7-1.21.82Zm80.15-113.28c-.29.08-.55.25-.72.49l-81.04,109.87c-.43.59-.3,1.42.28,1.85.57.42,1.42.29,1.84-.28l81.05-109.88c.43-.58.3-1.41-.28-1.84-.33-.24-.73-.31-1.12-.21Z"/>
                </g>
                <g>
                  <path class="cls-15" d="m464.42,446.41c-.48.12-1.02.04-1.46-.27-.79-.56-.98-1.66-.41-2.45l25.86-36.37c.56-.79,1.66-.98,2.46-.41.79.57.97,1.66.41,2.45l-25.87,36.37c-.25.35-.6.58-.98.69Z"/>
                  <path class="cls-18" d="m464.54,446.83c-.63.17-1.31.05-1.84-.33-.48-.34-.79-.85-.9-1.42-.1-.58.04-1.16.38-1.64l25.86-36.38c.68-.95,2.12-1.19,3.07-.51.48.34.8.84.9,1.42.1.58-.04,1.16-.37,1.64l-25.87,36.37c-.3.42-.73.72-1.23.85Zm24.97-39.77c-.3.08-.56.26-.74.51l-25.87,36.37c-.2.29-.29.64-.23.99.06.35.25.65.54.85.57.41,1.43.27,1.84-.31l25.87-36.37c.2-.29.28-.64.22-.98-.05-.35-.25-.65-.53-.86-.32-.23-.73-.3-1.1-.2Z"/>
                </g>
                <g>
                  <path class="cls-15" d="m480.64,444.71c-.49.13-1.02.05-1.47-.27l-17.79-12.66-7.21,3.65c-.87.44-1.92.09-2.36-.78-.44-.87-.09-1.93.77-2.36l8.16-4.12c.58-.29,1.29-.24,1.81.14l18.65,13.27c.79.56.98,1.66.42,2.45-.25.35-.6.58-.99.68Z"/>
                  <path class="cls-18" d="m480.76,445.13c-.63.17-1.3.05-1.84-.33l-17.57-12.5-6.97,3.52c-1.07.53-2.42.09-2.95-.97-.55-1.08-.11-2.4.97-2.95l8.16-4.12c.74-.36,1.61-.29,2.26.17l18.65,13.27c.48.34.8.85.9,1.43.09.58-.04,1.16-.38,1.64-.3.42-.74.72-1.23.85Zm-19.33-13.86l18.01,12.81c.57.41,1.43.26,1.84-.31.2-.29.28-.63.23-.98-.06-.34-.26-.65-.54-.85l-18.65-13.27c-.39-.28-.93-.32-1.36-.1l-8.16,4.13c-.65.32-.91,1.12-.58,1.77.32.63,1.13.91,1.78.58l7.44-3.76Z"/>
                </g>
                <g>
                  <path class="cls-15" d="m493.91,426.05c-.49.13-1.03.05-1.47-.27l-17.79-12.65-7.21,3.64c-.87.44-1.93.09-2.36-.78-.44-.87-.09-1.92.77-2.36l8.16-4.12c.58-.29,1.28-.24,1.81.13l18.65,13.27c.79.56.98,1.66.41,2.45-.25.35-.6.58-.98.68Z"/>
                  <path class="cls-18" d="m494.02,426.48c-.63.16-1.3.04-1.83-.34l-17.58-12.49-6.97,3.52c-1.06.54-2.42.09-2.96-.97-.55-1.08-.11-2.41.97-2.96l8.15-4.12c.74-.37,1.61-.3,2.27.17l18.65,13.27c.48.34.8.85.9,1.43.1.58-.04,1.16-.38,1.64-.3.42-.73.72-1.23.86Zm-19.32-13.86l18.01,12.81c.57.41,1.43.26,1.83-.31.2-.29.28-.64.23-.99-.06-.35-.25-.65-.54-.85l-18.66-13.27c-.39-.28-.92-.32-1.36-.1l-8.16,4.13c-.65.33-.91,1.12-.58,1.77.32.64,1.12.91,1.77.59l7.45-3.77Z"/>
                </g>
                <g>
                  <path class="cls-15" d="m493.98,403.68s20.21,4.6,9.98,22.15c-10.23,17.55-37.37,52.72-47.03,57.3-9.66,4.59,1.14-25.92,31.98-56.67,0,0,10.47-6.04,12-11.35,1.53-5.31-7.41-8.86-7.41-8.86l.48-2.59Z"/>
                  <path class="cls-4" d="m456.1,483.92c-1.59.42-2.31-.37-2.6-.87-2.75-4.79,8.79-30.66,35.1-56.89l.09-.06c.1-.06,10.33-6.01,11.8-11.09,1.4-4.87-7.06-8.29-7.15-8.32l-.34-.14.63-3.38.45.1c.38.09,9.36,2.2,12.3,8.99,1.7,3.92,1.02,8.56-2.04,13.81-10.38,17.81-37.64,52.94-47.23,57.49-.36.17-.7.3-1.01.38Zm33.08-57.1c-26.49,26.41-37.25,51.72-34.92,55.79.19.33.56.73,1.61.46.26-.06.56-.18.86-.32,9.47-4.49,36.51-39.41,46.84-57.13,2.91-4.99,3.58-9.36,2-13.01-2.41-5.56-9.41-7.85-11.25-8.37l-.33,1.76c1.68.73,8.8,4.16,7.33,9.25-1.52,5.28-11.26,11.06-12.15,11.58Z"/>
                </g>
                <g>
                  <path class="cls-15" d="m403.69,557.44s-1.62-9.57-9.4-1.16c-7.78,8.41,2.87,7.43-8.04,21.21-10.92,13.79-44.63,61.78-44.63,61.78,0,0-2.9,6.22,4.12,5.28l54.28-73.42s4.21-4.74,3.66-13.69Z"/>
                  <path class="cls-4" d="m345.98,644.96l-.18.03c-2.29.31-3.84-.09-4.64-1.18-1.29-1.76,0-4.61.06-4.73.38-.55,33.88-48.22,44.68-61.86,5.82-7.37,5.39-10.34,5.01-12.95-.34-2.31-.63-4.3,3.05-8.29,3.07-3.32,5.69-4.34,7.64-3.07,1.95,1.25,2.49,4.33,2.51,4.46.55,9.07-3.59,13.86-3.76,14.06l-54.38,73.54Zm-4-5.43s-1.1,2.44-.12,3.76c.58.78,1.8,1.06,3.63.85l54.18-73.27c.06-.08,4.1-4.77,3.57-13.41h0s-.5-2.78-2.12-3.82c-1.59-1.02-3.8,0-6.52,2.93-3.39,3.68-3.14,5.39-2.83,7.56.39,2.66.88,5.97-5.19,13.63-10.78,13.61-44.26,61.25-44.61,61.76h0Z"/>
                </g>
                <g>
                  <path class="cls-15" d="m364.41,587.8l29.56-39.62s5.64-9.67,19.55-5.15c13.92,4.51,7.44,14.4-1.12,13.02-8.54-1.38-13.92-4.51-18.12.23-4.2,4.75-26.2,35.1-26.2,35.1,0,0-6.58,2.64-3.68-3.58Z"/>
                  <path class="cls-4" d="m367.22,592.12c-1.2.32-2.79.5-3.56-.43-.66-.8-.55-2.13.36-4.07l.04-.08,29.56-39.62c.08-.14,2.64-4.43,8.54-5.99,3.45-.91,7.32-.68,11.51.67,5.42,1.76,8.49,4.62,8.4,7.86-.07,2.63-2.28,4.97-5.49,5.82-1.36.36-2.78.42-4.23.19-2.12-.34-4.08-.8-5.8-1.2-3.5-.82-6.26-1.47-8.59-.85-1.26.33-2.35,1.03-3.33,2.14-4.14,4.68-25.96,34.76-26.18,35.06l-.08.1-.12.05s-.44.18-1.03.33Zm-2.43-4.09c-.7,1.52-.86,2.61-.46,3.1.36.44,1.34.49,2.66.15.37-.1.66-.2.82-.25,1.65-2.28,22.06-30.41,26.15-35.03,1.1-1.24,2.33-2.02,3.76-2.4,2.55-.67,5.4,0,9.02.84,1.71.4,3.65.85,5.74,1.19,1.32.22,2.62.15,3.86-.17,2.83-.74,4.78-2.75,4.84-4.99.08-2.82-2.77-5.37-7.8-7-4.02-1.31-7.72-1.53-11-.66-5.53,1.46-8.01,5.58-8.03,5.62l-29.56,39.62Z"/>
                </g>
                <g>
                  <path class="cls-15" d="m431.25,517.13c-.48.13-1.01.05-1.45-.25l-25.54-17.52c-.8-.55-1.01-1.64-.45-2.44.55-.8,1.64-1.01,2.44-.45l25.53,17.51c.81.55,1.01,1.64.46,2.44-.25.36-.61.6-1,.7Z"/>
                  <path class="cls-18" d="m431.36,517.56c-.62.17-1.28.05-1.81-.31l-25.53-17.52c-1-.69-1.26-2.06-.57-3.05.67-.96,2.1-1.23,3.06-.57l25.53,17.52c1,.69,1.25,2.06.57,3.06-.29.43-.74.74-1.25.88Zm-26.43-20.91c-.31.08-.57.27-.75.53-.41.6-.26,1.42.34,1.83l25.53,17.52c.57.39,1.44.24,1.83-.34.41-.6.26-1.42-.34-1.84l-25.53-17.52c-.31-.22-.71-.28-1.08-.18Z"/>
                </g>
                <g>
                  <path class="cls-15" d="m484.26,364.34c.51,1.94-.65,3.92-2.57,4.42-1.93.51-3.91-.64-4.42-2.58-.51-1.93.64-3.91,2.57-4.42,1.94-.51,3.91.64,4.42,2.58Z"/>
                  <path class="cls-4" d="m481.79,369.19c-2.16.57-4.39-.72-4.96-2.9-.57-2.16.73-4.38,2.89-4.96,2.17-.57,4.39.73,4.96,2.89.57,2.17-.72,4.39-2.89,4.96Zm-1.84-7c-1.7.45-2.72,2.19-2.26,3.88.45,1.7,2.19,2.71,3.89,2.26,1.7-.44,2.71-2.19,2.26-3.88-.45-1.7-2.19-2.71-3.88-2.26Z"/>
                </g>
                <g>
                  <path class="cls-15" d="m438.07,422.49c-4.78,4.17-8.38,9.27-14.4,12.23-7.32,3.61-15.96,3.55-23.27,7.32-8.82,4.55-18.14,16.75-12.84,24.56,2.47,3.65,8.64,3.2,12.48.48,4.59-3.26,6.18-8.14,8.28-12.59,1.64-3.48,4.02-6.04,7.83-8.01,3.04-1.58,6.3-2.75,9.11-4.7,6.09-4.22,9.86-9.94,13.04-15.86.43-.8.04-1.93-1.1-1.09-.48.36-.95.67-1.41.98.83-.99,1.67-1.95,2.59-2.87.25-.25.08-.77-.29-.44Z"/>
                  <path class="cls-17" d="m396.33,469.27c-3.86,1.02-7.45.06-9.14-2.42-1.64-2.42-2.04-5.32-1.19-8.64,1.78-6.99,8.49-13.62,14.2-16.56,2.07-1.07,4.44-1.94,7.47-2.74,1.49-.39,3.02-.74,4.5-1.08,1.47-.33,2.99-.68,4.46-1.07,2.77-.73,4.94-1.51,6.84-2.45,4.05-1.99,6.93-4.91,9.98-8,1.37-1.39,2.8-2.83,4.33-4.17.36-.32.83-.26,1.03.1.18.3.11.72-.15.98-.27.27-.54.55-.82.85.32-.02.59.11.78.36.33.41.34,1.1.03,1.67-2.91,5.42-6.75,11.56-13.18,16.01-1.88,1.31-3.98,2.28-6.01,3.22-1.04.48-2.11.98-3.14,1.52-3.61,1.87-5.97,4.28-7.63,7.8-.33.71-.66,1.43-.98,2.16-1.72,3.84-3.49,7.8-7.44,10.61-1.15.82-2.52,1.44-3.96,1.83Zm11.57-29.5c-2.97.78-5.29,1.63-7.3,2.66-5.53,2.85-12.04,9.26-13.75,15.99-.79,3.06-.43,5.73,1.07,7.93,1.47,2.17,4.69,2.98,8.18,2.06,1.34-.35,2.61-.94,3.68-1.7,3.76-2.67,5.48-6.53,7.14-10.25.33-.73.65-1.46.99-2.17,1.72-3.66,4.27-6.27,8.02-8.21,1.04-.54,2.12-1.04,3.18-1.53,2-.93,4.06-1.88,5.88-3.14,6.28-4.36,10.04-10.39,12.9-15.71.16-.3.13-.61.05-.72-.01-.02-.07-.13-.5.19-.37.27-.73.52-1.1.76l-2.93,1.99,1.68-2.01c-.34.34-.68.68-1.01,1.02-2.96,3-6.04,6.12-10.22,8.17-1.95.96-4.18,1.76-7,2.5-1.49.4-3.01.74-4.49,1.08-1.47.34-3,.68-4.47,1.07Z"/>
                </g>
                <path class="cls-12" d="m277.01,587.45c-1.93,2.27-2.47,5.13-2.49,8.05,0,.32.41.06.43-.15.27-2.78.57-5.43,2.16-7.81.06-.08-.03-.16-.1-.09Z"/>
                <path class="cls-12" d="m332.79,601.53c-4.02-1.96-5.89-5.94-4.32-10.26.06-.18-.15-.23-.23-.08-2.21,4.08-.95,10.2,4.3,10.88.22.03.49-.42.25-.54Z"/>
                <path class="cls-12" d="m364.02,562.75c-2.02-.86-3.62-2.38-4.39-4.49-.54-1.46-1.1-3.8.12-5.02.09-.09.09-.34-.09-.26-1.6.79-1.39,3.31-1.07,4.74.56,2.55,2.39,5.31,5.26,5.4.14,0,.35-.29.17-.37Z"/>
                <path class="cls-12" d="m373.35,502.4c-9.22,11.55-17.58,23.76-26.9,35.2-.08.09,0,.23.1.12,4.55-5.22,8.61-10.8,12.7-16.4,4.64-6.33,9.68-12.33,14.29-18.68.13-.19,0-.48-.18-.25Z"/>
                <path class="cls-12" d="m327.68,560.82c-9.21,11.55-17.58,23.76-26.9,35.2-.07.09,0,.23.09.12,4.56-5.22,8.62-10.81,12.71-16.39,4.64-6.33,9.69-12.34,14.29-18.69.13-.19,0-.48-.19-.24Z"/>
                <path class="cls-12" d="m391.04,536.54c-7.26-4.97-15.07-9.29-22.07-14.6-.1-.08-.25.16-.14.25,3.4,2.71,7.07,5,10.71,7.35,3.78,2.44,7.3,5.26,11.31,7.33.15.08.33-.22.19-.32Z"/>
                <path class="cls-12" d="m405.64,543.64c-7.2,1.41-11.34,8.02-15.76,13.34-6.24,7.5-11.5,15.74-17.72,23.26-.06.08,0,.2.08.1,5.32-6.17,9.82-12.95,14.94-19.28,2.33-2.87,4.72-5.7,7.16-8.48,3.39-3.86,6.42-6.52,11.27-8.29.24-.09.41-.73.03-.66Z"/>
                <path class="cls-12" d="m394.11,559.46c-.44,1.62-.74,3.12-.77,4.83-.08,4.42-.76,7.88-3.01,11.68-3.17,5.33-7.3,10.12-10.8,15.24-.13.19.08.41.23.2,3.72-5.02,7.79-9.84,11.23-15.06,3.65-5.55,2.38-10.72,3.37-16.89.03-.2-.21-.13-.24,0Z"/>
                <path class="cls-12" d="m416.86,563.91c-1.93,4.63-6.73,6.03-10.73,8.31-3.21,1.83-6.16,4.1-9.19,6.22-.07.05-.08.25.04.18,5.01-2.76,9.98-5.58,15-8.32,2.58-1.41,4.6-3.49,5.16-6.41.05-.24-.22-.13-.27,0Z"/>
                <path class="cls-12" d="m403.76,579.36c-2.26,1.91-4.21,4.12-6.92,5.44-.09.05-.18.33-.01.28,2.83-.84,5.23-3.07,7.23-5.17.24-.26.09-.87-.29-.55Z"/>
                <path class="cls-12" d="m495.16,426.79c-15.32,12.99-32.1,29.44-37.33,49.48-.07.28.23.28.31.04,2.95-9.76,9.51-18.73,15.68-26.71,6.37-8.23,13.88-15.42,21.42-22.55.11-.11.1-.42-.09-.26Z"/>
                <path class="cls-12" d="m382.26,474.57c-5.48,4.48-11.59,8.73-15.61,14.69-1.62,2.41-5.44,7.82-2.85,10.61.13.14.31-.14.23-.26-2.57-3.97,3.92-10.84,6.18-13.36,3.65-4.08,8.14-7.46,12.25-11.08.28-.24.22-.95-.2-.6Z"/>
                <path class="cls-12" d="m427.05,434.72c-2.71,1.59-5.34,3.26-8.19,4.6-3.38,1.59-7.1,2.02-10.73,2.71-4.12.79-7.95,2.79-11.34,5.19-5.87,4.15-10.4,10.97-7.96,18.28.06.19.29-.07.26-.21-2.24-9.46,5.63-16.39,13.28-20.23,4.24-2.13,8.97-2.56,13.46-3.89,4.09-1.21,7.79-3.74,11.28-6.13.13-.08.14-.43-.06-.31Z"/>
                <path class="cls-12" d="m407.39,461.47c-1.27,1.73-2.87,3.19-4.4,4.68-.09.09-.03.29.1.19,1.71-1.36,3.36-2.78,4.61-4.59.18-.25-.1-.56-.31-.28Z"/>
                <path class="cls-12" d="m478.72,363.9c-.28.58-.49,1.14-.49,1.8,0,.59.06,1.53.72,1.76.32.11.63-.27.6-.58-.06-.49-.33-.81-.52-1.25-.21-.49-.23-1.12-.09-1.64.05-.18-.14-.24-.22-.07Z"/>
                <path class="cls-12" d="m452.91,401.31c-2.28,2.58-4.08,5.54-6.26,8.21-1.22,1.49-2.61,2.86-3.81,4.38-1.08,1.35-1.71,3.16-3.17,4.18-.06.04-.07.19.02.15,2.39-1.49,3.71-4.59,5.62-6.65,2.9-3.11,5.23-6.62,7.81-9.98.16-.22.01-.56-.23-.29Z"/>
                <path class="cls-12" d="m462.75,413.63c-.55,1.83-1.65,4.8.49,6.09.27.17.57-.33.48-.55-.35-.87-.88-1.57-1.04-2.53-.16-.97.05-2.06.24-3.02.02-.14-.14-.09-.17,0Z"/>
                <path class="cls-12" d="m449.74,435.16c-.25-.81-.23-1.72-.16-2.56,0-.26-.26-.12-.3.06-.28,1.39-.69,4.04.92,4.81.31.15.55-.35.42-.6-.31-.58-.69-1.07-.88-1.71Z"/>
                <path class="cls-12" d="m469.82,435.91c-2.86-2.13-5.94-5.58-9.77-5.5-.09,0-.19.21-.08.21,3.97.29,6.22,4.16,9.57,5.77.23.11.49-.34.28-.49Z"/>
                <path class="cls-12" d="m484.86,418.74c-2.18-1.81-4.68-3.22-6.97-4.91-1.38-1.02-2.3-2.77-4.19-2.31-.14.03-.27.35-.05.34,1.65-.11,3.71,2.5,4.97,3.46,1.88,1.42,3.9,2.74,5.92,3.96.25.15.52-.36.32-.54Z"/>
                <path class="cls-12" d="m532.4,372.6c-7.39,10.33-15.01,20.86-23.01,30.7-.09.12,0,.31.13.16,4.16-4.82,7.87-10.15,11.74-15.21,3.88-5.06,8.05-10,11.42-15.42.14-.23-.09-.5-.28-.24Z"/>
                <path class="cls-12" d="m510.9,357.57c-6.68,7.64-12.72,15.92-18.92,23.95-.08.1,0,.25.11.13,6.52-7.73,13.08-15.58,19.12-23.7.22-.3,0-.73-.31-.38Z"/>
                <path class="cls-12" d="m546.16,315.87c-5.26,6.14-10.02,12.81-14.89,19.27-.06.08,0,.19.08.1,5.14-6.21,10.31-12.52,15.06-19.05.17-.24,0-.59-.25-.31Z"/>
                <path class="cls-12" d="m608.85,231.66c-8.61,10.06-16.4,21.01-24.38,31.6-.1.13.01.33.14.17,8.41-10.2,16.87-20.55,24.65-31.26.28-.39-.01-.97-.41-.51Z"/>
                <path class="cls-12" d="m624.8,204.36c-5.26,6.14-10.02,12.8-14.9,19.26-.06.08,0,.2.09.1,5.14-6.21,10.3-12.52,15.06-19.06.17-.24,0-.59-.25-.31Z"/>
                <path class="cls-12" d="m572.88,270.95c-5.9-4.18-11.69-4.63-18.74-4.74-.15,0-.3.31-.12.32,3.18.3,6.38.43,9.52,1.05,3.13.63,6.22,2.44,9.12,3.74.18.08.38-.26.22-.38Z"/>
              </g>
            </g>
          </g>
        </g>
      </g>
    </g>
  </g>
</svg>