<?xml version="1.0" encoding="UTF-8"?>
<svg id="Layer_2" data-name="Layer 2" xmlns="http://www.w3.org/2000/svg" xmlns:xlink="http://www.w3.org/1999/xlink" viewBox="0 0 91 91">
  <defs>
    <style>
      .cls-1 {
        fill: #fff;
        filter: url(#drop-shadow-1);
      }
    </style>
    <filter id="drop-shadow-1" filterUnits="userSpaceOnUse">
      <feOffset dx="7" dy="7"/>
      <feGaussianBlur result="blur" stdDeviation="5"/>
      <feFlood flood-color="#000" flood-opacity=".25"/>
      <feComposite in2="blur" operator="in"/>
      <feComposite in="SourceGraphic"/>
    </filter>
  </defs>
  <g id="Camada_1" data-name="Camada 1">
    <g>
      <circle class="cls-1" cx="38.39" cy="38.21" r="30"/>
      <g>
        <path d="m38.38,54.13c-7.55-.02-14.06-5.33-15.61-12.73-1.64-7.82,2.9-15.76,10.46-18.32,2.61-.88,5.27-1.09,7.98-.61.52.09.86.39.93.83.08.48-.12.83-.64,1.13-1,.57-1.37,1.62-.92,2.6.22.48.59.82,1.09,1.01.77.31.95.63.79,1.44-.51,2.73,1.9,5.13,4.63,4.62.8-.15,1.12.03,1.43.78.32.77.89,1.23,1.72,1.28.83.05,1.46-.33,1.87-1.05.4-.7,1.03-.93,1.55-.49.2.16.37.44.41.7.79,4.6-.18,8.8-3,12.52-2.38,3.14-5.54,5.13-9.4,5.94-1.08.23-2.2.3-3.3.44,0-.03,0-.06-.01-.08Zm.48-29.88c-4.54-.3-10.38,2.18-13.09,8.01-2.71,5.83-1.18,12.57,3.73,16.65,4.78,3.99,11.76,4.31,16.8.77,2.62-1.84,4.45-4.27,5.42-7.32.49-1.52.71-3.08.63-4.69-.08.02-.11.03-.14.04-1.85.98-4.09.32-5.17-1.39-.05-.09-.21-.14-.33-.15-.39-.03-.79-.01-1.18-.06-2.98-.38-5.29-3.15-5.12-6.13.01-.25-.06-.38-.26-.53-1.32-.95-1.92-2.23-1.68-3.86.07-.45.25-.89.39-1.35Z"/>
        <path d="m36.41,30.2c0,1.1-.92,2-2.01,1.99-1.09-.01-1.98-.91-1.97-2,0-1.1.92-2,2.01-1.99,1.09.01,1.98.91,1.97,2Z"/>
        <path d="m30.44,36.18c1.1.01,2,.93,1.98,2.02-.02,1.09-.93,1.97-2.01,1.96-1.1-.01-2-.93-1.98-2.02.02-1.09.93-1.97,2.01-1.96Z"/>
        <path d="m40.4,48.14c-1.1,0-2-.92-1.99-2.01.01-1.09.91-1.98,1.99-1.98,1.1,0,2,.92,1.99,2.01-.01,1.09-.91,1.98-1.99,1.98Z"/>
        <path d="m39.41,38.17c.54,0,.99.45.99.99,0,.56-.46,1.01-1.02,1-.54-.01-.98-.47-.97-1.01,0-.54.46-.99,1-.98Z"/>
        <path d="m46.38,43.13c.01-.54.47-.98,1.01-.97.56,0,1,.48.98,1.04-.02.54-.49.97-1.03.95-.54-.02-.98-.48-.96-1.02Z"/>
        <path d="m34.41,45.15c0,.54-.44.99-.99,1-.56,0-1.01-.45-1.01-1.01,0-.54.46-.99,1-.98.54,0,.99.45.99.99Z"/>
      </g>
    </g>
  </g>
</svg>