<?xml version="1.0" encoding="UTF-8"?>
<svg id="Layer_2" data-name="Layer 2" xmlns="http://www.w3.org/2000/svg" viewBox="0 0 126.99 126.99">
  <defs>
    <style>
      .cls-1 {
        fill: #fff;
      }

      .cls-2 {
        fill: #fccd00;
      }
    </style>
  </defs>
  <g id="Camada_1" data-name="Camada 1">
    <g>
      <rect class="cls-1" x="27.52" y="23.57" width="76.14" height="76.14" rx="10.4" ry="10.4"/>
      <path class="cls-2" d="m63.49,0C28.43,0,0,28.43,0,63.49s28.43,63.49,63.49,63.49,63.5-28.43,63.5-63.49S98.56,0,63.49,0Zm-5.75,81.9c0,3.3-2.68,5.98-5.98,5.98s-5.98-2.68-5.98-5.98v-36.81c0-3.3,2.68-5.98,5.98-5.98,1.65,0,3.15.67,4.23,1.75,1.08,1.08,1.75,2.58,1.75,4.23v36.81Zm23.46,0c0,3.3-2.68,5.98-5.98,5.98s-5.98-2.68-5.98-5.98v-36.81c0-3.3,2.68-5.98,5.98-5.98,1.65,0,3.15.67,4.23,1.75,1.08,1.08,1.75,2.58,1.75,4.23v36.81Z"/>
    </g>
  </g>
</svg>