<?xml version="1.0" encoding="UTF-8"?>
<svg xmlns="http://www.w3.org/2000/svg" xmlns:xlink="http://www.w3.org/1999/xlink" viewBox="0 0 657.6 597.49">
  <defs>
    <style>
      .cls-1, .cls-2 {
        opacity: .85;
      }

      .cls-3 {
        isolation: isolate;
      }

      .cls-4, .cls-5, .cls-6, .cls-2 {
        stroke-width: 0px;
      }

      .cls-7 {
        mix-blend-mode: soft-light;
      }

      .cls-5 {
        fill: none;
      }

      .cls-6, .cls-2 {
        fill: #ccc;
      }

      .cls-8 {
        clip-path: url(#clippath);
      }
    </style>
    <clipPath id="clippath">
      <rect class="cls-5" width="657.6" height="597.49" rx="20.47" ry="20.47"/>
    </clipPath>
  </defs>
  <g class="cls-3">
    <g id="Layer_2" data-name="Layer 2">
      <g id="Camada_1" data-name="Camada 1">
        <g class="cls-7">
          <g class="cls-8">
            <path class="cls-2" d="m647.24,204.03l-4.21-2.02c.31-.3.59-.62.8-.99.04-.07.07-.14.1-.21v.03s11.51-23.93,11.51-23.93l-.82-.39-10.59,22.02c-.15-.46-.43-.91-.79-1.29-.51-.54-1.15-.97-1.82-1.31-1.37-.67-2.92-.94-4.38-.87-1.47.07-2.89.55-3.96,1.38-.2.15-.38.32-.56.49l-3.11-1.5-.33.68,2.92,1.4c-.48.65-.77,1.41-.65,2.24.22,1.35,1.46,2.43,2.77,3.1,1.34.69,2.88.99,4.35.92,1.43-.08,2.83-.49,3.94-1.26l4.53,2.18.32-.68Zm-13.56-6.8c1.14-.42,2.38-.57,3.6-.64,1.23-.06,2.5.02,3.71.35,1.19.31,2.42,1.03,2.74,2.17.1,1.11-.8,1.91-1.79,2.36l-8.56-4.12c.1-.04.2-.09.29-.13Zm4.53,5.05c-1.23.06-2.5.02-3.74-.3-.62-.16-1.22-.41-1.73-.79-.5-.38-.88-.89-.98-1.46-.1-.56.09-1.12.47-1.55.11-.14.25-.25.39-.37l8.35,4.02c-.88.26-1.81.39-2.75.44Z"/>
            <path class="cls-2" d="m537.2,351.32l3.58,2.52c-.34.23-.64.49-.89.8-.05.06-.08.12-.13.18v-.03s-14.35,20.39-14.35,20.39l.7.49,13.21-18.76c.07.45.26.91.54,1.32.39.58.91,1.08,1.49,1.5,1.16.84,2.56,1.32,3.93,1.48,1.37.16,2.76-.07,3.89-.67.21-.11.4-.24.6-.37l2.65,1.87.4-.58-2.49-1.75c.55-.53.93-1.18.95-1.97,0-1.28-.98-2.48-2.09-3.3-1.13-.85-2.52-1.37-3.89-1.53-1.34-.15-2.7.01-3.84.56l-3.86-2.71-.4.58Zm11.51,8.39c-1.12.22-2.29.16-3.43.04-1.15-.14-2.31-.41-3.39-.9-1.06-.47-2.08-1.33-2.21-2.44.08-1.05,1.03-1.64,2.02-1.91l7.3,5.14c-.1.03-.2.06-.29.08Zm-3.42-5.38c1.15.14,2.32.37,3.42.85.55.24,1.07.57,1.48,1,.41.43.68.96.68,1.5,0,.53-.25,1.03-.67,1.36-.13.11-.27.2-.42.28l-7.11-5.01c.85-.1,1.74-.08,2.62.01Z"/>
            <path class="cls-2" d="m398.65,380.68h-4.79v-29.25h-1.14v29.25h-2.98c-.46-.08-.92-.12-1.39-.12-.54,0-1.07.04-1.59.12h-12.95v.94h9.85c-.24.11-.5.22-.73.34-1.62.88-2.96,2.2-3.73,3.72-.75,1.48-1.11,3.27-.16,4.69.98,1.41,2.97,1.95,4.82,2,1.89.05,3.8-.45,5.42-1.32,1.61-.88,3.01-2.14,3.83-3.66.41-.76.69-1.57.74-2.4,0-.1,0-.19,0-.29l.02.03v-3.11h4.79v-.94Zm-6.84,6.06c-1,1.1-2.27,1.99-3.62,2.74-1.36.74-2.82,1.38-4.39,1.7-.79.15-1.61.2-2.39.05-.77-.15-1.48-.53-1.9-1.11-.42-.58-.51-1.32-.31-2,.18-.69.61-1.32,1.12-1.87,1.06-1.1,2.38-1.93,3.73-2.68,1.36-.74,2.83-1.33,4.39-1.62,1.52-.29,3.3-.15,4.28.97.77,1.27.06,2.77-.91,3.84Zm.91-4.67c-.16-.17-.33-.32-.53-.46h.53v.46Z"/>
            <path class="cls-2" d="m131.18,515.51c3.65-6.02,6.59-10.68,18.23-19.82-17.24,21.69-19.78,37.94-12.03,56.25,2.73,6.45,11.69,11.71,20.05,8.11,1.82-.79,8.41-2.61,10.04-12.98-.78,1.21-1.91,2.2-3.34,2.78-3.69,1.49-7.88-.29-9.37-3.98-1.49-3.68.29-7.88,3.98-9.36,3.68-1.49,7.88.29,9.37,3.98.23.56.35,1.14.43,1.72l.17-.21c1.99,7.24-.25,12.96-2.32,16.03-2.62,3.88-6.41,7.21-10.85,8.81-15.21,5.5-23.29-5.88-25.52-9.72-8.73-15.07-4.81-31.75,1.16-41.59Zm-8.44,57.74c2.36-.95,3.5-3.64,2.55-6-.95-2.36-3.64-3.5-6-2.55-2.36.95-3.5,3.64-2.55,6,.95,2.36,3.64,3.5,6,2.55Zm-8.13-20.15c2.36-.95,3.5-3.64,2.55-6.01-.95-2.36-3.64-3.5-6-2.55-2.36.95-3.5,3.64-2.55,6,.95,2.36,3.64,3.5,6,2.55Z"/>
            <path class="cls-2" d="m600.49,288.17c.42,1.82-.72,3.64-2.54,4.06-1.82.42-3.64-.72-4.06-2.54-.42-1.82.71-3.64,2.54-4.06,1.82-.42,3.64.72,4.06,2.54Zm-1.9,6.82c-6.78,1.56-13.18.45-16.73-2.47,2.31,4.93,9.67,7.44,17.47,5.64,7.8-1.79,13.32-7.26,13.24-12.71-1.92,4.18-7.19,7.97-13.97,9.54Z"/>
            <path class="cls-2" d="m474.47,157.37l-.75-.32-8.69,20.27c-.15-.41-.42-.81-.76-1.13-.48-.47-1.07-.83-1.69-1.11-1.26-.56-2.66-.73-3.99-.61-1.32.12-2.58.61-3.52,1.4-.92.77-1.67,1.85-1.43,3.06.25,1.21,1.41,2.13,2.62,2.69,1.24.57,2.64.78,3.96.66,1.32-.13,2.59-.56,3.57-1.33.48-.38.9-.84,1.17-1.37.03-.06.05-.13.08-.2v.03s9.45-22.02,9.45-22.02Z"/>
            <path class="cls-2" d="m598.15,270.82l.33.44,11.89-8.98c-.05.29-.02.61.07.92.12.43.35.85.62,1.22.55.75,1.32,1.32,2.13,1.69.82.37,1.72.51,2.53.36.8-.14,1.6-.53,1.87-1.31.26-.79-.12-1.73-.64-2.45-.54-.75-1.29-1.34-2.1-1.71-.82-.37-1.71-.54-2.54-.41-.41.06-.81.2-1.15.42-.04.03-.08.06-.11.09v-.02s-12.91,9.76-12.91,9.76Z"/>
            <path class="cls-2" d="m640.87,78.09l1.1-.3-8.05-29.57c.52.32,1.15.51,1.81.57.93.1,1.89-.02,2.81-.25,1.85-.49,3.53-1.51,4.86-2.78,1.33-1.28,2.28-2.9,2.62-4.57.34-1.63.22-3.45-1.08-4.56-1.31-1.1-3.38-1.11-5.18-.67-1.84.45-3.55,1.43-4.88,2.7-1.32,1.27-2.34,2.85-2.73,4.53-.2.84-.25,1.69-.08,2.51.02.1.05.19.08.28l-.03-.03,8.75,32.13Zm-7.3-34.61c.68-1.33,1.66-2.52,2.78-3.6,1.12-1.07,2.35-2.07,3.79-2.79.72-.35,1.5-.62,2.29-.68.78-.05,1.57.12,2.12.58.55.45.84,1.13.83,1.85.01.71-.24,1.44-.59,2.1-.73,1.34-1.79,2.49-2.89,3.56-1.12,1.07-2.38,2.03-3.81,2.71-1.39.69-3.14,1.02-4.39.2-1.07-1.03-.79-2.65-.14-3.94Z"/>
            <path class="cls-2" d="m435.9,123.89c-5.78-6.47-9.55-1.33-14.37-2.72l-.5-.64-.63.49,16.07,20.6.04.02c-.41-.06-.86-.01-1.28.12-.61.19-1.19.51-1.71.91-1.05.8-1.85,1.9-2.35,3.06-.51,1.17-.68,2.45-.45,3.6.22,1.12.78,2.25,1.9,2.61,1.13.35,2.44-.2,3.46-.95,1.05-.77,1.88-1.85,2.38-3.01.5-1.16.73-2.43.53-3.61-.1-.58-.29-1.14-.61-1.62-.1-.15-.22-.29-.36-.41l-7-8.99c2.86.74,5.09-4.53,14.65,4.38-1.19-2.01-8.82-12.77-9.77-13.83Zm-.87,1.3c-3.66-1.39-6.64,1.1-10.16.27l-.73-.94c2.86.77,5.05-3.15,10.89.67Zm-6.81,4.57l-.68-.87c2.71.87,4.97-3.71,11.22,1.03-3.91-2.04-6.87.64-10.55-.16Z"/>
            <path class="cls-2" d="m410,188.1c4.69-11.69-4.43-13.27-5.72-20.45l.51-1.06-1.04-.5-16.43,34.18v.07c-.19-.57-.53-1.12-.98-1.58-.64-.68-1.44-1.22-2.29-1.64-1.71-.85-3.66-1.18-5.5-1.09-1.84.1-3.62.7-4.97,1.73-1.32,1.01-2.42,2.47-2.17,4.16.27,1.69,1.83,3.05,3.47,3.89,1.68.87,3.62,1.24,5.46,1.16,1.83-.1,3.63-.63,5.04-1.64.7-.5,1.3-1.12,1.71-1.84.14-.23.23-.48.3-.73l7.17-14.9c.88,4.19,9.17,3.69,3.76,21.88,1.85-2.85,10.92-19.7,11.69-21.62Zm-2.26-.29c-.56-5.66-5.71-7.93-6.9-13.03l.75-1.56c.84,4.21,7.35,4.54,6.15,14.59Zm-10.33-5.91l.69-1.44c.61,4.08,8.03,4.07,5.9,15.26.13-6.4-5.26-8.52-6.59-13.82Z"/>
            <path class="cls-2" d="m580.94,95.43c3.25-8.12-3.07-9.21-3.97-14.19l.35-.74-.72-.35-11.4,23.72v.05c-.13-.4-.37-.78-.68-1.1-.44-.47-1-.85-1.59-1.14-1.19-.59-2.54-.82-3.82-.75-1.28.07-2.51.48-3.45,1.2-.92.7-1.68,1.71-1.51,2.89.19,1.17,1.27,2.11,2.41,2.7,1.17.6,2.51.86,3.79.8,1.27-.07,2.52-.43,3.49-1.14.48-.35.9-.78,1.18-1.28.1-.16.16-.33.21-.51l4.98-10.34c.61,2.91,6.36,2.56,2.61,15.18,1.28-1.98,7.57-13.67,8.11-15.01Zm-1.57-.2c-.39-3.93-3.96-5.5-4.79-9.05l.52-1.08c.59,2.92,5.1,3.15,4.27,10.13Zm-7.17-4.1l.48-1c.43,2.83,5.57,2.83,4.1,10.59.09-4.44-3.65-5.91-4.58-9.59Z"/>
            <path class="cls-2" d="m261.12,398.4l-.91-.57-.58.93,24.94,15.56c-.58.12-1.15.39-1.64.77-.71.53-1.31,1.24-1.81,2.01-.99,1.55-1.51,3.36-1.61,5.13-.11,1.77.28,3.52,1.13,4.92.82,1.37,2.09,2.57,3.73,2.51,1.64-.08,3.1-1.43,4.07-2.9,1-1.51,1.57-3.32,1.67-5.08.1-1.76-.21-3.53-1.03-4.98-.41-.71-.93-1.35-1.58-1.82-.07-.05-.16-.09-.24-.14h.04s-20.73-12.94-20.73-12.94c5.7.59,6.44-9.87,19.43-2.69-18.75-12.91-12.65-1.5-24.89-.71Z"/>
            <path class="cls-2" d="m227.54,480.85l.82-1.38-.89-.48-15.94,26.78c-.12-.46-.35-.92-.67-1.31-.47-.6-1.09-1.11-1.76-1.52-1.34-.82-2.91-1.23-4.43-1.29-1.52-.06-3.02.31-4.2,1.06-1.16.73-2.17,1.85-2.08,3.25.1,1.41,1.28,2.63,2.56,3.44,1.32.83,2.88,1.28,4.39,1.35,1.51.05,3.03-.25,4.25-.97.61-.36,1.15-.82,1.54-1.39.08-.1.13-.22.19-.33h0s9.88-16.56,9.88-16.56c-.87,5.04,6.14,7.37,2.51,16.38l8.73-14.66c1.05-5.13-4.4-6.86-4.9-12.36Zm-3.94,6.61l1.27-2.14c-.22,3.52,5.25,4.18,3.52,12.15-.55-4.03-4.34-5.96-4.79-10.01Z"/>
            <path class="cls-2" d="m563.27,303.4l.42-1.24-.79-.23-8.25,24.07c-.17-.35-.44-.67-.76-.94-.48-.4-1.06-.7-1.66-.92-1.21-.43-2.53-.49-3.76-.29-1.22.21-2.36.75-3.18,1.55-.8.78-1.42,1.84-1.12,2.95.32,1.11,1.46,1.89,2.63,2.32,1.19.44,2.51.54,3.74.34,1.22-.21,2.38-.7,3.23-1.49.42-.39.78-.85.99-1.36.04-.09.07-.2.1-.3h0s5.11-14.89,5.11-14.89c.15,4.17,6.14,4.86,4.76,12.66l4.52-13.18c-.02-4.28-4.67-4.75-5.99-9.05Zm-2.04,5.94l.66-1.93c.41,2.85,4.89,2.46,4.85,9.12-1.11-3.13-4.46-4.04-5.5-7.19Z"/>
            <path class="cls-2" d="m260.89,137.08l8.35,16.48h0s2.42,4.79,2.42,4.79l23.06-11.69-2.42-4.78h0s-7.87-15.52-7.87-15.52l-.11-.09c.39.13.82.19,1.26.15.66-.05,1.33-.25,1.95-.53,1.24-.57,2.3-1.5,3.08-2.57.78-1.07,1.24-2.33,1.27-3.55.03-1.19-.28-2.46-1.33-3.08-1.06-.61-2.52-.36-3.73.18-1.24.55-2.32,1.45-3.1,2.52-.77,1.07-1.29,2.3-1.36,3.54-.04.61.04,1.23.26,1.78.09.26.24.49.41.69l8.54,16.86-21.58,10.94-7.68-15.14-.11-.09c.39.13.83.19,1.26.15.66-.05,1.33-.25,1.95-.53,1.24-.57,2.3-1.5,3.08-2.57.78-1.07,1.24-2.33,1.27-3.55.03-1.19-.28-2.46-1.33-3.08-1.06-.61-2.52-.36-3.73.18-1.24.55-2.32,1.45-3.1,2.52-.77,1.07-1.29,2.3-1.36,3.54-.03.61.04,1.23.26,1.78.09.26.24.49.41.69Z"/>
            <path class="cls-2" d="m251.99,436.55l.18-1.22-.17.02.49-3.3h.05s.82-5.58.82-5.58l-28.64,2.93-.34-.04-3.55,24.13.05.15c-.26-.37-.62-.69-1.04-.93-.62-.38-1.34-.62-2.08-.75-1.47-.27-3.01-.11-4.38.35-1.37.46-2.58,1.3-3.38,2.37-.78,1.05-1.3,2.38-.75,3.6.56,1.22,2.03,1.91,3.45,2.2,1.46.3,3,.17,4.37-.29,1.37-.46,2.61-1.24,3.46-2.31.42-.53.74-1.12.89-1.75.08-.29.1-.59.07-.88l2.33-15.8,27.08-2.77-2.15,14.65.04.15c-.26-.37-.62-.69-1.04-.93-.62-.38-1.34-.62-2.08-.76-1.48-.27-3.01-.11-4.38.35-1.37.46-2.58,1.29-3.38,2.37-.78,1.04-1.3,2.37-.76,3.6.56,1.22,2.03,1.91,3.45,2.2,1.45.3,3,.17,4.37-.29,1.37-.47,2.61-1.25,3.45-2.31.42-.53.74-1.12.9-1.75.08-.29.09-.59.07-.88l2.43-16.49.18-.02Zm-27.99,1.57l.47-3.21,27.07-2.77-.48,3.3-27.06,2.68Z"/>
            <path class="cls-2" d="m526.9,150.9v-10.36s.03,0,.03,0v-2.75l-13.6,3.44h-.17s0,11.9,0,11.9l.03.07c-.15-.16-.35-.29-.57-.38-.33-.14-.69-.2-1.06-.22-.73-.03-1.46.16-2.09.48-.63.32-1.15.81-1.46,1.38-.3.56-.46,1.24-.11,1.79.36.55,1.12.78,1.82.82.72.04,1.46-.13,2.08-.45.63-.32,1.17-.79,1.5-1.36.16-.28.28-.59.31-.91.02-.15,0-.29-.03-.43v-10.02s12.87-3.26,12.87-3.26v9.45s.03.07.03.07c-.15-.16-.35-.29-.57-.37-.33-.14-.69-.2-1.05-.22-.73-.03-1.46.16-2.09.48-.63.32-1.15.81-1.46,1.38-.3.56-.46,1.24-.11,1.79.36.55,1.12.78,1.82.82.72.04,1.46-.13,2.09-.45.63-.32,1.17-.79,1.5-1.36.17-.28.28-.59.31-.91.02-.14,0-.29-.03-.43Z"/>
            <g class="cls-1">
              <g>
                <rect class="cls-6" x="229.35" y="140.87" width=".68" height="23.85"/>
                <rect class="cls-6" x="237.14" y="139.99" width=".68" height="23.85"/>
              </g>
              <g>
                <rect class="cls-6" x="226.54" y="147.79" width="14.1" height=".9" transform="translate(-29.61 63) rotate(-14.45)"/>
                <rect class="cls-6" x="226.54" y="156.01" width="14.1" height=".9" transform="translate(-31.59 63.04) rotate(-14.41)"/>
              </g>
            </g>
            <g class="cls-1">
              <g>
                <rect class="cls-6" x="431.95" y="403.82" width=".68" height="23.85"/>
                <rect class="cls-6" x="439.74" y="402.93" width=".68" height="23.85"/>
              </g>
              <g>
                <rect class="cls-6" x="429.13" y="410.74" width="14.1" height=".9" transform="translate(-89.12 122.42) rotate(-14.51)"/>
                <rect class="cls-6" x="429.13" y="418.96" width="14.1" height=".9" transform="translate(-91.06 122.47) rotate(-14.49)"/>
              </g>
            </g>
            <path class="cls-2" d="m369.05,426.79c-.08-.23-.32-.65-.38-.72-.18-.26-.31-.42-.49-.61-.34-.36-.71-.64-1.1-.87-.78-.45-1.59-.67-2.38-.78-3.37-.25-5.87,1.13-7.1,2.01l7.9-21.86-1.07-.39-13.42,37.11,1.07.39.58-1.59c2.15-1.5,4.45-2.48,6.82-3.2,1.31-.42,2.63-.74,4.02-1.14.68-.22,1.42-.43,2.23-.88.82-.48,1.47-1.08,2.04-1.78.56-.7,1.04-1.5,1.35-2.47.3-.95.39-2.17-.06-3.24Zm-15.92,11.41l4.28-11.84c6.65-1.74,7.9.89,7.94,2.36-.12,4.74-8.28,4.75-12.22,9.48Z"/>
            <path class="cls-2" d="m368.35,158.04l-.03-8.96h-.98s.06,17.82.06,17.82l7.32-3.67-.02,8.91h.98s.04-17.8.04-17.8l-7.36,3.7Zm.02,7.36l-.02-6.35,6.37-3.2v6.36s-6.35,3.19-6.35,3.19Z"/>
            <path class="cls-2" d="m631.21,240.53l-.03-7.92h-.87s.06,15.75.06,15.75l6.47-3.25-.02,7.88h.87s.03-15.74.03-15.74l-6.51,3.27Zm.02,6.5l-.02-5.61,5.63-2.83v5.63s-5.62,2.82-5.62,2.82Z"/>
            <path class="cls-2" d="m611.36,30.41c2.95.71,5.23,4.34,4.81,6.17-.5,2.12-1.93,3.16-2.4,4.49-1.4,3.97,3.13,6.47,3.34,6.57-1.55.28-3.24.32-3.96,2.08-.65,1.59-.36,2.99-.11,4.58-1.46-.68-3.27-1.8-3.37-4.15-.11-2.63,1.37-2.9,2.84-3.96-1.64-.19-2.99-2.36-3.41-4.02-.44-1.73.22-3.17,1.08-4.65,1.26-2.15,2.11-4.35,1.17-6.94v-.18Z"/>
            <path class="cls-2" d="m188.3,441.96c5.21-7.96-1.31-10.48-1.2-15.99l.54-.71-.7-.53-17.24,22.86v.05c-.07-.45-.24-.91-.5-1.32-.37-.6-.88-1.12-1.45-1.56-1.15-.88-2.53-1.41-3.91-1.62-1.38-.21-2.78-.02-3.94.55-1.13.55-2.16,1.46-2.22,2.76-.05,1.29.9,2.53,1.99,3.39,1.12.89,2.49,1.46,3.87,1.66,1.37.2,2.78.08,3.97-.46.59-.27,1.13-.64,1.54-1.11.14-.15.24-.32.34-.49l7.52-9.97c.02,3.23,6.24,4.09-.47,16.75,1.79-1.84,11.01-12.96,11.86-14.27Zm-1.63-.55c.43-4.27-3.05-6.72-3.17-10.67l.79-1.04c0,3.24,4.77,4.45,2.38,11.72Zm-6.77-5.91l.73-.96c-.15,3.11,5.34,4.21,2.1,12.17,1.05-4.72-2.63-7.09-2.83-11.21Z"/>
            <path class="cls-2" d="m124.66,130.2l15.9-7.19.03.03,4.22-1.91-14.74-18.49-.13-.25-18.25,8.26-.08.1c.14-.34.2-.73.18-1.13-.02-.6-.17-1.2-.4-1.77-.47-1.14-1.26-2.13-2.19-2.87-.93-.74-2.04-1.21-3.14-1.29-1.07-.08-2.22.15-2.82,1.08-.59.93-.42,2.25.01,3.36.44,1.13,1.21,2.15,2.14,2.89.93.74,2.02,1.25,3.13,1.36.55.05,1.1.02,1.61-.16.24-.07.45-.19.64-.34l15.38-6.95,13.94,17.49-14.51,6.57-.08.1c.14-.34.2-.73.18-1.13-.02-.6-.17-1.2-.4-1.77-.47-1.14-1.26-2.13-2.19-2.88-.93-.74-2.05-1.21-3.14-1.29-1.07-.07-2.22.15-2.82,1.08-.59.93-.42,2.25.01,3.36.44,1.14,1.21,2.15,2.14,2.89.93.74,2.02,1.25,3.13,1.36.55.06,1.1.01,1.61-.16.23-.07.45-.2.64-.34Z"/>
            <path class="cls-2" d="m515.81,339.3l-16.38-13.09h0s-4.75-3.81-4.75-3.81l-18.31,22.93,4.75,3.8h0s15.44,12.33,15.44,12.33l.16.04c-.46.04-.94.2-1.37.44-.66.36-1.25.88-1.76,1.46-1.02,1.18-1.67,2.64-1.97,4.11-.3,1.47-.19,2.99.35,4.26.53,1.24,1.45,2.41,2.83,2.55,1.39.13,2.77-.82,3.77-1.94,1.02-1.15,1.71-2.59,2.02-4.06.29-1.46.25-2.98-.26-4.29-.25-.65-.62-1.25-1.1-1.72-.22-.22-.47-.39-.75-.52l-16.75-13.4,17.13-21.45,15.06,12.02.16.04c-.47.05-.94.2-1.37.44-.67.36-1.25.88-1.76,1.47-1.02,1.18-1.67,2.64-1.97,4.1-.3,1.47-.19,2.99.35,4.26.53,1.25,1.45,2.41,2.83,2.55,1.38.13,2.77-.82,3.77-1.94,1.02-1.15,1.71-2.59,2.02-4.06.3-1.46.25-2.98-.26-4.29-.25-.65-.62-1.25-1.1-1.72-.21-.22-.47-.39-.75-.52Z"/>
            <path class="cls-2" d="m445.11,376.91l.33.53.06-.06.89,1.44-.02.02,1.5,2.43,10.18-10.48.14-.1-6.49-10.54-.07-.04c.22.06.47.07.71.02.37-.06.72-.2,1.05-.38.66-.38,1.21-.94,1.59-1.57.38-.63.58-1.35.54-2.02-.04-.66-.27-1.35-.88-1.65-.62-.29-1.41-.08-2.06.27-.66.36-1.22.91-1.6,1.54-.38.63-.61,1.34-.59,2.03.01.34.08.68.23.97.06.14.15.26.26.36l4.25,6.91-9.63,9.91-3.94-6.4-.07-.04c.22.06.47.07.71.02.37-.06.72-.2,1.05-.38.66-.37,1.21-.94,1.59-1.57.38-.63.58-1.35.54-2.03-.04-.66-.27-1.35-.88-1.65-.62-.29-1.41-.08-2.06.27-.66.36-1.22.91-1.6,1.54-.38.63-.61,1.34-.59,2.03,0,.34.08.68.22.97.06.14.15.26.26.36l4.43,7.21-.06.06Zm10.37-9.74l.86,1.4-9.63,9.91-.89-1.44,9.65-9.87Z"/>
            <path class="cls-4" d="m-152.26,270.14l-1.11-12.61C-14.02,94.16,96.7,132.22,213.92,172.53c130.73,44.94,265.91,91.42,454.81-136.39l1.12.93c-84.83,102.3-166.77,158.2-250.5,170.88-74.19,11.24-141.15-8.87-205.91-31.13C96.71,136.69-13.56,107.53-152.26,270.14Z"/>
            <path class="cls-4" d="m-118.11,374.8l-1.22-9.55C-.93,186.11,113.61,210.4,234.87,236.12c135.23,28.68,275.06,58.33,434.8-190.8l1.23.79c-71.73,111.88-146.25,177.35-227.81,200.14-72.27,20.2-141.53,9.88-208.52-4.33C113.81,216.31-.26,196.49-118.11,374.8Z"/>
            <path class="cls-4" d="m-69.08,474.55l-4.22-9.4c95.68-192.24,212.33-182.08,335.82-171.34,137.72,11.98,280.12,24.38,408.3-242.36l1.31.63c-57.56,119.79-123.55,193.85-201.72,226.41-69.27,28.85-139.81,25.63-208.03,19.69-122.98-10.7-236.22-14.98-331.47,176.37Z"/>
            <path class="cls-4" d="m-13.14,566.52l-2.83-10.69c71.54-202.46,188.55-206.6,312.43-210.98,138.15-4.89,281.01-9.94,375.72-290.32l1.38.47c-42.54,125.91-99,207.46-172.62,249.3-65.23,37.08-136,41.04-204.43,43.46-123.37,4.36-238.44,17.24-309.65,218.76Z"/>
            <path class="cls-4" d="m60.52,631.86l-8.72-.32c46.34-209.67,161.97-228.04,284.39-247.49,136.52-21.69,277.7-44.12,337.54-333.94l1.43.3c-26.88,130.16-72.98,217.98-140.95,268.48-60.23,44.75-130.16,58.78-197.79,69.52-121.91,19.37-229.78,34.74-275.9,243.45Z"/>
            <g>
              <g>
                <rect class="cls-4" x="617.18" y="157.02" width=".72" height="25.26"/>
                <rect class="cls-4" x="625.42" y="156.08" width=".72" height="25.26"/>
              </g>
              <g>
                <rect class="cls-4" x="614.2" y="164.35" width="14.93" height=".96" transform="translate(-21.47 160.86) rotate(-14.5)"/>
                <rect class="cls-4" x="614.2" y="173.05" width="14.93" height=".96" transform="translate(-23.64 160.89) rotate(-14.47)"/>
              </g>
            </g>
            <g>
              <g>
                <rect class="cls-4" x="427.71" y="285.4" width="25.26" height=".72" transform="translate(-84.24 266.51) rotate(-30.88)"/>
                <rect class="cls-4" x="432.74" y="292" width="25.26" height=".72" transform="translate(-86.88 269.19) rotate(-30.79)"/>
              </g>
              <g>
                <rect class="cls-4" x="446.11" y="279.36" width=".96" height="14.93" transform="translate(-71.41 402.54) rotate(-45.3)"/>
                <rect class="cls-4" x="438.64" y="283.82" width=".96" height="14.93" transform="translate(-76.91 397.98) rotate(-45.24)"/>
              </g>
            </g>
            <path class="cls-4" d="m127.33,205.53l-.05-14.45h-1.58s.1,28.75.1,28.75l11.8-5.93-.03,14.38h1.58s.06-28.72.06-28.72l-11.88,5.97Zm.04,11.87l-.03-10.24,10.28-5.17-.02,10.27-10.23,5.14Z"/>
            <path class="cls-4" d="m87.6,381.58c-7.89-9.06-29.94-44.8,6.65-60.52,14.66-6.3,30.34-.81,38.15,8.04,8.01,9.07,21.13,47.2-19.68,65.91-17.29,7.93-47.28,6.52-62.33-4.1-51.1-36.06-13.71-84.3-9.28-91.17,16.42-25.41,86.51-76.48,51.18-169.35-3.22-8.46-8.68-17.42-17.41-21.87-15.49-7.89-28.26,4.33-35.13,16.09-8.47,14.49-8.05,43.19-4.47,58.57,12.38,53.07,40.68,103.81,42.07,107.33,2.4,6.03,28.13,59.33,30.09,63.02,31.22,58.6,35.23,80.85,35.55,101.38.37,24-32.04,47-52.71,27.54,6.01-.37,19.95-9.67,16.17-23.8-4.91-18.3-23.3-19.11-35.78-10.83-11.86,7.86-12.13,25.24-1.39,37.2,12.2,13.58,44.19,17.62,64.2,4.32,44.11-29.31-12.55-126.12-21.55-143.06-10.08-18.99-65.36-125.16-68.22-171.67-1.44-23.42,13.33-48.58,28.15-39.97,16.04,9.31,16.82,31.93,16.19,40.01-2.03,26.02-17.27,48.87-34.43,68.97-16.66,19.51-36.05,43.4-44.9,67.06-9.67,25.86-.84,64,22.58,81.99,7.98,6.13,27.52,18.38,53.98,17.26,39.59-1.68,90.8-27.69,77.79-79.67-11.45-45.72-72.25-47.87-97.47-20.75-5.73,6.16-10.26,14.07-12.04,22.35-4.73,22.03,10.12,47.84,34.07,49.73Z"/>
            <path class="cls-4" d="m243.33,385.49l-2.37,9.19c-.72-.51-1.48-.93-2.3-1.19-.15-.06-.31-.08-.46-.12h.06s-52.27-13.51-52.27-13.51l-.46,1.79,48.1,12.43c-.87.48-1.65,1.21-2.26,2.09-.88,1.22-1.49,2.67-1.89,4.16-.81,2.99-.72,6.19,0,9.08.73,2.9,2.25,5.54,4.32,7.36.38.33.79.64,1.2.93l-1.76,6.8,1.48.38,1.65-6.37c1.49.71,3.11.99,4.72.41,2.6-.97,4.27-3.87,5.09-6.75.85-2.94.84-6.14.12-9.04-.72-2.83-2.09-5.45-4.06-7.35l2.55-9.88-1.48-.38Zm-8.19,29.73c-1.29-2.11-2.07-4.52-2.69-6.93-.6-2.43-.94-4.98-.76-7.54.15-2.51,1.09-5.24,3.25-6.33,2.17-.65,4.12.83,5.41,2.64l-4.83,18.7c-.13-.17-.26-.35-.37-.53Zm8.28-11.04c.6,2.44,1.02,4.97.89,7.58-.08,1.3-.34,2.61-.89,3.77-.56,1.15-1.43,2.11-2.52,2.53-1.08.42-2.27.27-3.27-.32-.32-.18-.61-.4-.89-.64l4.71-18.23c.86,1.65,1.49,3.45,1.97,5.31Z"/>
            <path class="cls-4" d="m563.38,163.34l1.83,3.73-22.81,11.22.44.89,22.81-11.22,1.14,2.33c.12.38.27.76.44,1.13.2.42.44.81.7,1.19l4.97,10.1.73-.36-3.78-7.68c.18.15.36.3.55.44,1.31.92,2.85,1.47,4.33,1.48,1.45.02,2.98-.39,3.71-1.67.72-1.3.38-3.07-.29-4.52-.69-1.49-1.8-2.79-3.11-3.72-1.31-.91-2.82-1.52-4.32-1.58-.75-.03-1.49.07-2.15.35-.08.03-.15.07-.23.11l.02-.03-2.43,1.19-1.84-3.73-.73.36Zm7.35,3.01c1.24.36,2.42,1,3.52,1.77,1.1.78,2.15,1.66,3.01,2.77.42.56.77,1.18.95,1.84.18.66.16,1.36-.14,1.91-.29.55-.83.91-1.44,1.01-.61.13-1.26.03-1.89-.16-1.26-.4-2.42-1.11-3.52-1.88-1.09-.78-2.12-1.7-2.94-2.8-.81-1.07-1.38-2.51-.89-3.71.7-1.08,2.13-1.11,3.34-.77Zm-3.99,1.08c-.07.19-.12.38-.15.59l-.2-.41.35-.17Z"/>
            <path class="cls-4" d="m169.1,201.34l-.05,1.85,49.67,1.22c-.74.66-1.33,1.56-1.73,2.54-.58,1.39-.85,2.94-.91,4.48-.11,3.1.7,6.19,2.06,8.84,1.36,2.66,3.44,4.89,5.87,6.19,2.37,1.28,5.26,1.94,7.59.44,2.32-1.53,3.28-4.74,3.43-7.72.16-3.06-.57-6.18-1.93-8.84-1.37-2.65-3.34-4.95-5.77-6.35-1.2-.69-2.52-1.17-3.86-1.29-.16-.02-.31,0-.47,0l.06-.02-53.97-1.33Z"/>
            <path class="cls-4" d="m378.27,224.02l.72-1.1-29.55-19.3c.69-.13,1.39-.44,1.99-.89.87-.63,1.61-1.46,2.22-2.37,1.22-1.83,1.89-4,2.06-6.11.17-2.12-.25-4.24-1.24-5.94-.95-1.66-2.45-3.14-4.42-3.1-1.97.06-3.75,1.63-4.96,3.38-1.24,1.79-1.96,3.94-2.14,6.06-.16,2.11.17,4.24,1.12,6,.47.87,1.08,1.65,1.84,2.22.09.07.19.12.28.18h-.04s32.11,20.97,32.11,20.97Z"/>
            <path class="cls-4" d="m290.81,362.8l-.56-1.19-29.92,14.06c.23-.65.3-1.39.22-2.13-.1-1.06-.43-2.12-.88-3.12-.92-2-2.38-3.73-4.03-5.01-1.65-1.29-3.59-2.08-5.45-2.18-1.82-.11-3.74.34-4.65,1.99-.89,1.66-.45,3.99.41,5.94.88,1.99,2.3,3.75,3.95,5.04,1.65,1.28,3.56,2.15,5.45,2.31.94.08,1.87,0,2.7-.33.1-.04.19-.09.28-.14l-.03.03,32.51-15.28Z"/>
            <path class="cls-4" d="m666.59,75.38l-.41-.88-22.1,10.39c.17-.48.22-1.03.16-1.57-.07-.79-.31-1.57-.65-2.3-.68-1.48-1.76-2.75-2.98-3.7-1.22-.95-2.65-1.54-4.03-1.61-1.34-.08-2.76.25-3.44,1.47-.66,1.23-.33,2.95.3,4.39.65,1.47,1.7,2.77,2.92,3.72,1.22.94,2.63,1.59,4.02,1.71.69.06,1.38,0,2-.24.07-.03.14-.07.21-.1l-.02.02,24.02-11.29Z"/>
            <path class="cls-4" d="m531.22,131.72l-1.03.31,8.25,27.73c-.5-.29-1.1-.46-1.72-.5-.88-.07-1.78.06-2.65.3-1.73.5-3.3,1.5-4.53,2.73-1.23,1.24-2.09,2.78-2.37,4.37-.28,1.55-.13,3.26,1.12,4.28,1.26,1.01,3.22.97,4.9.51,1.72-.46,3.32-1.43,4.54-2.66,1.22-1.23,2.15-2.74,2.48-4.34.17-.79.2-1.6.02-2.37-.02-.09-.06-.17-.08-.26l.02.03-8.97-30.13Z"/>
            <path class="cls-4" d="m535.18,271.64l-1.06-.21-5.47,27.93c-.31-.48-.76-.91-1.29-1.22-.75-.46-1.61-.77-2.49-.95-1.77-.36-3.62-.21-5.27.3-1.66.51-3.14,1.47-4.11,2.71-.97,1.21-1.62,2.78-.98,4.24.66,1.46,2.41,2.32,4.11,2.7,1.74.39,3.6.28,5.25-.23,1.65-.51,3.17-1.4,4.2-2.64.51-.61.91-1.31,1.11-2.05.02-.09.03-.18.05-.27v.04s5.95-30.35,5.95-30.35Z"/>
            <path class="cls-4" d="m605.75,151.89l-1.07-.15-4.03,28.17c-.33-.47-.81-.87-1.35-1.15-.77-.43-1.65-.69-2.53-.82-1.78-.27-3.63-.02-5.25.57-1.63.6-3.06,1.62-3.97,2.92-.9,1.26-1.47,2.86-.76,4.29.73,1.42,2.52,2.19,4.24,2.48,1.76.3,3.61.1,5.24-.49,1.62-.6,3.09-1.56,4.06-2.85.48-.64.85-1.35,1.01-2.11.02-.09.02-.18.03-.27v.03s4.39-30.61,4.39-30.61Z"/>
            <path class="cls-4" d="m471.68,267.28l-1.15.62,19.87,36.82c-.71-.3-1.51-.42-2.28-.36-1.1.07-2.16.42-3.13.93-1.95,1.02-3.51,2.71-4.58,4.65-1.07,1.95-1.58,4.26-1.37,6.5.2,2.19.99,4.54,2.88,5.72,1.9,1.15,4.28.72,6.18-.23,1.95-.97,3.56-2.61,4.63-4.55,1.05-1.94,1.66-4.21,1.51-6.49-.07-1.13-.33-2.26-.81-3.29-.05-.12-.13-.23-.19-.35l.04.03-21.59-40.01Zm20.81,43.55c-.3,1.87-1,3.63-1.89,5.27-.9,1.63-1.96,3.19-3.35,4.44-.7.62-1.5,1.12-2.39,1.36-.88.24-1.85.17-2.64-.3-.8-.47-1.37-1.3-1.62-2.23-.27-.93-.24-1.92-.08-2.87.36-1.9,1.16-3.62,2.04-5.25.9-1.63,2-3.15,3.39-4.34,1.35-1.19,3.24-1.99,4.97-1.18,1.6,1.11,1.86,3.29,1.57,5.1Z"/>
            <path class="cls-4" d="m305.88,225.6l-1.29.22,7.09,41.23c-.58-.51-1.3-.88-2.05-1.07-1.06-.28-2.18-.29-3.26-.12-2.18.35-4.19,1.45-5.83,2.95-1.63,1.5-2.85,3.53-3.37,5.73-.51,2.14-.51,4.62.91,6.34,1.43,1.7,3.82,2.05,5.93,1.75,2.15-.3,4.21-1.34,5.84-2.84,1.62-1.51,2.91-3.46,3.49-5.67.29-1.1.41-2.25.28-3.37-.01-.13-.04-.26-.07-.39l.02.04-7.7-44.81Zm5.84,47.91c-.88,1.68-2.11,3.12-3.47,4.39-1.37,1.25-2.87,2.4-4.59,3.14-.86.36-1.78.58-2.7.53-.91-.05-1.81-.42-2.41-1.13-.61-.7-.89-1.67-.82-2.63.04-.96.39-1.9.84-2.74.95-1.68,2.25-3.06,3.61-4.33,1.37-1.26,2.9-2.35,4.6-3.03,1.66-.7,3.7-.85,5.08.46,1.16,1.56.71,3.71-.14,5.34Z"/>
            <path class="cls-4" d="m575.36,147.13l.93.17,5.5-29.81c.26.5.66.93,1.12,1.24.65.46,1.41.74,2.19.9,1.57.31,3.21.07,4.7-.54,1.49-.61,2.83-1.69,3.73-3.05.88-1.33,1.5-3.01.97-4.53-.55-1.51-2.09-2.35-3.59-2.67-1.54-.33-3.2-.14-4.68.47-1.48.62-2.85,1.63-3.79,2.98-.47.67-.84,1.42-1.04,2.22-.02.09-.03.19-.05.28v-.03s-5.99,32.39-5.99,32.39Zm8.02-34.03c1.02-.92,2.22-1.6,3.46-2.12,1.25-.51,2.56-.91,3.91-.99.67-.03,1.35.05,1.97.31.61.27,1.12.74,1.36,1.37.23.63.18,1.36-.1,1.99-.27.64-.74,1.19-1.26,1.65-1.06.91-2.3,1.52-3.53,2.04-1.25.51-2.56.87-3.89.91-1.3.06-2.73-.35-3.34-1.59-.4-1.35.44-2.7,1.43-3.59Z"/>
            <path class="cls-4" d="m379.01,277.84c1.76-16.96-10.69-15.62-15.03-24.48l.27-1.57-1.54-.27-8.69,50.57.02.09c-.46-.67-1.11-1.26-1.86-1.69-1.08-.65-2.32-1.05-3.59-1.29-2.55-.47-5.19-.17-7.55.63-2.36.81-4.45,2.25-5.82,4.1-1.34,1.8-2.24,4.1-1.28,6.21.98,2.1,3.51,3.29,5.96,3.77,2.51.5,5.17.28,7.53-.52,2.35-.81,4.5-2.16,5.95-4,.72-.91,1.27-1.94,1.53-3.03.1-.35.12-.7.13-1.06l3.8-22.05c2.7,5.13,13.3,1.4,13.01,27.07,1.34-4.39,6.89-29.68,7.18-32.47Zm-3.04.46c-2.82-7.15-10.37-8.19-13.81-14.39l.4-2.31c2.66,5.17,11.25,3.18,13.41,16.71Zm-15.63-3.85l.36-2.13c2.31,5.09,11.96,2.32,13.34,17.67-2.21-8.38-10.01-9.14-13.71-15.54Z"/>
            <path class="cls-4" d="m277.1,285.87l1.15-1.37-1.4-1.18-31.63,37.76c-.06-.98-.38-2-.91-2.91-.72-1.31-1.75-2.47-2.91-3.47-2.34-1.99-5.23-3.28-8.13-3.86-2.91-.59-5.91-.35-8.43.73-2.46,1.05-4.75,2.88-5.03,5.61-.24,2.74,1.64,5.47,3.87,7.43,2.28,2.02,5.14,3.37,8.04,3.96,2.9.57,5.91.47,8.49-.55,1.28-.51,2.46-1.23,3.39-2.19.11-.11.2-.24.3-.36l-.02.06,26.3-31.39c-2.31,9.32,14.87,12.99-.05,32.88,25.79-28.12,5.44-20.64,6.97-41.14Z"/>
            <path class="cls-4" d="m414.26,308.68l-.34-1.76-1.8.34,9.25,48.38c-.8-.57-1.79-.97-2.83-1.14-1.47-.27-3.02-.2-4.53.06-3.02.55-5.85,1.98-8.14,3.86-2.29,1.88-4.01,4.36-4.76,6.99-.74,2.57-.77,5.5,1.17,7.44,1.97,1.92,5.28,2.19,8.21,1.7,3-.49,5.86-1.85,8.16-3.72,2.28-1.88,4.1-4.29,4.94-6.93.42-1.31.61-2.68.44-4.01-.01-.16-.06-.3-.09-.46l.03.05-7.69-40.23c5.76,7.68,19.47-3.31,25.44,20.83-5.48-37.76-12.55-17.26-27.46-31.42Z"/>
            <path class="cls-4" d="m185.2,110.86l.71-2.97-1.44-.26-13.79,57.72c-.33-.73-.81-1.38-1.41-1.87-.88-.75-1.94-1.24-3.04-1.52-2.21-.56-4.6-.25-6.8.64-2.2.9-4.23,2.53-5.67,4.63-1.41,2.05-2.49,4.68-1.89,7.11.62,2.41,2.73,3.8,4.85,4.38,2.17.6,4.57.37,6.76-.52,2.19-.9,4.26-2.43,5.77-4.52.75-1.04,1.36-2.2,1.73-3.45.07-.23.12-.47.16-.71v.02s8.55-35.73,8.55-35.73c.46,9.45,11.31,8.95,9.17,27.22l7.55-31.6c-.24-9.74-8.65-9.2-11.23-18.56Zm-3.41,14.25l1.1-4.61c.88,6.34,8.95,3.92,9.17,19.11-2.15-6.76-8.25-7.66-10.27-14.49Z"/>
            <path class="cls-4" d="m488.3,154.83l-.07-1.49-.71.07,1.35,29c-.25-.3-.57-.54-.92-.69-.52-.24-1.08-.32-1.63-.3-1.11.04-2.2.5-3.11,1.22-.91.72-1.64,1.76-2.04,2.95-.38,1.16-.53,2.54.08,3.6.62,1.05,1.8,1.42,2.87,1.4,1.1-.01,2.2-.44,3.11-1.16.91-.72,1.67-1.72,2.1-2.91.21-.59.34-1.22.34-1.86,0-.12,0-.24-.02-.36h0s-.83-17.94-.83-17.94c1.5,4.38,6.53,2.67,8,11.55l-.74-15.88c-1.44-4.54-5.31-3.15-7.8-7.2Zm.33,7.16l-.11-2.32c1.27,2.86,4.74.63,6.9,7.74-1.93-2.88-4.91-2.48-6.79-5.42Z"/>
            <path class="cls-4" d="m419.29,233.17l-.07-1.5-.71.07,1.35,28.99c-.25-.3-.57-.54-.92-.69-.52-.24-1.08-.32-1.63-.3-1.11.04-2.2.5-3.11,1.22-.91.72-1.64,1.76-2.04,2.95-.38,1.16-.53,2.54.08,3.59.62,1.05,1.8,1.42,2.87,1.4,1.1-.01,2.2-.44,3.11-1.16.91-.72,1.67-1.72,2.1-2.91.21-.59.34-1.22.34-1.86,0-.12,0-.24-.02-.35h0s-.83-17.94-.83-17.94c1.5,4.38,6.53,2.67,8,11.55l-.74-15.88c-1.44-4.54-5.31-3.15-7.8-7.2Zm.33,7.16l-.11-2.32c1.27,2.86,4.74.63,6.9,7.74-1.93-2.89-4.91-2.48-6.79-5.42Z"/>
            <path class="cls-4" d="m627.3,101.57l-.23-1.48-.7.15,4.47,28.68c-.29-.27-.63-.48-.99-.58-.54-.18-1.11-.2-1.65-.12-1.1.16-2.13.74-2.96,1.55-.83.81-1.45,1.93-1.71,3.15-.26,1.19-.26,2.58.46,3.57.73.98,1.94,1.21,3.01,1.08,1.1-.13,2.14-.68,2.96-1.49.82-.81,1.48-1.89,1.77-3.12.15-.61.21-1.25.14-1.88,0-.12-.03-.24-.06-.35h0s-2.76-17.75-2.76-17.75c1.96,4.19,6.78,1.95,9.2,10.62l-2.45-15.7c-1.92-4.36-5.62-2.56-8.53-6.32Zm1.1,7.08l-.36-2.29c1.57,2.71,4.78.11,7.69,6.95-2.23-2.66-5.15-1.93-7.34-4.65Z"/>
            <path class="cls-4" d="m562.91,267.74l.16,1.49.7-.12-3.16-28.85c.27.28.6.5.96.63.53.2,1.1.25,1.65.2,1.11-.11,2.16-.64,3.02-1.41.86-.78,1.53-1.86,1.85-3.07.31-1.18.37-2.57-.3-3.58-.68-1.01-1.88-1.3-2.95-1.22-1.1.08-2.16.58-3.03,1.35-.86.78-1.56,1.82-1.91,3.03-.18.6-.27,1.24-.23,1.87,0,.12.02.24.04.35h0s1.95,17.86,1.95,17.86c-1.77-4.28-6.68-2.26-8.7-11.03l1.72,15.8c1.71,4.45,5.5,2.82,8.23,6.7Zm-.78-7.12l.25,2.31c-1.45-2.78-4.77-.33-7.37-7.29,2.1,2.76,5.06,2.17,7.12,4.98Z"/>
            <path class="cls-4" d="m310.68,370.95v25.78s-.07.01-.07.01v6.84l33.87-8.57.41-.02v-29.59s-.08-.17-.08-.17c.38.39.87.72,1.41.93.82.34,1.72.5,2.63.54,1.82.07,3.64-.4,5.2-1.2,1.56-.8,2.87-2.01,3.65-3.44.75-1.39,1.15-3.08.27-4.45-.89-1.36-2.78-1.94-4.53-2.03-1.8-.1-3.63.32-5.19,1.12-1.56.8-2.92,1.96-3.74,3.38-.41.71-.69,1.48-.77,2.26-.05.36,0,.72.08,1.07v24.94s-32.03,8.11-32.03,8.11v-23.52s-.08-.17-.08-.17c.38.39.87.72,1.41.93.81.34,1.72.5,2.63.54,1.82.07,3.64-.4,5.2-1.19,1.57-.8,2.87-2.01,3.65-3.44.75-1.39,1.15-3.08.27-4.46-.89-1.36-2.78-1.94-4.53-2.03-1.8-.1-3.63.33-5.19,1.12-1.56.8-2.92,1.96-3.74,3.38-.41.71-.69,1.48-.76,2.26-.05.36-.01.72.07,1.07Z"/>
            <path class="cls-4" d="m614.85,237.93l-8.68-19.33.04-.03-2.3-5.13-22.5,17.85-.3.15,9.98,22.18.12.1c-.42-.17-.89-.25-1.37-.23-.73.02-1.46.2-2.15.48-1.38.57-2.59,1.53-3.49,2.65-.9,1.12-1.48,2.48-1.57,3.81-.1,1.29.18,2.7,1.3,3.43,1.13.72,2.74.52,4.08,0,1.38-.53,2.61-1.47,3.51-2.59.9-1.12,1.53-2.45,1.67-3.8.07-.67.02-1.34-.19-1.95-.09-.29-.24-.55-.42-.78l-8.4-18.7,21.27-16.87,7.93,17.63.12.1c-.42-.17-.89-.24-1.37-.22-.72.01-1.46.2-2.15.48-1.39.56-2.59,1.53-3.5,2.65-.9,1.13-1.48,2.48-1.57,3.81-.1,1.3.18,2.7,1.3,3.43,1.13.72,2.73.51,4.08,0,1.38-.53,2.61-1.47,3.52-2.59.9-1.13,1.53-2.45,1.66-3.8.07-.67.02-1.34-.19-1.95-.09-.29-.23-.54-.42-.78Z"/>
            <path class="cls-4" d="m158.01,256.06c7.84-.7,16.47,6.35,16.92,11.19.53,5.62-2.14,9.37-2.2,13.04-.17,10.94,13.04,13.32,13.66,13.39-3.57,1.98-7.69,3.47-8.01,8.38-.3,4.44,1.59,7.64,3.53,11.35-4.15-.46-9.54-1.73-11.72-7.41-2.45-6.38.98-8.26,3.72-12.09-4.19.88-9.31-3.33-11.71-7.06-2.51-3.9-2.08-7.98-1.18-12.33,1.31-6.33,1.59-12.44-2.87-18.05l-.14-.43Z"/>
            <path class="cls-4" d="m267.3,223.7h.03s1.09-.4,1.09-.4l63.54-22.89h0s.03-.01.03-.01l-10.85-30.1c.57.29,1.25.44,1.93.44.97.03,1.96-.17,2.9-.5,1.88-.66,3.55-1.86,4.83-3.3,1.28-1.44,2.13-3.2,2.34-4.97.22-1.72-.06-3.61-1.5-4.66-1.46-1.03-3.61-.87-5.44-.26-1.88.62-3.58,1.78-4.85,3.22-1.27,1.44-2.2,3.16-2.47,4.95-.14.89-.12,1.78.12,2.62.02.1.07.19.11.28l-.03-.03,9.5,26.37-30.67,11.05-8.57-23.77c.57.29,1.25.44,1.93.44.97.02,1.96-.17,2.9-.5,1.88-.66,3.55-1.86,4.83-3.3,1.28-1.44,2.13-3.21,2.35-4.97.22-1.72-.06-3.61-1.5-4.66-1.46-1.03-3.61-.87-5.44-.26-1.87.62-3.58,1.78-4.85,3.22-1.27,1.44-2.2,3.16-2.47,4.95-.13.88-.12,1.78.13,2.62.02.1.07.19.11.28l-.03-.03,9.5,26.38-30.67,11.05-8.56-23.77c.57.29,1.24.44,1.93.44.97.02,1.96-.18,2.9-.5,1.88-.66,3.55-1.86,4.83-3.3,1.28-1.44,2.13-3.2,2.34-4.97.22-1.72-.06-3.61-1.5-4.66-1.46-1.03-3.61-.87-5.44-.26-1.88.62-3.57,1.78-4.86,3.22-1.27,1.44-2.19,3.16-2.47,4.95-.13.88-.11,1.78.12,2.62.03.1.07.19.11.28l-.03-.03,11.78,32.71Z"/>
            <path class="cls-4" d="m531.33,200.37h-.02s-.9.37-.9.37l-52.44,21.01h0s-.03.01-.03.01l9.95,24.84c-.49-.22-1.05-.33-1.63-.31-.81,0-1.63.2-2.41.5-1.56.61-2.91,1.66-3.94,2.9-1.03,1.24-1.69,2.74-1.82,4.23-.13,1.44.16,3.01,1.4,3.85,1.25.82,3.04.62,4.55.06,1.55-.57,2.93-1.6,3.96-2.83,1.02-1.24,1.74-2.71,1.92-4.21.09-.74.04-1.49-.18-2.18-.02-.08-.07-.16-.1-.23l.03.02-6.95-17.33,25.31-10.14,6.08,15.18c-.49-.22-1.06-.33-1.63-.31-.81,0-1.63.21-2.41.5-1.56.6-2.91,1.66-3.94,2.9-1.03,1.24-1.69,2.74-1.82,4.23-.13,1.45.16,3.01,1.39,3.85,1.25.82,3.04.62,4.56.06,1.55-.57,2.93-1.6,3.96-2.83,1.02-1.24,1.74-2.71,1.92-4.21.09-.75.04-1.49-.18-2.18-.03-.08-.07-.16-.1-.24l.02.02-6.95-17.33,25.31-10.14,6.08,15.18c-.49-.22-1.05-.33-1.63-.31-.81,0-1.63.2-2.41.5-1.56.61-2.91,1.66-3.94,2.9-1.03,1.24-1.69,2.74-1.81,4.22-.13,1.45.16,3.01,1.39,3.85,1.25.82,3.04.62,4.55.06,1.55-.57,2.94-1.6,3.96-2.83,1.02-1.24,1.74-2.71,1.92-4.21.09-.74.04-1.49-.18-2.18-.03-.08-.07-.16-.1-.23l.02.02-10.81-27Zm-49.08,29.49l-1.3-3.24,25.31-10.14,1.3,3.24-25.31,10.14Zm26.24-10.51l-1.3-3.24,25.31-10.14,1.3,3.24-25.31,10.14Z"/>
            <path class="cls-4" d="m440.11,203.53h-.02s-.67-.07-.67-.07l-38.9-3.81h-.02s-1.81,18.43-1.81,18.43c-.23-.29-.54-.54-.9-.71-.5-.25-1.07-.39-1.64-.46-1.15-.12-2.32.09-3.34.52-1.03.43-1.91,1.15-2.46,2.02-.54.85-.86,1.9-.37,2.81.5.9,1.67,1.35,2.78,1.49,1.13.14,2.31-.05,3.33-.48,1.02-.43,1.93-1.11,2.52-1.97.29-.43.5-.9.59-1.4.01-.06.01-.12.01-.18v.02s1.27-12.86,1.27-12.86l18.78,1.84-1.1,11.26c-.23-.29-.54-.54-.9-.71-.5-.25-1.07-.39-1.64-.46-1.15-.13-2.32.09-3.34.52-1.03.44-1.91,1.15-2.46,2.02-.54.85-.86,1.9-.37,2.81.51.9,1.67,1.35,2.78,1.49,1.13.14,2.31-.04,3.34-.48,1.02-.44,1.93-1.11,2.52-1.97.29-.43.5-.9.58-1.4,0-.06,0-.12.02-.18v.02s1.27-12.86,1.27-12.86l18.78,1.84-1.1,11.26c-.23-.29-.54-.54-.9-.71-.5-.25-1.07-.4-1.64-.46-1.15-.12-2.32.09-3.35.52-1.03.43-1.91,1.15-2.46,2.02-.54.85-.87,1.9-.37,2.81.51.9,1.67,1.35,2.78,1.49,1.13.14,2.31-.04,3.34-.48,1.02-.44,1.93-1.11,2.52-1.97.29-.43.5-.9.59-1.4,0-.06,0-.12.02-.18v.02s1.97-20.02,1.97-20.02Zm-39.54,2.47l.24-2.4,18.78,1.84-.24,2.4-18.78-1.84Zm19.46,1.91l.23-2.4,18.78,1.84-.23,2.4-18.77-1.84Z"/>
          </g>
        </g>
      </g>
    </g>
  </g>
</svg>