<?xml version="1.0" encoding="UTF-8"?>
<svg id="Layer_2" data-name="Layer 2" xmlns="http://www.w3.org/2000/svg" viewBox="0 0 12.17 12.17">
  <defs>
    <style>
      .cls-1 {
        fill: #fff;
      }
    </style>
  </defs>
  <g id="Camada_1" data-name="Camada 1">
    <g id="Phone_FIlled" data-name="Phone FIlled">
      <path class="cls-1" d="m10.07,7.69c-.43-.43-.97-.43-1.4,0-.33.33-.66.65-.98.98-.09.09-.16.11-.27.05-.21-.12-.44-.21-.64-.34-.95-.6-1.75-1.37-2.45-2.23-.35-.43-.66-.89-.88-1.41-.04-.1-.04-.17.05-.26.33-.32.65-.64.97-.97.45-.45.45-.98,0-1.44-.26-.26-.51-.51-.77-.77-.26-.26-.53-.53-.79-.79-.43-.42-.97-.42-1.4,0-.33.33-.65.66-.98.98C.2,1.79.04,2.15,0,2.57c-.05.69.12,1.33.35,1.97.49,1.31,1.22,2.47,2.12,3.53,1.21,1.44,2.65,2.58,4.34,3.4.76.37,1.55.65,2.41.7.59.03,1.1-.12,1.51-.58.28-.31.6-.6.9-.9.44-.45.44-.99,0-1.43-.52-.53-1.05-1.05-1.58-1.57Z"/>
      <path class="cls-1" d="m12.14,5.41C11.07,2.96,9.15,1.04,6.73.03c-.2-.08-.43.02-.51.22s.02.44.22.53c2.23.93,4,2.7,4.99,4.96.07.15.21.24.36.24.05,0,.11-.01.16-.04.2-.09.29-.33.2-.54Z"/>
      <path class="cls-1" d="m6.22,2.95c1.35.57,2.43,1.63,3.03,3,.06.15.2.23.35.23.05,0,.11-.01.16-.03.19-.09.28-.32.19-.52-.68-1.56-1.9-2.77-3.43-3.41-.2-.08-.42.02-.5.22-.08.2.01.43.21.51Z"/>
    </g>
  </g>
</svg>